<?xml version="1.0" encoding="utf-8"?>
<!-- Generator: Adobe Illustrator 12.0.0, SVG Export Plug-In . SVG Version: 6.00 Build 51448)  -->
<!DOCTYPE svg PUBLIC "-//W3C//DTD SVG 1.1//EN" "http://www.w3.org/Graphics/SVG/1.1/DTD/svg11.dtd" [
	<!ENTITY ns_svg "http://www.w3.org/2000/svg">
	<!ENTITY ns_xlink "http://www.w3.org/1999/xlink">
]>
<svg  version="1.1" id="レイヤー_1" xmlns="&ns_svg;" xmlns:xlink="&ns_xlink;" width="312.671" height="75.72"
	 viewBox="0 0 312.671 75.72" overflow="visible" enable-background="new 0 0 312.671 75.72" xml:space="preserve">
<g>
	<path fill="none" stroke="#F39700" stroke-width="2" d="M51.113,4.369c3.223-1.793,5.161-2.777,5.814-2.952
		c1.655-0.479,2.723-0.545,3.202-0.197c0.261,0.175,0.392,0.393,0.392,0.653c0,0.523-0.61,1.177-1.83,1.96
		c-0.479,0.306-1.351,0.872-2.613,1.699c3.005,1.089,5.575,3.18,7.71,6.272c0.827,1.176,1.241,2.766,1.241,4.77
		c0,2.962-0.632,5.249-1.895,6.86c-1.612,2.047-3.682,3.702-6.207,4.966c1.48,1.438,2.482,2.767,3.005,3.985
		c0.609,1.395,0.915,2.94,0.915,4.639c0,2.833-0.828,6.055-2.482,9.67c-1.177,2.658-3.289,4.857-6.338,6.6s-6.099,2.613-9.147,2.613
		c-2.266,0-4.16-0.543-5.684-1.631c-2.788-2.002-4.487-4.264-5.097-6.787c-3.311,4.104-6.729,6.811-10.258,8.119
		c-1.873,0.699-4.269,1.049-7.187,1.049c-2.048,0-4.095-0.438-6.142-1.309c-2.222-0.959-3.877-2.201-4.966-3.727
		C1.849,49.267,1,46.868,1,44.427c0-3.443,1.35-6.125,4.051-8.043c1.089-0.784,2.265-1.177,3.528-1.177
		c1.394,0,2.58,0.469,3.561,1.405s1.471,2.058,1.471,3.364c0,1.656-0.61,2.875-1.83,3.66c-2.222,1.438-3.332,2.787-3.332,4.051
		c0,0.521,0.195,1.066,0.588,1.633c0.653,1.002,1.764,1.502,3.332,1.502c1.22,0,2.505-0.369,3.855-1.109
		c2.525-1.395,4.747-3.377,6.664-5.947c1.176-1.611,3.07-4.768,5.685-9.472c3.092-5.531,5.901-10.214,8.428-14.048
		c3.267-5.008,6.49-9.059,9.67-12.152c-1.22-0.261-2.461-0.392-3.724-0.392c-2.919,0-5.772,0.61-8.56,1.829
		c-4.313,1.83-7.492,3.877-9.539,6.142c-1.786,1.961-2.962,4.378-3.527,7.253c-0.131,0.653-0.196,1.285-0.196,1.895
		c0,2.788,1.307,4.552,3.92,5.292c1.394,0.393,2.091,1.046,2.091,1.96c0,1.307-0.632,2.178-1.895,2.613
		c-0.349,0.131-0.741,0.196-1.177,0.196c-1.786,0-3.289-0.827-4.508-2.482c-1.395-1.916-2.091-4.072-2.091-6.469
		c0-1.307,0.413-3.55,1.241-6.729c0.827-3.049,3.397-6.207,7.71-9.475c5.27-3.92,10.976-5.88,17.118-5.88
		C46.365,3.845,48.892,4.02,51.113,4.369z M51.439,9.53c-0.959,0.959-1.938,2.069-2.94,3.332c-1.394,1.742-2.809,4.856-4.246,9.343
		c-2.004,5.968-3.638,10.323-4.9,13.067c1.611-0.74,2.831-1.22,3.659-1.438c0.392-0.087,0.74-0.131,1.045-0.131
		c0.958,0,1.438,0.458,1.438,1.372c0,0.915-0.697,1.503-2.091,1.764c-1.699,0.306-3.638,1.481-5.815,3.529
		c-1.351,1.264-2.025,2.854-2.025,4.77c0,1.045,0.305,1.852,0.915,2.418c1.394,1.307,2.831,1.959,4.313,1.959
		c1.654,0,3.396-0.936,5.227-2.809c0.914-0.959,1.829-2.396,2.744-4.313c1.089-2.439,1.634-4.704,1.634-6.794
		c0-0.479-0.044-0.958-0.131-1.438c-0.305-2.178-0.98-3.528-2.025-4.051c0-0.043-0.98-0.218-2.94-0.523
		c-1.22,0-1.829-0.675-1.829-2.025c0-1.394,0.871-2.243,2.613-2.548c1.394-0.043,2.787-0.108,4.182-0.196
		c2.787-0.348,4.726-2.7,5.814-7.056c0.131-0.522,0.196-1.067,0.196-1.634c0-2.482-0.959-4.333-2.875-5.554
		C52.833,10.227,52.18,9.878,51.439,9.53z"/>
	<path fill="none" stroke="#F39700" stroke-width="2" d="M63.041,44.419c-0.959-0.609-1.176-1.326-0.653-2.154
		c0.871-1.002,2.679-3.223,5.423-6.663c1.394-2.047,2.81-4.093,4.247-6.14c1.611-2.264,2.853-3.505,3.724-3.724
		c1.176-0.305,1.873-0.457,2.091-0.457c0.392,0,0.806,0.262,1.241,0.784c1.916,2.265,2.875,3.897,2.875,4.898
		c0,1.176-0.894,3.724-2.679,7.643c-1.655,3.658-2.482,6.009-2.482,7.054c0,0.479,0.195,0.719,0.588,0.719
		c0.479,0,1.567-0.893,3.267-2.68c2.091-2.221,3.528-3.332,4.313-3.332c0.914,0,1.372,0.414,1.372,1.242
		c0,0.436-0.24,1.066-0.719,1.893c-1.133,1.916-3.594,4.377-7.383,7.381c-4.095,3.266-7.122,4.898-9.082,4.898
		c-1.307,0-2.374-0.523-3.201-1.568C65.327,53.388,65,52.581,65,51.798c0-1.611,0.413-3.418,1.241-5.422
		c0.436-1.088,1.938-4.266,4.509-9.536c-1.742,2.178-3.725,4.53-5.945,7.057C64.413,44.202,63.824,44.376,63.041,44.419z
		 M89.829,10.391c0.783,0.566,1.176,1.566,1.176,3.002c0,2.176-0.719,4.08-2.156,5.711c-1.438,1.632-3.18,2.447-5.227,2.447
		c-1.264,0-2.33-0.315-3.201-0.946s-1.307-1.707-1.307-3.23c0-1.871,0.696-3.72,2.091-5.548c1.307-1.696,2.961-2.545,4.965-2.545
		C87.563,9.282,88.783,9.652,89.829,10.391z"/>
	<path fill="none" stroke="#F39700" stroke-width="2" d="M91.296,31.018c-1.002-0.827-1.502-1.852-1.502-3.072
		c0-1.002,0.326-2.156,0.98-3.464c1.088-2.092,2.678-3.138,4.769-3.138c0.783,0,1.447,0.219,1.992,0.655s0.817,1.112,0.817,2.028
		c0,0.917-0.262,1.921-0.784,3.012c1.132,0.654,2.83,0.609,5.096-0.133c1.916-0.666,3.267-1,4.051-1
		c1.176,0,1.873,0.502,2.091,1.504c0.087,0.35,0.131,0.698,0.131,1.047c0,0.742-0.218,1.56-0.653,2.453
		c-0.436,0.895-0.871,1.755-1.307,2.583c-1.438,3.053-3.05,6.583-4.835,10.595c-0.515,1.439-0.515,2.313,0,2.617
		c0.74,0,1.394-0.371,1.96-1.111c1.045-0.957,2.353-2.221,3.921-3.789c0.436-0.609,1.023-0.914,1.764-0.914
		c0.436,0,0.74,0.131,0.915,0.391c0.348,0.35,0.522,0.654,0.522,0.916c0,0.305-0.393,0.936-1.176,1.893
		c-4.182,5.051-8.473,8.645-12.871,10.777c-1.22,0.609-2.396,0.914-3.528,0.914c-1.655,0-2.973-0.588-3.953-1.764
		s-1.404-2.395-1.273-3.658c0.305-2.742,2.525-6.705,6.664-11.888c1.611-2.003,2.417-3.57,2.417-4.703
		c0-1.088-0.937-1.633-2.81-1.633c-4.705,6.142-8.059,10.193-10.062,12.152c-0.74,0.74-1.503,0.85-2.287,0.326
		c-0.348-0.174-0.522-0.457-0.522-0.85s0.175-0.74,0.522-1.045c1.873-2.092,3.332-3.791,4.378-5.099
		C88.508,35.355,90.032,33.154,91.296,31.018z"/>
	<path fill="none" stroke="#F39700" stroke-width="2" d="M118.447,29.597c-1.395,0-2.091-0.544-2.091-1.632
		c0-0.348,0.108-0.74,0.327-1.176c0.479-0.826,2.155-1.24,5.03-1.24c0.522-0.609,0.914-1.088,1.176-1.437
		c0.305-0.521,1.917-3.199,4.835-8.031c0.479-0.783,1.002-1.175,1.568-1.175c0.521,0,1.132,0.392,1.829,1.173
		c0.566,0.652,1.11,1.304,1.633,1.954c0.609,0.869,0.915,1.781,0.915,2.736c0,1.043-0.305,2.216-0.914,3.519
		c0-0.043-0.24,0.413-0.719,1.368c3.658,0,5.488,0.372,5.488,1.114c0,0.219-0.109,0.502-0.327,0.852l-1.176,1.703
		c-0.305,0.263-0.937,0.394-1.895,0.394c-0.306,0-0.927,0-1.863,0s-1.709,0-2.318,0c-1.656,2.847-2.701,4.589-3.137,5.226
		c0-0.087,0.261-0.565,0.784-1.437c-3.615,6.881-5.51,10.584-5.684,11.106c-0.566,1.482-0.501,2.418,0.196,2.811
		c0.217,0.131,0.652,0.098,1.306-0.098s1.154-0.469,1.503-0.818c1.655-1.307,3.572-2.895,5.75-4.768
		c0.522-0.566,1.132-0.85,1.829-0.85c0.914,0,1.372,0.414,1.372,1.24c0,0.393-0.393,1.047-1.176,1.961
		c-1.742,2.092-4.422,4.443-8.037,7.057c-4.225,3.006-7.383,4.508-9.474,4.508c-1.699,0-3.071-0.631-4.116-1.895
		c-0.958-1.09-1.35-2.244-1.176-3.463c0.392-3.006,2.396-7.602,6.012-13.787c-1.699,2.178-3.834,4.748-6.403,7.71
		c-0.828,0.828-1.612,0.957-2.353,0.391c-0.795-0.479-0.795-1.152,0-2.023C110.192,39.196,113.961,34.865,118.447,29.597z"/>
	<path fill="none" stroke="#F39700" stroke-width="2" d="M130.522,42.132c0.13-0.217,2.373-2.68,6.729-7.386
		c1.002-1.089,2.635-3.321,4.9-6.698c2.265-3.377,4.094-6.329,5.488-8.856c1.001-2.048,2.003-4.074,3.005-6.078
		c1.655-3.137,2.962-4.706,3.92-4.706c1.568,0,3.027,2.245,4.378,6.733c0.043,0.131,0.065,0.305,0.065,0.522
		c0,0.959-0.871,3.073-2.613,6.341c-2.527,4.794-4.27,8.28-5.228,10.459c6.795-4.37,11.564-6.556,14.309-6.556
		c0.914,0,1.677,0.327,2.286,0.981s0.915,1.461,0.915,2.42c0,0.654-0.131,1.396-0.392,2.224c-0.306,0.96-2.375,4.906-6.207,11.838
		c-0.305,0.568-0.457,1.068-0.457,1.504c0,0.699,0.457,1.047,1.372,1.047c0.783,0,1.415-0.195,1.895-0.588
		c1.394-1.131,2.635-2.373,3.725-3.723c0.74-0.914,1.371-1.373,1.895-1.373c0.871,0,1.307,0.414,1.307,1.24
		c0,0.307-0.175,0.699-0.522,1.178c-0.349,0.479-0.545,0.783-0.588,0.912c-0.088,0.436-2.31,2.592-6.665,6.465
		c-1.568,1.395-3.332,2.678-5.292,3.854c-2.135,1.307-3.702,1.959-4.704,1.959c-0.219,0-0.414-0.045-0.588-0.131
		c-2.527-1.393-3.79-2.873-3.79-4.441c0-1.088,0.501-2.785,1.503-5.094c1.263-2.83,1.895-4.896,1.895-6.203
		c0-0.609-0.196-0.914-0.588-0.914c-0.871,0-2.723,1.852-5.554,5.555c-3.354,4.4-6.054,7.385-8.101,8.953
		c-0.131,0.086-1.308,0.674-3.528,1.764c-0.349,0.174-0.676,0.262-0.98,0.262c-1.002,0-1.785-0.785-2.352-2.354
		c-0.219-0.566,1.11-3.506,3.985-8.82c4.051-7.45,6.315-11.675,6.795-12.677c-0.828,1.395-2.701,3.877-5.619,7.449
		c-2.483,3.006-4.029,4.814-4.639,5.424c-0.262,0.262-0.523,0.391-0.784,0.391c-0.697,0-1.177-0.305-1.438-0.914
		C129.999,43.438,130.087,42.786,130.522,42.132z"/>
	<path fill="none" stroke="#F39700" stroke-width="2" d="M183.313,50.169c-3.789,3.951-6.947,5.926-9.475,5.926
		c-0.914,0-1.764-0.219-2.547-0.652c-1.83-1-2.744-2.74-2.744-5.219c0-0.607,0.064-1.238,0.195-1.891
		c0.174-1.131,0.326-1.848,0.457-2.152c0.262-0.695,0.719-1.326,1.373-1.893c-1.09,1.09-1.873,1.633-2.352,1.633
		c-0.393,0-0.764-0.195-1.111-0.588s-0.523-0.785-0.523-1.178c0-0.566,0.436-1.109,1.307-1.633s2.396-2.18,4.574-4.971
		c2.525-3.225,4.9-5.775,7.121-7.65c3.223-2.746,6.25-4.119,9.082-4.119c1.785,0,3.375,0.551,4.77,1.65
		c2.744-5.045,5.793-10.524,9.146-16.44c0.305-0.521,0.633-1.065,0.98-1.631c0.305-0.392,0.807-0.522,1.504-0.392
		c1.219,0.174,2.264,0.936,3.135,2.285c1.002,1.523,1.504,2.765,1.504,3.722c0,1.088-2.113,5.963-6.338,14.624
		c-1.83,3.961-4.051,8.509-6.664,13.645c-0.393,0.566-0.588,1.088-0.588,1.566c0,0.783,0.457,1.176,1.371,1.176
		c0.523,0,0.959-0.174,1.307-0.523c0.74-0.826,1.742-1.785,3.006-2.875c0.609-0.348,0.98-0.521,1.111-0.521
		c0.305,0,0.697,0.174,1.176,0.521c0.217,0.176,0.326,0.393,0.326,0.654c0,0.74-1.48,2.721-4.443,5.943
		c-3.963,4.355-7.971,6.533-12.021,6.533C185.6,55.72,184.053,53.87,183.313,50.169z M181.549,46.706
		c1.393,0,3.463-2.068,6.207-6.207c2.133-3.223,3.201-5.641,3.201-7.252c0-1.002-0.436-1.503-1.307-1.503
		c-1.221,0-3.42,2.243-6.6,6.729c-1.916,2.702-2.875,4.858-2.875,6.469C180.176,46.118,180.633,46.706,181.549,46.706z"/>
	<path fill="none" stroke="#F39700" stroke-width="2" d="M229.113,26.909c0.872-1.749,1.309-2.646,1.309-2.69
		c0.652-1.486,1.479-2.361,2.479-2.624c0.695-0.174,1.782,0.524,3.261,2.093c1.174,1.265,1.761,2.485,1.761,3.662
		c0,0.828-0.503,2.202-1.508,4.12c-1.137,2.224-2.862,5.515-5.179,9.874c-0.874,1.613-1.311,2.988-1.311,4.121
		c0,0.74,0.152,1.199,0.457,1.373s1.264-0.393,2.875-1.699c1.438-1.176,2.592-2.264,3.463-3.266c0.522-0.609,0.85-0.916,0.98-0.916
		c0.261,0,0.565,0.219,0.914,0.654s0.523,0.805,0.523,1.109c0,0.393-0.283,0.883-0.85,1.471s-1.154,1.207-1.764,1.859
		c-0.915,1.002-2.56,2.516-4.934,4.541c-2.374,2.023-3.975,3.297-4.802,3.82c-1.48,0.914-2.918,1.371-4.312,1.371
		c-1.09,0-2.081-0.316-2.974-0.947s-1.339-1.598-1.339-2.904c0-0.652,0.108-1.371,0.326-2.154c-2.439,2.049-4.465,3.531-6.076,4.445
		c-1.611,0.916-3.223,1.373-4.834,1.373c-1.612,0-2.941-0.502-3.986-1.504s-1.567-2.287-1.567-3.857
		c0-1.568,0.413-3.201,1.241-4.902c-0.959,0.088-1.568,0.012-1.83-0.229c-0.262-0.238-0.392-0.926-0.392-2.059
		c0-0.262,0.381-0.74,1.145-1.438s1.494-1.373,2.192-2.027c1.09-0.915,2.747-2.679,4.972-5.294c1.352-1.917,2.552-3.377,3.599-4.379
		c1.918-1.743,4.143-2.985,6.673-3.727c1.134-0.348,2.377-0.522,3.729-0.522C225.755,25.657,227.674,26.075,229.113,26.909z
		 M215.159,47.099c0.914,0,2.243-0.893,3.985-2.68c1.307-1.393,2.418-2.766,3.333-4.115c2.09-3.18,3.136-5.577,3.136-7.188
		c0-1.045-0.436-1.568-1.307-1.568c-1.177,0-3.376,2.243-6.599,6.729c-2.483,3.486-3.725,5.947-3.725,7.384
		C213.983,46.62,214.375,47.099,215.159,47.099z"/>
	<path fill="none" stroke="#F39700" stroke-width="2" d="M250.408,53.501c0.566-0.088,1.22-0.24,1.96-0.459
		c1.785-2.57,3.419-5.926,4.9-10.064c0.958-2.658,1.438-5.142,1.438-7.453c0-1.133-0.131-2.353-0.393-3.66
		c-0.262-1.307-0.392-2.069-0.392-2.288c0-1.655,0.457-3.312,1.372-4.968c0.697-1.176,1.699-1.765,3.006-1.765
		c1.263,0,2.352,0.676,3.267,2.026c0.653,0.916,0.98,2.18,0.98,3.791c0,2.746-0.763,5.754-2.287,9.021
		c-2.091,4.619-4.596,9.109-7.514,13.466c3.963-2.439,7.143-5.314,9.539-8.625c0.522-0.697,1.197-1.045,2.025-1.045
		c0.74,0,1.11,0.305,1.11,0.914c0,0.523-0.283,1.154-0.85,1.895c-1.786,2.438-4.813,5.201-9.081,8.293
		c-2.135,1.523-4.16,2.568-6.076,3.135c-2.179,2.83-4.291,5.246-6.338,7.248c-6.752,6.574-12.065,10.361-15.942,11.363
		c-0.958,0.262-1.895,0.393-2.81,0.393c-2.83,0-4.813-1.242-5.945-3.723c-0.348-0.74-0.522-1.502-0.522-2.285
		c0-3.57,2.854-6.729,8.56-9.471c3.18-1.523,7.013-2.83,11.499-3.918c0.609-2.221,1.328-5.529,2.156-9.926
		c0.261-1.35,0.392-2.395,0.392-3.135c0-0.914-0.283-1.742-0.85-2.482c-0.131-0.174-0.305-0.262-0.522-0.262
		c-0.479,0-1.83,1.285-4.051,3.855c-0.697,0.828-1.351,1.176-1.96,1.045c-0.566-0.086-0.85-0.479-0.85-1.176
		c0-0.652,0.326-1.307,0.98-1.959c1.176-1.176,3.136-3.486,5.88-6.927c1.524-1.959,3.027-3.919,4.508-5.88
		c1.22-1.438,2.396-2.156,3.528-2.156c2.004,0,3.006,1.873,3.006,5.619c0,1.873-0.218,4.334-0.653,7.383
		C252.738,44.376,251.715,49.103,250.408,53.501z M241.065,58.345c-7.622,1.914-12.239,4.57-13.852,7.965
		c-0.436,0.957-0.653,1.807-0.653,2.547c0,1.828,1.154,2.742,3.463,2.742c4.356-0.566,7.841-4.354,10.454-11.361
		C240.608,59.933,240.804,59.302,241.065,58.345z"/>
	<path fill="none" stroke="#F39700" stroke-width="2" d="M274.952,44.812c1.089,0.697,1.634,1.785,1.634,3.266
		c0,1.656-0.577,3.332-1.731,5.031s-2.712,2.549-4.672,2.549c-1.395,0-2.494-0.424-3.3-1.273s-1.208-1.863-1.208-3.039
		c0-1.307,0.479-2.656,1.438-4.051c1.438-2.135,3.223-3.201,5.357-3.201C273.341,44.093,274.168,44.333,274.952,44.812z
		 M274.3,39.062c0-2.831,1.59-7.838,4.77-15.024s7.056-11.04,11.63-11.563c0.696-0.087,1.306-0.131,1.829-0.131
		c1.785,0,2.679,0.522,2.679,1.567c0,0.61-0.24,1.395-0.719,2.352c-1.699,3.354-4.226,7.644-7.579,12.869
		c-3.877,6.141-6.708,9.974-8.493,11.498c-1.176,0.959-2.178,1.328-3.006,1.109C274.67,41.522,274.3,40.63,274.3,39.062z"/>
	<path fill="none" stroke="#F39700" stroke-width="2" d="M291.416,44.812c1.089,0.697,1.634,1.785,1.634,3.266
		c0,1.656-0.577,3.332-1.731,5.031s-2.712,2.549-4.672,2.549c-1.395,0-2.494-0.424-3.3-1.273s-1.208-1.863-1.208-3.039
		c0-1.307,0.479-2.656,1.438-4.051c1.438-2.135,3.223-3.201,5.357-3.201C289.805,44.093,290.632,44.333,291.416,44.812z
		 M290.764,39.062c0-2.831,1.59-7.838,4.77-15.024s7.056-11.04,11.63-11.563c0.696-0.087,1.306-0.131,1.829-0.131
		c1.785,0,2.679,0.522,2.679,1.567c0,0.61-0.24,1.395-0.719,2.352c-1.699,3.354-4.226,7.644-7.579,12.869
		c-3.877,6.141-6.708,9.974-8.493,11.498c-1.176,0.959-2.178,1.328-3.006,1.109C291.134,41.522,290.764,40.63,290.764,39.062z"/>
</g>
</svg>
