<?xml version="1.0" encoding="utf-8"?>
<!-- Generator: Adobe Illustrator 12.0.0, SVG Export Plug-In . SVG Version: 6.00 Build 51448)  -->
<!DOCTYPE svg PUBLIC "-//W3C//DTD SVG 1.1//EN" "http://www.w3.org/Graphics/SVG/1.1/DTD/svg11.dtd" [
	<!ENTITY ns_svg "http://www.w3.org/2000/svg">
	<!ENTITY ns_xlink "http://www.w3.org/1999/xlink">
]>
<svg  version="1.1" id="レイヤー_1" xmlns="&ns_svg;" xmlns:xlink="&ns_xlink;" width="299.708" height="318.482"
	 viewBox="0 0 299.708 318.482" overflow="visible" enable-background="new 0 0 299.708 318.482" xml:space="preserve">
<g>
	<g>
		<path d="M231.188,126.248c5.019,11.812,8.03,23.625,10.037,35.438c2.009,13.781-9.034,81.703-10.037,96.47
			c-1.004,17.718,1.003,67.921-27.103,57.094c-21.08-8.86-31.117-46.266-32.122-66.938c-3.011-35.438,15.058-87.609,19.072-123.047
			l-1.003-1.969c-29.11,3.938-54.206-11.813-65.248-39.375c-10.038-27.563,7.985-54.141,21.035-78.75
			c12.045,2.954,7.071,20.672,17.109,27.563c12.046-8.859,37.141-7.875,50.19-7.875c7.026,0,23.087,7.875,27.103,4.922
			c9.034-3.937,5.041-22.641,13.071-28.547c10.039,14.766,27.08,49.219,26.076,67.922c-1.003,20.672-24.091,53.157-48.182,54.141
			V126.248z"/>
		<g>
			<path fill="none" d="M231.188,126.248c5.019,11.812,8.03,23.625,10.037,35.438c2.009,13.781-9.034,81.703-10.037,96.47
				c-1.004,17.718,1.003,67.921-27.103,57.094c-21.08-8.86-31.117-46.266-32.122-66.938c-3.011-35.438,15.058-87.609,19.072-123.047
				l-1.003-1.969c-29.11,3.938-54.206-11.813-65.248-39.375c-10.038-27.563,7.985-54.141,21.035-78.75
				c12.045,2.954,7.071,20.672,17.109,27.563c12.046-8.859,37.141-7.875,50.19-7.875c7.026,0,23.087,7.875,27.103,4.922
				c9.034-3.937,5.041-22.641,13.071-28.547c10.039,14.766,27.08,49.219,26.076,67.922c-1.003,20.672-24.091,53.157-48.182,54.141
				V126.248z"/>
			<path d="M229.983,126.581c4.844,11.632,9.755,25.287,10.214,38.01c0.252,6.986-0.594,14.069-1.293,21.008
				c-1.891,18.761-4.63,37.429-7.077,56.121c-1.728,13.194-1.913,26.278-2.943,39.522c-0.953,12.247-3.567,37.975-21.664,33.708
				c-15.703-3.703-23.952-23.402-28.381-37.03c-4.963-15.278-6.646-31.369-5.623-47.363c1.295-20.253,6.089-40.241,10.477-59.994
				c2.116-9.527,4.233-19.055,6.032-28.648c1.049-5.588,4.073-13.98,1.388-19.25c-0.178-0.35-0.676-0.669-1.079-0.619
				c-15.935,1.983-31.625-1.713-44.397-11.615c-14.037-10.883-23.175-28.339-22.436-46.171
				c0.808-19.481,12.233-37.392,21.304-54.007c1.125-2.061,1.125-4.128,3.572-2.85c1.494,0.78,2.52,2.195,3.372,3.591
				c1.7,2.788,2.335,6.292,3.16,9.41c1.387,5.24,3.237,10.062,7.69,13.409c0.326,0.245,0.934,0.229,1.262,0
				c9.613-6.698,22.562-7.293,33.881-7.645c4.891-0.152,9.786-0.082,14.678-0.061c5.063,0.021,9.954,1.899,14.748,3.346
				c6.76,2.04,13.811,4.325,18.308-2.632c4.762-7.367,1.778-18.766,9.003-24.704c-0.654-0.084-1.309-0.168-1.963-0.253
				c6.305,9.375,11.483,19.525,16.045,29.845c4.981,11.269,9.953,23.961,9.896,36.464c-0.056,12.332-7.234,24.65-14.667,34.017
				c-7.886,9.937-19.183,19.04-32.301,19.856c-0.68,0.042-1.25,0.537-1.25,1.25c0,0.984,0,1.969,0,2.953c0,1.612,2.5,1.612,2.5,0
				c0-0.984,0-1.969,0-2.953c-0.417,0.417-0.833,0.833-1.25,1.25c24.669-1.534,45.453-29.027,49.081-51.928
				c1.946-12.283-3.029-25.387-7.497-36.58c-4.914-12.314-10.992-24.423-18.399-35.436c-0.479-0.713-1.317-0.784-1.963-0.253
				c-3.996,3.284-5.093,8.504-6.055,13.344c-1.041,5.232-1.576,13.323-7.547,15.367c-2.576,0.882-6.409-0.639-8.895-1.323
				c-3.198-0.88-6.35-1.925-9.542-2.823c-5.803-1.632-11.626-1.358-17.604-1.333c-7.046,0.03-14.075,0.375-21.058,1.347
				c-3.569,0.497-7.083,1.3-10.52,2.378c-1.817,0.57-7.783,4.304-9.044,3.176c-8.179-7.315-3.552-22.858-15.994-26.518
				c-0.521-0.153-1.153,0.089-1.412,0.575c-12.191,22.861-28.888,47.588-22.672,74.763c4.764,20.827,23.021,38.048,43.169,43.744
				c4.853,1.372,9.919,1.948,14.947,2.089c2.813,0.079,5.624-0.125,8.419-0.412c0.946-0.097,0.528-0.446,1.195,0.864
				c0.563,1.104-0.662,4.709-0.84,5.924c-1.812,12.382-4.622,24.616-7.331,36.825c-5.424,24.438-11.77,49.526-11.207,74.738
				c0.436,19.53,5.264,40.067,15.543,56.807c6.556,10.675,22.622,25.408,35.085,14.271c4.898-4.378,6.914-11.652,8.269-17.813
				c1.717-7.807,2.234-15.878,2.59-23.843c0.604-13.478,1.844-26.557,3.635-39.943c2.317-17.322,4.763-34.647,6.353-52.057
				c0.528-5.776,1.11-11.682,0.722-17.485c-0.834-12.474-5.458-25.652-10.224-37.095
				C231.783,124.45,229.363,125.092,229.983,126.581z"/>
		</g>
	</g>
	<g>
		<path d="M222.938,311.755c14.101,0.426,37.963-40.426,43.842-53.399c4.303-8.823,11.181-46.95,26.839-43.12
			c16.494,4.136-8.044,46.207-14.017,54.421c-11.629,15.598-31.599,43.693-51.245,47.856c-5.123,0.967-11.596,0.49-16.922-0.51"/>
		<g>
			<path fill="none" d="M222.938,311.755c14.101,0.426,37.963-40.426,43.842-53.399c4.303-8.823,11.181-46.95,26.839-43.12
				c16.494,4.136-8.044,46.207-14.017,54.421c-11.629,15.598-31.599,43.693-51.245,47.856c-5.123,0.967-11.596,0.49-16.922-0.51"/>
			<path fill="#8A5C29" d="M222.903,312.126c6.187-0.065,11.399-5.379,15.37-9.522c6.603-6.891,12.042-14.938,17.125-22.979
				c4.188-6.626,8.141-13.474,11.473-20.574c2.958-6.303,4.516-13.281,6.773-19.851c2.651-7.717,5.839-17.123,12.676-22.153
				c3.158-2.323,7.866-2.358,10.645,0.563c2.471,2.598,2.022,7.064,1.561,10.286c-1.226,8.555-5.289,16.858-9.16,24.482
				c-3.145,6.192-6.593,12.397-10.748,17.979c-8.146,10.942-16.311,21.893-26.048,31.496c-4.905,4.839-10.331,9.211-16.441,12.431
				c-7.735,4.076-16.252,3.811-24.657,2.35c-0.476-0.083-0.541,0.661-0.07,0.742c11.557,2.01,20.979,0.704,30.745-5.835
				c9.718-6.506,17.618-15.758,24.912-24.782c10.534-13.036,19.814-26.455,26.676-41.792c3.166-7.077,12.503-28.641-1.567-30.343
				c-6.007-0.727-10.35,5.35-12.971,9.821c-4.2,7.166-6.626,15.365-9.102,23.242c-3.69,11.74-9.375,22.124-15.95,32.528
				c-4.288,6.784-8.947,13.364-14.196,19.442c-4.075,4.719-10.161,11.655-16.974,11.728
				C222.497,311.389,222.422,312.132,222.903,312.126L222.903,312.126z"/>
		</g>
	</g>
</g>
<g>
	<g>
		<path d="M91.03,159.276c8.175,9.16,14.729,18.92,20.473,28.982c6.431,11.84,12.81,55.771,17.153,69.404
			c5.375,16.3,24.52,61.024-1.947,59.683c-20.108-1.672-41.269-32.434-49.294-50.797c-14.801-31.091-10.841-62.254-19.97-95.454
			l-0.167-2.051c-24.143-0.842-41.869-34.056-46.341-59.4c-3.661-25.198,5.488-47.212,19.996-66.509
			c9.251,4.295,12.068,20.577,19.064,27.971c11.156-5.878,31.263-1.381,41.801,0.517c5.674,1.021,17.374,10.14,21.094,8.18
			c7.93-2.077,12.568-17.894,20.005-21.812c5.725,14.177,9.086,45.455,5.259,61.417c-4.144,17.658-28.027,42.277-47.641,39.622"/>
		<g>
			<path fill="none" d="M91.03,159.276c8.175,9.16,14.729,18.92,20.473,28.982c6.431,11.84,12.81,55.771,17.153,69.404
				c5.375,16.3,24.52,61.024-1.947,59.683c-20.108-1.672-41.269-32.434-49.294-50.797c-14.801-31.091-10.841-62.254-19.97-95.454
				l-0.167-2.051c-24.143-0.842-41.869-34.056-46.341-59.4c-3.661-25.198,5.488-47.212,19.996-66.509
				c9.251,4.295,12.068,20.577,19.064,27.971c11.156-5.878,31.263-1.381,41.801,0.517c5.674,1.021,17.374,10.14,21.094,8.18
				c7.93-2.077,12.568-17.894,20.005-21.812c5.725,14.177,9.086,45.455,5.259,61.417c-4.144,17.658-28.027,42.277-47.641,39.622"/>
			<path d="M90.146,160.16c8.42,9.559,17.724,21.002,22.163,33.121c3.234,8.828,5.019,18.262,6.951,27.438
				c2.06,9.779,3.891,19.609,6.116,29.354c1.563,6.843,3.981,13.332,6.281,19.95c2.883,8.296,5.549,16.733,6.918,25.429
				c1.062,6.739,1.674,17.069-6.132,19.99c-9.915,3.71-21.149-5.304-27.788-11.531c-8.679-8.142-15.621-18.202-21.433-28.531
				c-9.053-16.089-13.609-33.621-16.147-51.789c-1.294-9.262-2.197-18.574-3.472-27.839c-0.655-4.755-1.459-9.486-2.391-14.194
				c-0.822-4.152-2.342-8.302-2.684-12.514c-0.058-0.71-0.526-1.209-1.25-1.25c-23.444-1.327-36.934-28.84-42.757-48.365
				C6.429,92.3,15.68,65.745,32.012,43.764c-0.57,0.149-1.14,0.299-1.71,0.449c10.145,5.278,11.579,19.661,18.811,27.775
				c0.391,0.439,1.027,0.433,1.515,0.195c9.122-4.436,20.447-2.804,30.087-1.287c3.842,0.605,7.732,1.236,11.523,2.107
				c4.128,0.948,8.065,3.809,11.796,5.726c5.233,2.69,9.113,3.566,13.846-0.45c6.321-5.363,8.347-14.886,15.647-19.211
				c-0.612-0.249-1.224-0.498-1.836-0.747c3.679,9.418,5.193,19.697,6.167,29.707c0.993,10.203,1.365,20.985-0.908,31.045
				c-2.272,10.056-9.385,18.983-16.675,25.939c-7.835,7.476-18.547,13.98-29.761,12.765c-1.602-0.174-1.585,2.329,0,2.5
				c20.774,2.252,40.537-18.673,47.551-36.356c4.015-10.123,3.29-22.377,2.537-32.994c-0.791-11.153-2.412-22.804-6.5-33.271
				c-0.288-0.737-1.086-1.191-1.836-0.747c-3.744,2.218-6.193,5.875-8.557,9.428c-2.773,4.168-6.315,11.765-11.96,12.485
				c-4.497,0.574-11.03-4.766-14.91-6.665c-4.382-2.144-9.359-2.634-14.118-3.451c-6.214-1.066-12.488-1.805-18.799-1.765
				c-2.841,0.019-5.66,0.362-8.443,0.911c-2.927,0.577-4.5,2.754-6.451,0.063c-5.989-8.264-7.709-20.788-17.464-25.863
				c-0.656-0.341-1.288-0.119-1.71,0.449C12.277,66.157,3.907,93.884,12.901,122.684c6.246,19.998,20.719,46.271,44.377,47.609
				c-0.417-0.417-0.833-0.833-1.25-1.25c0.41,5.046,2.143,9.993,3.126,14.965c1.592,8.043,2.578,16.197,3.545,24.334
				c1.662,13.984,3.271,27.968,7.105,41.561c6.137,21.754,18.987,43.58,36.086,58.494c8.968,7.823,30.354,17.946,35.061,0.361
				c1.898-7.093,0.055-15.217-1.623-22.158c-1.994-8.25-4.898-16.259-7.731-24.248c-5.687-16.04-7.875-33.22-11.542-49.79
				c-1.726-7.798-3.46-15.787-6.61-23.157c-4.803-11.236-13.512-21.908-21.532-31.012C90.846,157.18,89.085,158.955,90.146,160.16
				L90.146,160.16z"/>
		</g>
	</g>
	<g>
		<path d="M113.27,310.86c-15.787,6.408-59.284-25.811-69.429-37.313c-7.235-7.693-25.009-46.895-39.937-36.231
			c-15.687,11.34,30.211,47.03,40.418,53.311c19.721,11.8,59.501,30.783,83.122,26.967"/>
		<g>
			<path fill="none" d="M113.27,310.86c-15.787,6.408-59.284-25.811-69.429-37.313c-7.235-7.693-25.009-46.895-39.937-36.231
				c-15.687,11.34,30.211,47.03,40.418,53.311c19.721,11.8,59.501,30.783,83.122,26.967"/>
			<path fill="#603438" d="M113.11,310.523c-7.438,2.74-16.479-1.489-23.144-4.598c-9.294-4.333-17.986-10.027-26.283-16.018
				c-6.582-4.75-13.142-9.837-18.756-15.724c-4.79-5.022-8.068-11.501-11.847-17.274c-5.156-7.879-18.659-29.54-30.393-19.068
				c-9.205,8.217,7.775,24.599,12.921,29.781c12.103,12.188,25.719,22.257,40.903,30.213c11.787,6.177,24.064,11.52,36.744,15.576
				c10.889,3.483,22.788,6.221,34.253,4.549c0.477-0.069,0.346-0.804-0.13-0.734c-11.391,1.66-23.037-1.158-33.865-4.515
				c-11.449-3.549-22.498-8.416-33.208-13.766c-14.97-7.479-28.01-16.697-40.273-28.084c-6.169-5.729-12.312-12.001-16.481-19.378
				c-3.527-6.24-3.501-15.472,5.933-15.619c8.224-0.129,15.092,10.209,19.283,16.038c4.7,6.536,8.549,13.657,13.336,20.127
				c3.156,4.266,7.53,7.765,11.589,11.119c6.802,5.622,14.036,10.738,21.501,15.437c7.051,4.438,14.47,8.48,22.335,11.28
				c4.947,1.762,10.789,3.215,15.9,1.331C113.881,311.031,113.558,310.358,113.11,310.523L113.11,310.523z"/>
		</g>
	</g>
</g>
</svg>
