<?xml version="1.0" encoding="utf-8"?>
<!-- Generator: Adobe Illustrator 12.0.0, SVG Export Plug-In . SVG Version: 6.00 Build 51448)  -->
<!DOCTYPE svg PUBLIC "-//W3C//DTD SVG 1.1//EN" "http://www.w3.org/Graphics/SVG/1.1/DTD/svg11.dtd" [
	<!ENTITY ns_svg "http://www.w3.org/2000/svg">
	<!ENTITY ns_xlink "http://www.w3.org/1999/xlink">
]>
<svg  version="1.1" id="レイヤー_1" xmlns="&ns_svg;" xmlns:xlink="&ns_xlink;" width="200.975" height="70.931"
	 viewBox="0 0 200.975 70.931" overflow="visible" enable-background="new 0 0 200.975 70.931" xml:space="preserve">
<g id="XMLID_1_">
	<g>
	</g>
	<g>
		<path fill="none" stroke="#EB6100" stroke-width="2" d="M171.45,53.576c0.24,0.01,0.19,0.3,0.24,0.48
			c-1.72,4.32-3.98,9.95-8.16,12c-5.15,2.54-7.97-1.8-4.8-6C161.17,56.835,167.92,54.646,171.45,53.576z"/>
		<path fill="none" stroke="#EB6100" stroke-width="2" d="M74.01,42.295c-1.43-2.72,1.09-6.05,2.88-8.64
			c1.84-2.65,4.51-5.73,6.72-6.96c0.2,0.13,0.39,0.25,0.72,0.24c1.85,3.77-4.25,11.64-6.96,13.92
			C76.48,41.616,75.06,42.466,74.01,42.295z"/>
		<path fill="none" stroke="#EB6100" stroke-width="2" d="M75.69,6.056c-2.11,4.77-5.43,8.33-10.32,10.32
			c1.76-2.27,4.62-7.42,6.96-9.6C73.11,6.065,74.44,4.976,75.69,6.056z"/>
		<path fill="none" stroke="#EB6100" stroke-width="2" d="M125.85,41.335c2.99,0.23,4.77-3.07,6.72-5.28
			c3.83-4.31,7.12-8.22,11.04-13.44c1.33-1.76,4.12-6.36,5.76-6.48c1.61-0.11,4.45,2.55,4.8,4.8c0.48,3.02-1.6,5.64-2.4,7.68
			c4.06-2.1,8.6-9.36,15.84-6.72c1.66,8.1-5.8,12.41-6,19.44c2.82,0.3,4.34-2.62,5.76-4.32c3.09-3.69,6.26-7.24,9.36-11.28
			c1.47-1.9,2.95-4.75,6.24-4.08c4.6,6.25-0.48,19.62-1.68,27.12c2.67-0.62,4.21-4.3,5.52-7.44c1.33-3.18,2.669-6.95,2.64-10.56
			c-0.03-3.91-2.39-12.54,3.359-12.72c3.66-0.11,4.761,3.91,4.32,8.16c-0.76,7.5-6.479,14.3-9.12,19.44
			c2.181-1.02,4.311-2.58,6.24-4.56c1.49-1.52,2.51-4.63,5.52-4.32c0.75,1.88-0.729,3.49-1.68,4.56c-3.45,3.95-8.64,7.33-13.68,9.6
			c-2.72,3.11-6.12,7.07-10.08,10.56c-3.67,3.25-7.92,7.11-12.48,8.16c-7.39,1.72-11.92-4.95-7.68-10.56
			c3.56-4.7,11.73-6.62,18.24-8.4c0.9-4.55,4.04-11.12,1.68-15.84c-5.39,3.95-10.22,12.67-17.52,15.12c-1.98,0.67-5.9,0.79-7.2-0.72
			c-2.14-2.49,0.21-7.89,1.44-9.84c1.8-2.84,5.28-4.26,4.56-8.16c-2.6,0.3-4.17,2.76-5.76,4.56c-1.52,1.73-3.41,3.64-4.56,5.52
			c-5.78,9.49-9.87,26.69-21.36,28.08c-3.87,0.47-5.12-0.09-5.52-1.44c-0.49-1.67,1.87-3.42,3.12-4.8
			c8.76-9.54,13.68-22.66,21.12-33.12c-6.14,4.78-12.17,16.27-20.88,19.68c-3.32,1.31-8.22,1-8.64-2.64
			c-0.77-6.72,6.55-10.01,6.96-15.6c-2.49-0.33-4.3,2.41-5.76,4.08c-1.53,1.77-3.4,3.66-4.56,5.52c-4.53,7.31-8.48,20.5-15.12,25.68
			c-2.78,2.18-7.9,3.99-11.76,1.44c-0.45-2.31,1.65-3.72,2.88-5.04c8.67-9.24,13.77-22.64,21.36-33.36
			c-2.63,2.51-6.41,6.69-10.32,10.8c-3.55,3.75-7.71,8.22-11.52,9.84c-3.08,1.32-8.89,0.53-7.44-4.8
			c-2.32,1.25-7.41,6.16-12.48,5.04c-2.83-0.62-4.98-4.84-3.12-8.64c-3.02,2.61-12.29,13.42-18.48,7.68
			c-2.32-2.15-2.63-6.5-1.68-10.08c1.47-5.46,5.14-10.89,6.96-15.36c-1.99,0.02-4.1-0.1-5.76,0.24
			c-3.25,12.55-11.35,26.53-24.24,27.6c-8.69,0.73-18.6-4.12-17.76-13.44c0.33-3.55,2.78-7.45,5.76-8.4
			c6.06-1.92,8.61,3.86,6.96,7.2c-0.91,1.85-4.61,2.42-4.8,4.8c-0.16,2.09,1.84,3.96,4.08,4.08c4.35,0.25,8.11-4.44,10.08-7.2
			c2.72-3.8,4.43-7.58,6.48-10.8c-3.62,0.25-5.47,5.52-9.6,5.28c-1.39-2.42,1.68-4.04,3.36-5.28c2.67-1.95,5.3-3.6,8.88-4.56
			c1.56-1.96,2.67-4.37,4.08-6.48c-4.16,2.62-15.32,5.22-16.56-2.16c-1.31-7.83,5.58-14.87,13.68-13.2
			c0.08,3.28-4.15,3.02-3.84,6.96c0.11,1.35,1.27,3.01,2.64,3.36c8.67,2.24,14.46-12.82,22.08-9.84c-0.59,2.84-3.5,3.82-5.04,6
			c-2.46,3.51-3.17,8.15-5.04,12.48c1.59,0.2,4.6,0.63,6.24,0c1.69-0.64,3.77-4.38,5.28-6.24c1.71-2.09,3.57-4.43,5.28-6
			c3.71-3.39,8.83-8,15.12-7.68c8.19,0.43,0.87,10.42-1.44,12.72c-3.56,3.57-7.86,5.79-12.48,7.68c-2.7,4.83-6.21,10.32-8.4,16.08
			c-0.67,1.78-1.74,4.21-0.48,6c3.58-0.39,5.28-3.89,7.68-6.48c2.66-2.85,5.7-5.46,8.4-8.88c4.12-5.21,10.76-9.18,18.96-6.24
			c1.56-1.61,1.39-4.81,3.84-5.04c2.41-0.22,4.89,3.16,5.04,5.28c0.46,6.11-9,13.21-7.68,19.92c6.91-3.88,12.68-12,18.24-19.2
			c1.38-1.78,4.05-6.54,5.76-6.72c1.81-0.18,4.82,2.77,5.04,5.28c0.25,2.79-1.79,5.04-2.4,6.96c-0.04,0.2-0.24,0.24-0.24,0.48
			c3.41-1.98,6.99-7.06,11.76-7.68c8.29-1.06,3.32,7.64,1.68,11.04C127.86,35.536,125.99,38.116,125.85,41.335z"/>
	</g>
</g>
</svg>
