<?xml version="1.0" encoding="utf-8"?>
<!-- Generator: Adobe Illustrator 12.0.0, SVG Export Plug-In . SVG Version: 6.00 Build 51448)  -->
<!DOCTYPE svg PUBLIC "-//W3C//DTD SVG 1.1//EN" "http://www.w3.org/Graphics/SVG/1.1/DTD/svg11.dtd" [
	<!ENTITY ns_svg "http://www.w3.org/2000/svg">
	<!ENTITY ns_xlink "http://www.w3.org/1999/xlink">
]>
<svg  version="1.1" xmlns="&ns_svg;" xmlns:xlink="&ns_xlink;" width="100.502" height="133.647" viewBox="0 0 100.502 133.647"
	 overflow="visible" enable-background="new 0 0 100.502 133.647" xml:space="preserve">
<g id="レイヤー_4" display="none">
</g>
<g id="レイヤー_1" display="none">
	<g display="inline">
		<polygon fill="#FFF7E6" points="28.086,38.773 17.803,30.266 4.831,33.404 9.898,21.583 2.509,10.676 15.924,11.879 24.329,2 
			27.553,14.564 40.137,19.365 28.713,25.927 		"/>
		<g>
			<polygon fill="none" points="28.086,38.773 17.803,30.266 4.831,33.404 9.898,21.583 2.509,10.676 15.924,11.879 24.329,2 
				27.553,14.564 40.137,19.365 28.713,25.927 			"/>
			<path fill="#FFF6E6" d="M28.946,37.544c-1.836-1.519-3.672-3.038-5.509-4.557c-1.465-1.212-3.294-3.453-5.114-4.128
				c-1.524-0.565-4.438,0.814-5.887,1.165c-2.622,0.634-5.244,1.269-7.866,1.903c0.556,0.666,1.111,1.332,1.667,1.998
				c0.971-2.265,1.941-4.529,2.913-6.794c0.611-1.426,2.518-4.151,2.225-5.808c-0.314-1.781-2.505-3.916-3.476-5.348
				c-1.416-2.09-2.832-4.179-4.247-6.269c-0.429,0.822-0.857,1.643-1.286,2.464c4.209,0.377,9.664,1.919,13.817,1.187
				c1.489-0.262,3.07-3.087,3.927-4.094c1.815-2.134,3.631-4.268,5.446-6.401c-0.902-0.2-1.804-0.4-2.706-0.6
				c0.618,2.407,1.235,4.814,1.853,7.221c0.417,1.623,0.563,4.71,1.704,6.053c1.088,1.28,4.104,1.764,5.576,2.326
				c2.544,0.971,5.087,1.941,7.631,2.912c-0.041-0.921-0.083-1.842-0.124-2.762c-2.188,1.257-4.377,2.514-6.565,3.771
				c-1.484,0.853-4.414,1.815-5.443,3.286c-0.968,1.382-0.456,4.62-0.532,6.182c-0.12,2.461-0.24,4.922-0.36,7.383
				c-0.094,1.93,2.893,2.215,2.987,0.283c0.208-4.251,0.415-8.502,0.623-12.752c-0.063,1.286-1.027,1.225,0.939,0.095
				c1.309-0.752,2.618-1.504,3.927-2.256c1.904-1.094,3.808-2.188,5.712-3.281c1.099-0.631,1.158-2.273-0.124-2.762
				c-4.167-1.589-8.334-3.179-12.501-4.769c1.278,0.488,0.915,1.276,0.37-0.848c-0.37-1.439-0.739-2.879-1.108-4.319
				c-0.537-2.094-1.074-4.188-1.612-6.282c-0.338-1.32-1.839-1.619-2.706-0.6c-1.401,1.646-2.802,3.293-4.203,4.939
				c-0.963,1.132-1.926,2.264-2.89,3.396c-1.442,1.695-1.383,0.781-0.031,0.902C11.535,9.979,7.093,9.581,2.65,9.182
				c-1.418-0.127-1.993,1.42-1.286,2.464c2.445,3.609,4.891,7.218,7.336,10.828c-0.866-1.278-0.182-1.477-1.001,0.435
				c-0.581,1.355-1.162,2.709-1.742,4.064c-0.845,1.97-1.689,3.94-2.534,5.911c-0.434,1.013,0.582,2.26,1.667,1.998
				c4.296-1.039,8.591-2.078,12.887-3.117c-1.162,0.281-0.869-0.131,0.436,0.948c1.101,0.911,2.202,1.822,3.303,2.733
				c1.836,1.519,3.672,3.038,5.509,4.557C28.718,41.237,30.428,38.77,28.946,37.544z"/>
		</g>
	</g>
</g>
<g id="レイヤー_3">
	<g>
		<polygon fill="#E3D7BF" points="29.449,38.773 19.166,30.266 6.193,33.404 11.262,21.582 3.872,10.676 17.287,11.879 25.692,2 
			28.916,14.564 41.5,19.365 30.076,25.928 		"/>
		<g>
			<polygon fill="none" points="29.449,38.773 19.166,30.266 6.193,33.404 11.262,21.582 3.872,10.676 17.287,11.879 25.692,2 
				28.916,14.564 41.5,19.365 30.076,25.928 			"/>
			<path fill="#E3D7BF" d="M30.31,37.545c-1.836-1.52-3.672-3.039-5.509-4.558c-1.465-1.213-3.294-3.453-5.114-4.129
				c-1.524-0.565-4.438,0.815-5.887,1.166c-2.623,0.634-5.245,1.269-7.867,1.903c0.556,0.666,1.111,1.332,1.667,1.998
				c0.971-2.265,1.942-4.53,2.913-6.795c0.612-1.426,2.518-4.151,2.226-5.808c-0.314-1.781-2.505-3.916-3.476-5.348
				c-1.416-2.089-2.832-4.179-4.247-6.269c-0.429,0.822-0.857,1.643-1.286,2.464c4.209,0.377,9.664,1.919,13.817,1.187
				c1.489-0.262,3.07-3.087,3.927-4.094c1.815-2.134,3.631-4.268,5.446-6.401c-0.902-0.2-1.804-0.4-2.706-0.6
				c0.618,2.407,1.235,4.814,1.853,7.222c0.417,1.623,0.563,4.709,1.704,6.053c1.088,1.28,4.104,1.764,5.576,2.326
				c2.544,0.971,5.087,1.941,7.631,2.912c-0.041-0.921-0.083-1.842-0.124-2.762c-2.188,1.257-4.377,2.514-6.565,3.771
				c-1.484,0.853-4.414,1.815-5.443,3.286c-0.968,1.382-0.456,4.62-0.532,6.182c-0.12,2.461-0.24,4.922-0.36,7.383
				c-0.094,1.93,2.893,2.215,2.987,0.283c0.208-4.251,0.415-8.502,0.623-12.752c-0.063,1.286-1.027,1.225,0.939,0.095
				c1.309-0.752,2.618-1.504,3.927-2.256c1.904-1.094,3.808-2.188,5.712-3.281c1.099-0.631,1.158-2.273-0.124-2.762
				c-4.167-1.589-8.334-3.179-12.501-4.769c1.278,0.488,0.915,1.276,0.37-0.848c-0.37-1.44-0.739-2.879-1.108-4.319
				c-0.537-2.094-1.074-4.188-1.612-6.282c-0.338-1.32-1.839-1.619-2.706-0.6c-1.401,1.646-2.802,3.293-4.203,4.939
				c-0.963,1.132-1.926,2.264-2.89,3.396c-1.442,1.695-1.383,0.781-0.031,0.902C12.898,9.979,8.456,9.581,4.014,9.182
				c-1.418-0.127-1.993,1.42-1.286,2.464c2.445,3.609,4.891,7.218,7.336,10.827c-0.866-1.278-0.182-1.477-1.001,0.435
				c-0.581,1.354-1.162,2.709-1.743,4.064c-0.845,1.97-1.689,3.94-2.534,5.911c-0.434,1.013,0.582,2.26,1.667,1.998
				c4.296-1.039,8.592-2.079,12.887-3.118c-1.162,0.281-0.869-0.131,0.436,0.948c1.101,0.911,2.202,1.822,3.303,2.733
				c1.836,1.519,3.672,3.038,5.509,4.557C30.082,41.237,31.791,38.77,30.31,37.545z"/>
		</g>
	</g>
	<g>
		<polygon fill="#FFF7E6" points="85.086,97.773 74.803,89.266 61.83,92.404 66.898,80.582 59.509,69.676 72.924,70.879 81.329,61 
			84.553,73.564 97.137,78.365 85.713,84.928 		"/>
		<g>
			<polygon fill="none" points="85.086,97.773 74.803,89.266 61.83,92.404 66.898,80.582 59.509,69.676 72.924,70.879 81.329,61 
				84.553,73.564 97.137,78.365 85.713,84.928 			"/>
			<path fill="#FFF6E6" d="M85.946,96.545c-1.836-1.52-3.673-3.039-5.509-4.558c-1.465-1.212-3.295-3.453-5.114-4.128
				c-1.524-0.566-4.438,0.814-5.887,1.164c-2.622,0.635-5.244,1.27-7.866,1.903c0.556,0.666,1.111,1.331,1.668,1.997
				c0.971-2.264,1.941-4.529,2.912-6.793c0.611-1.427,2.518-4.151,2.225-5.809c-0.313-1.781-2.504-3.916-3.475-5.348
				c-1.416-2.09-2.832-4.18-4.248-6.27c-0.428,0.822-0.856,1.643-1.285,2.465c4.209,0.377,9.664,1.918,13.816,1.186
				c1.489-0.262,3.07-3.086,3.928-4.094c1.815-2.134,3.631-4.268,5.446-6.401c-0.901-0.2-1.804-0.4-2.706-0.6
				c0.618,2.407,1.235,4.814,1.854,7.221c0.416,1.622,0.562,4.71,1.703,6.054c1.088,1.279,4.104,1.764,5.577,2.325
				c2.543,0.971,5.087,1.94,7.631,2.911c-0.041-0.92-0.082-1.842-0.123-2.762c-2.188,1.257-4.378,2.514-6.566,3.771
				c-1.484,0.853-4.413,1.815-5.442,3.285c-0.968,1.383-0.455,4.62-0.532,6.182c-0.12,2.461-0.24,4.923-0.36,7.384
				c-0.094,1.93,2.894,2.215,2.988,0.283c0.207-4.251,0.414-8.502,0.622-12.753c-0.063,1.286-1.027,1.225,0.939,0.095
				c1.31-0.752,2.618-1.504,3.927-2.256c1.904-1.094,3.809-2.188,5.712-3.281c1.1-0.632,1.158-2.273-0.123-2.763
				c-4.167-1.589-8.334-3.179-12.501-4.769c1.278,0.487,0.915,1.276,0.37-0.849c-0.369-1.439-0.739-2.879-1.108-4.318
				c-0.537-2.094-1.074-4.188-1.611-6.282c-0.339-1.32-1.84-1.619-2.706-0.6c-1.401,1.646-2.802,3.293-4.202,4.939
				c-0.964,1.132-1.927,2.264-2.891,3.396c-1.441,1.695-1.383,0.781-0.031,0.902c-4.441-0.398-8.884-0.797-13.326-1.195
				c-1.418-0.127-1.993,1.42-1.285,2.465c2.445,3.609,4.891,7.219,7.336,10.828c-0.866-1.278-0.182-1.478-1.002,0.434
				c-0.58,1.355-1.161,2.71-1.742,4.064c-0.844,1.971-1.689,3.94-2.533,5.91c-0.435,1.014,0.582,2.261,1.667,1.998
				c4.296-1.039,8.591-2.078,12.887-3.117c-1.162,0.281-0.868-0.131,0.437,0.948c1.101,0.911,2.201,1.822,3.303,2.733
				c1.836,1.519,3.673,3.038,5.509,4.557C85.719,100.237,87.428,97.771,85.946,96.545z"/>
		</g>
	</g>
	<g>
		<polygon fill="#E3D7BF" points="86.449,97.773 76.166,89.266 63.193,92.404 68.262,80.582 60.872,69.676 74.287,70.879 82.692,61 
			85.916,73.564 98.5,78.365 87.076,84.928 		"/>
		<g>
			<polygon fill="none" points="86.449,97.773 76.166,89.266 63.193,92.404 68.262,80.582 60.872,69.676 74.287,70.879 82.692,61 
				85.916,73.564 98.5,78.365 87.076,84.928 			"/>
			<path fill="#E3D7BF" d="M87.31,96.545c-1.836-1.52-3.673-3.039-5.509-4.558c-1.466-1.213-3.295-3.453-5.114-4.129
				c-1.524-0.565-4.438,0.815-5.887,1.165c-2.622,0.635-5.245,1.27-7.866,1.904c0.555,0.666,1.111,1.331,1.667,1.997
				c0.971-2.265,1.942-4.53,2.913-6.795c0.611-1.427,2.518-4.151,2.225-5.808c-0.313-1.781-2.504-3.916-3.475-5.349
				c-1.416-2.089-2.832-4.179-4.248-6.269c-0.428,0.822-0.856,1.643-1.285,2.465c4.209,0.377,9.664,1.918,13.816,1.186
				c1.489-0.262,3.07-3.086,3.928-4.094c1.815-2.134,3.631-4.268,5.446-6.401c-0.901-0.2-1.804-0.4-2.706-0.6
				c0.618,2.407,1.235,4.814,1.854,7.222c0.416,1.622,0.562,4.709,1.703,6.053c1.088,1.279,4.104,1.764,5.577,2.326
				c2.543,0.971,5.087,1.94,7.631,2.911c-0.041-0.921-0.082-1.842-0.123-2.763c-2.188,1.258-4.378,2.515-6.566,3.771
				c-1.484,0.854-4.413,1.816-5.442,3.286c-0.968,1.382-0.455,4.62-0.532,6.182c-0.12,2.461-0.24,4.922-0.36,7.383
				c-0.094,1.93,2.894,2.215,2.988,0.283c0.207-4.251,0.414-8.502,0.622-12.753c-0.063,1.287-1.027,1.225,0.939,0.096
				c1.31-0.752,2.618-1.504,3.927-2.256c1.904-1.094,3.809-2.188,5.712-3.281c1.1-0.632,1.158-2.273-0.123-2.763
				c-4.167-1.589-8.334-3.179-12.501-4.769c1.278,0.487,0.915,1.275,0.37-0.849c-0.369-1.44-0.739-2.88-1.108-4.319
				c-0.537-2.094-1.074-4.188-1.611-6.282c-0.339-1.32-1.84-1.619-2.706-0.6c-1.401,1.646-2.802,3.293-4.202,4.939
				c-0.964,1.132-1.927,2.264-2.891,3.396c-1.441,1.695-1.383,0.781-0.031,0.902c-4.441-0.398-8.884-0.797-13.326-1.195
				c-1.418-0.127-1.993,1.42-1.285,2.465c2.445,3.609,4.891,7.218,7.336,10.827c-0.866-1.278-0.182-1.477-1.002,0.435
				c-0.58,1.355-1.161,2.709-1.742,4.064c-0.845,1.971-1.689,3.94-2.534,5.911c-0.435,1.013,0.582,2.261,1.667,1.997
				c4.297-1.039,8.592-2.078,12.888-3.117c-1.162,0.281-0.868-0.131,0.437,0.947c1.101,0.912,2.201,1.822,3.303,2.733
				c1.836,1.52,3.673,3.039,5.509,4.558C87.082,100.237,88.791,97.771,87.31,96.545z"/>
		</g>
	</g>
</g>
<g id="レイヤー_5" display="none">
</g>
<g id="レイヤー_2" display="none">
	<line display="inline" fill="none" stroke="#000000" x1="0.5" y1="0" x2="0.5" y2="100"/>
	<line display="inline" fill="none" stroke="#000000" x1="100.5" y1="100.147" x2="0.5" y2="99.853"/>
</g>
</svg>
