<?xml version="1.0" encoding="utf-8"?>
<!-- Generator: Adobe Illustrator 12.0.0, SVG Export Plug-In . SVG Version: 6.00 Build 51448)  -->
<!DOCTYPE svg PUBLIC "-//W3C//DTD SVG 1.1//EN" "http://www.w3.org/Graphics/SVG/1.1/DTD/svg11.dtd" [
	<!ENTITY ns_svg "http://www.w3.org/2000/svg">
	<!ENTITY ns_xlink "http://www.w3.org/1999/xlink">
]>
<svg  version="1.1" id="レイヤー_1" xmlns="&ns_svg;" xmlns:xlink="&ns_xlink;" width="612.901" height="229.749"
	 viewBox="0 0 612.901 229.749" overflow="visible" enable-background="new 0 0 612.901 229.749" xml:space="preserve">
<g id="レイヤー_5のコピー">
	<g id="XMLID_16_">
		<g>
			<path fill="#221815" d="M612.738,214.941c0,4.936,0,9.872,0,14.808c-45.154,0-90.312,0-135.466,0
				C521.31,223.993,566.798,220.438,612.738,214.941z"/>
			<path fill="#221815" d="M612.738,182.632c0,6.731,0,13.463,0,20.193c-82.381,8.421-170.987,17.74-256.131,26.924
				c-63.695,0-127.391,0-191.088,0c75.695-8.924,149.809-15.62,226.077-24.23C462.489,197.513,539.119,190.406,612.738,182.632z"/>
			<path fill="#221815" d="M612.738,149.875c0,6.73,0,13.464,0,20.193c-188.788,20.271-380.304,39.865-564.741,59.681
				c-16,0-31.998,0-47.996,0c0-5.234,0-10.47,0-15.706C205.061,193.182,411.658,170.911,612.738,149.875z"/>
			<path fill="#221815" d="M612.738,118.465c0,6.132,0,12.266,0,18.396C403.59,159.139,201.037,180.125,0.001,201.479
				c0-6.283,0-12.563,0-18.847C209.068,161.163,404.814,140.013,612.738,118.465z"/>
			<path fill="#221815" d="M612.738,81.221c0,7.028,0,14.059,0,21.09c-206.163,21.328-407.938,43.08-612.737,64.169
				c0-6.882,0-13.762,0-20.642C205.188,123.889,408.777,102.804,612.738,81.221z"/>
			<path fill="#221815" d="M612.738,38.141c0,8.976,0,17.949,0,26.924C410.982,86.257,202.482,107.89,0.001,129.682
				c0-8.973,0-17.947,0-26.923c12.942-1.69,26.048-2.574,39.025-4.037c39.204-4.42,77.667-8.712,116.178-12.566
				C306.369,71.034,459.389,54.07,612.738,38.141z"/>
			<path fill="#221815" d="M612.738,0c0,7.03,0,14.059,0,21.09C407.115,42.26,206.771,63.884,0.001,85.258
				c0-9.424,0-18.847,0-28.271C179.704,38.175,362.374,19.131,540.966,0C564.89,0,588.814,0,612.738,0z"/>
			<path fill="#221815" d="M244.019,0c48.445,0,96.89,0,145.334,0c-16.17,2.945-32.653,3.68-48.894,5.384
				C228.405,17.141,113.786,29.871,0,41.283c0-5.237,0-10.472,0-15.706C81.606,17.505,163.222,8.734,244.019,0z"/>
			<path fill="#221815" d="M0.001,0c40.818,0,81.637,0,122.456,0C82.215,5.427,40.563,8.634,0.001,13.46
				C0.001,8.974,0.001,4.486,0.001,0z"/>
		</g>
	</g>
</g>
<g id="レイヤー_6">
	<g id="XMLID_4_">
		<g>
			<path fill="#FFF100" d="M0.001,12.116C38.018,7.936,76.153,4.396,113.038,0c45.005,0,90.011,0,135.019,0
				c-19.95,3.432-40.54,4.465-61.005,6.73C125.765,13.512,63.22,20.115,0.001,26.474C0.001,21.689,0.001,16.901,0.001,12.116z"/>
			<path fill="#FFF100" d="M612.738,220.326c0,3.141,0,6.283,0,9.423c-30.202,0-60.407,0-90.609,0
				C551.705,226.639,582.589,223.073,612.738,220.326z"/>
			<path fill="#FFF100" d="M612.738,199.686c0,6.879,0,13.76,0,20.64c-30.148,2.747-61.033,6.313-90.609,9.424
				c-63.995,0-127.99,0-191.985,0C423.984,219.111,516.225,210.142,612.738,199.686z"/>
			<path fill="#FFF100" d="M612.738,166.928c0,5.982,0,11.965,0,17.948c-141.481,14.828-281.906,29.474-425.687,44.873
				c-56.668,0-113.336,0-170.006,0C213.566,208.453,415.915,187.517,612.738,166.928z"/>
			<path fill="#FFF100" d="M612.738,136.414c0,5.533,0,11.068,0,16.602C405.78,174.54,204.184,196.279,0.001,217.186
				c0-5.535,0-11.07,0-16.603C206.132,179.137,409.071,157.229,612.738,136.414z"/>
			<path fill="#FFF100" d="M612.738,98.271c0,7.479,0,14.959,0,22.437C408.7,142.542,205.746,163.604,0.001,185.325
				c0-7.478,0-14.958,0-22.437c126.775-14.163,254.581-25.586,383.968-40.387C459.918,113.815,536.352,107.18,612.738,98.271z"/>
			<path fill="#FFF100" d="M612.738,65.514c0,5.982,0,11.967,0,17.949c-204.684,21.319-407.616,43.24-612.737,64.167
				c0-5.833,0-11.666,0-17.5C204.199,108.401,406.594,87.443,612.738,65.514z"/>
			<path fill="#FFF100" d="M612.738,19.294c0,6.432,0,12.864,0,19.296C511.224,49.639,408.012,59.333,307.266,70.898
				c-25.657,2.945-51.349,4.688-77.153,7.629c-75.027,8.551-152.705,16.32-230.112,24.231c0-6.281,0-12.563,0-18.847
				C205.18,62,410.711,40.678,612.738,19.294z"/>
			<path fill="#FFF100" d="M384.867,0c52.931,0,105.861,0,158.793,0c-11.24,2.111-22.705,3.038-34.091,4.037
				c-33.091,2.907-67.676,7.45-101.825,10.77C274.236,27.786,139.35,44.123,0.001,57.437c0-5.535,0-11.068,0-16.604
				C129.14,26.958,257.426,14.171,384.867,0z"/>
		</g>
	</g>
</g>
<g id="レイヤー_8">
	<g id="XMLID_6_" opacity="0.3">
		<g>
			
				<linearGradient id="XMLID_43_" gradientUnits="userSpaceOnUse" x1="-0.0742" y1="-98.7236" x2="612.6626" y2="-98.7236" gradientTransform="matrix(1 0 0 1 0.0752 220.5898)">
				<stop  offset="0" style="stop-color:#FFFFFF"/>
				<stop  offset="0.0113" style="stop-color:#FFFFFD"/>
				<stop  offset="0.115" style="stop-color:#FFFFEE"/>
				<stop  offset="0.2006" style="stop-color:#FFFFE9"/>
				<stop  offset="0.2454" style="stop-color:#D9C1C8"/>
				<stop  offset="0.3023" style="stop-color:#AC78A1"/>
				<stop  offset="0.3496" style="stop-color:#8B4284"/>
				<stop  offset="0.3849" style="stop-color:#772173"/>
				<stop  offset="0.4042" style="stop-color:#6F156C"/>
				<stop  offset="0.4424" style="stop-color:#8F2C85"/>
				<stop  offset="0.5435" style="stop-color:#DF65C5"/>
				<stop  offset="0.5898" style="stop-color:#FF7CDE"/>
				<stop  offset="0.6241" style="stop-color:#FF8ADF"/>
				<stop  offset="0.6884" style="stop-color:#FFAEE2"/>
				<stop  offset="0.7752" style="stop-color:#FFE7E7"/>
				<stop  offset="0.8084" style="stop-color:#FFFFE9"/>
				<stop  offset="1" style="stop-color:#FFFFFF"/>
			</linearGradient>
			<path fill="url(#XMLID_43_)" d="M612.738,50.966c0,37.843,0,75.686,0,113.528c-81.275,38.382-193.174,50.708-312.2,50.708
				c-58.316,0-115.075-6.05-165.968-15.707c-51.271-9.728-98.204-23.55-134.568-46.668c0-30.063,0-60.129,0-90.194
				C22.976,47.625,50.746,37.415,79.844,28.53c14.055,0,28.11,0,42.166,0c51.95,43.309,118.277,80.647,205.891,87.501
				c47.803,3.74,89.222-6.732,122.456-21.987c33.885-15.551,60.887-37.319,81.189-65.514c7.179,0,14.354,0,21.531,0
				C573.974,34.999,594.237,42.1,612.738,50.966z"/>
		</g>
	</g>
</g>
<g id="レイヤー_9">
	<g id="XMLID_7_" opacity="0.3">
		<g>
			
				<linearGradient id="XMLID_44_" gradientUnits="userSpaceOnUse" x1="277.9497" y1="-241.9219" x2="290.9175" y2="-98.4109" gradientTransform="matrix(1 0 0 1 0.0752 220.5898)">
				<stop  offset="0" style="stop-color:#FF0000"/>
				<stop  offset="0.029" style="stop-color:#FE3600"/>
				<stop  offset="0.0615" style="stop-color:#FC6B00"/>
				<stop  offset="0.0933" style="stop-color:#FB9700"/>
				<stop  offset="0.1238" style="stop-color:#FAB900"/>
				<stop  offset="0.1525" style="stop-color:#FAD200"/>
				<stop  offset="0.1789" style="stop-color:#F9E100"/>
				<stop  offset="0.2006" style="stop-color:#F9E600"/>
				<stop  offset="0.2304" style="stop-color:#E0C113"/>
				<stop  offset="0.2927" style="stop-color:#B07839"/>
				<stop  offset="0.3444" style="stop-color:#8D4255"/>
				<stop  offset="0.3831" style="stop-color:#772166"/>
				<stop  offset="0.4042" style="stop-color:#6F156C"/>
				<stop  offset="0.4405" style="stop-color:#8D2B55"/>
				<stop  offset="0.5429" style="stop-color:#DD6518"/>
				<stop  offset="0.5898" style="stop-color:#FD7C00"/>
				<stop  offset="0.6099" style="stop-color:#EF7706"/>
				<stop  offset="0.6475" style="stop-color:#CB6C17"/>
				<stop  offset="0.6987" style="stop-color:#915831"/>
				<stop  offset="0.7608" style="stop-color:#423E56"/>
				<stop  offset="0.8084" style="stop-color:#002874"/>
				<stop  offset="0.9325" style="stop-color:#2A19B0"/>
				<stop  offset="1" style="stop-color:#4210D2"/>
			</linearGradient>
			<path fill="url(#XMLID_44_)" d="M0.952,88.035c0-28.869,0-57.738,0-86.606c188.695,0,377.392,0,566.086,0
				c0,0.449,0,0.899,0,1.347c-6.66,1.677-40.457,11.284-40.818,13.91c-3.717-0.221-46.373,19.578-52.033,20.193
				C317.463,53.964,158.614,71.189,0.952,88.035z"/>
		</g>
	</g>
</g>
<g id="レイヤー_10のコピー_2">
	<g id="XMLID_3_" opacity="0.56">
		<g>
			
				<linearGradient id="XMLID_45_" gradientUnits="userSpaceOnUse" x1="65.2046" y1="-34.1045" x2="752.7848" y2="-179.404" gradientTransform="matrix(1 0 0 1 0.0752 220.5898)">
				<stop  offset="0" style="stop-color:#FFFFFF"/>
				<stop  offset="0.0113" style="stop-color:#FFFFFD"/>
				<stop  offset="0.115" style="stop-color:#FFFFEE"/>
				<stop  offset="0.2006" style="stop-color:#FFFFE9"/>
				<stop  offset="0.2454" style="stop-color:#D9C1C8"/>
				<stop  offset="0.3023" style="stop-color:#AC78A1"/>
				<stop  offset="0.3496" style="stop-color:#8B4284"/>
				<stop  offset="0.3849" style="stop-color:#772173"/>
				<stop  offset="0.4042" style="stop-color:#6F156C"/>
				<stop  offset="0.4946" style="stop-color:#B98EB2"/>
				<stop  offset="0.5601" style="stop-color:#EBDFE2"/>
				<stop  offset="0.5898" style="stop-color:#FFFFF4"/>
				<stop  offset="0.8084" style="stop-color:#FFFFE9"/>
				<stop  offset="1" style="stop-color:#FFFFFF"/>
			</linearGradient>
			<path fill="url(#XMLID_45_)" d="M557.564,153.015c0.134,1.585,1.214-1.582,1.346,0c-2.863,16.842,0.194,32.191-4.484,47.567
				c0.091,10.527-1.754,18.094-3.591,29.167c-183.61,0-367.223,0-550.834,0c0-28.569,0-57.14,0-85.708
				c18.933-13.513,39.7-27.695,60.106-41.731c5.234-3.601,10.783-6.657,16.149-10.322c2.606-1.779,5.708-3.27,8.522-4.934
				c0.266-0.158,0.271-1.264,0.45-1.346c0.752-0.348,0.987,0.864,0.897,0.897c1.584-0.564,3.574-2.987,5.382-4.038
				c8.029-4.67,15.845-9.758,23.775-13.913c5.034-2.637,10.151-6.103,16.147-9.423c2.784-1.542,5.34-3.51,8.074-4.935
				c1.355-0.707,3.139-0.668,4.485-1.346c1.442-0.729,2.613-1.974,4.038-2.694c10.664-5.39,21.039-10.441,33.194-16.603
				c0.16-0.08,1.057-0.996,0.897-0.897c1.811-1.122,4.141-1.958,5.831-2.693c23.45-10.18,44.761-20.818,66.837-27.821
				c0.575-1.723,2.687-0.912,2.69-2.243c79.397,0,158.792,0,238.188,0c-0.289,2.95,3.415,4.835,5.832,4.487
				c0.222,3.583,2.85,4.923,4.934,4.487c0.826,3.168,5.453,4.135,6.278,8.526c1.935-0.05,2.091,1.675,3.141,1.347
				c1.785,3.739,4.957,6.438,8.522,9.423c-0.467,1.271-0.467,1.869,0,3.141c4.77,1.411,5.371,9.167,9.868,11.22
				c0.792,4.167,2.613,9.481,6.281,12.114c0.151,1.392-1.04,2.144,0,3.142c0.132,1.583,1.212-1.584,1.347,0
				c0.086,5.73,2.692,6.493,3.139,12.564c2.662,1.26,3.218,6.503,3.141,10.771c3.047,5.972,5.807,13.281,5.83,21.538
				c2.454,0.7,0.725,5.229,0.896,7.18c0.04,0.439,0.725,1.781,0.897,2.692c0.209,1.088-0.633,2.857-0.447,3.59
				c0.166,0.655,1.232,0.53,1.345,1.347c0.11,0.8-0.511,1.828-0.447,2.69c0.085,1.202,1.292,2.565,1.345,3.59
				c0.072,1.403-0.943,3.043-0.897,4.487c0.054,1.703,1.146,3.517,1.347,5.387C558.701,140.1,558.01,147.314,557.564,153.015z"/>
		</g>
	</g>
</g>
<g id="レイヤー_11">
	<g id="XMLID_10_" opacity="0.7">
		<g>
			<path d="M93.301,153.015c2.647-10.67-10.087-14.31-8.073-22.884c6.406,4.996,13.847,19.884,6.728,28.718
				c-12.077-3.623-17.892-13.513-23.774-23.335c-3.341,1.747-6.102,4.104-9.869,4.041c-7.361-0.131-9.271-9.835-11.213-14.809
				c1.997,0.543,4.282,0.803,6.278,1.345c2.688-3.743,5.813-7.05,10.319-8.974c0.342-2.437-0.711-3.478-0.449-5.833
				c6.492,3.468,15.615,5.63,12.112,15.257c-0.304,0.834-3.175,4.084-3.141,4.487c0.251,2.963,7.856,5.427,10.766,7.629
				C87.29,141.917,91.224,147.472,93.301,153.015z"/>
		</g>
	</g>
</g>
<g id="レイヤー_3のコピー">
	<g id="XMLID_1_" opacity="0.25">
		<g>
			
				<linearGradient id="XMLID_46_" gradientUnits="userSpaceOnUse" x1="316.4956" y1="16.9463" x2="296.4313" y2="-53.7799" gradientTransform="matrix(1 0 0 1 0.0752 220.5898)">
				<stop  offset="0" style="stop-color:#FF0000"/>
				<stop  offset="0.029" style="stop-color:#FE3600"/>
				<stop  offset="0.0615" style="stop-color:#FC6B00"/>
				<stop  offset="0.0933" style="stop-color:#FB9700"/>
				<stop  offset="0.1238" style="stop-color:#FAB900"/>
				<stop  offset="0.1525" style="stop-color:#FAD200"/>
				<stop  offset="0.1789" style="stop-color:#F9E100"/>
				<stop  offset="0.2006" style="stop-color:#F9E600"/>
				<stop  offset="0.2304" style="stop-color:#E0C113"/>
				<stop  offset="0.2927" style="stop-color:#B07839"/>
				<stop  offset="0.3444" style="stop-color:#8D4255"/>
				<stop  offset="0.3831" style="stop-color:#772166"/>
				<stop  offset="0.4042" style="stop-color:#6F156C"/>
				<stop  offset="0.4405" style="stop-color:#8D2B55"/>
				<stop  offset="0.5429" style="stop-color:#DD6518"/>
				<stop  offset="0.5898" style="stop-color:#FD7C00"/>
				<stop  offset="0.6099" style="stop-color:#EF7706"/>
				<stop  offset="0.6475" style="stop-color:#CB6C17"/>
				<stop  offset="0.6987" style="stop-color:#915831"/>
				<stop  offset="0.7608" style="stop-color:#423E56"/>
				<stop  offset="0.8084" style="stop-color:#002874"/>
				<stop  offset="0.9325" style="stop-color:#2A19B0"/>
				<stop  offset="1" style="stop-color:#4210D2"/>
			</linearGradient>
			<path fill="url(#XMLID_46_)" d="M612.901,174.555c0,18.397,0,36.797,0,55.194c-204.245,0-408.492,0-612.738,0
				c0-13.026,0-26.053,0-39.079c24.205-0.409,412.667-38.789,415.818-38.552c3.235,0.244,11.847,1.887,17.941,2.692
				c5.453,0.721,11.268,0.29,16.598,0.897c11.403,1.302,18.355,3.17,31.399,4.04c2.818,0.186,6.098,1.406,9.422,1.793
				c4.328,0.506,9.608-0.563,12.559,1.796c3.707-2.267,7.18,1.512,10.315,0c2.666,2.184,5.288-0.499,7.179,2.244
				c0.576-1.438,2.012-0.932,3.139-0.899c5.007,0.146,11.243,1.199,17.495,2.692c0.271-0.773,2.127,0.035,2.241-0.896
				c3.799,2.497,5.304,0.043,7.625,2.243c9.073-0.773,14.257,2.3,21.98,1.347c1.183,0.93,0.949,1.182,2.244,1.347
				c3.955-0.636,12.644,1.394,17.941,1.347C598.097,174.097,606.213,174.555,612.901,174.555z"/>
		</g>
	</g>
</g>
<g id="レイヤー_4">
	<g id="XMLID_5_" opacity="0.76">
		<g>
			<path d="M450.807,58.334c6.537,16.936,17.469,37.147,12.558,54.297c-0.579,2.021-2.014,4.833-3.14,7.627
				c-1.505,3.737-2.767,8.019-4.935,10.771c-0.981,1.249-2.944,1.88-4.038,3.142c-3.347,3.865-5.071,8.825-8.521,12.564
				c-9.592,10.398-23.208,19.233-40.818,21.09c2.208,3.772,3.691,8.274,5.382,12.564c0.915,0.266,2.472-0.844,1.346,0
				c2.14,2.12,2.896,5.803,2.69,8.526c-0.107,1.428-1.435,0.33-1.793,1.347c-0.244,0.688,0.948,2.405,0.896,2.69
				c-0.106,0.582-3.348,1.951-1.345,4.04c-29.912-21.531-73.128-29.753-120.665-33.654c0.586-2.706,1.269-5.314,3.59-6.283
				c4.431-10.673,8.838-21.373,11.663-33.653c-2.14-5.449-3.181-12.986-3.59-19.744c-0.212-3.529,0.652-7.636,0-10.77
				c-0.51-2.453-2.758-4.923-4.038-7.18c-4.658-8.227-8.651-19.77-7.625-34.104c0.856-11.941,5.051-22.826,9.869-28.271
				c3.743-4.229,12.76-11.554,22.428-8.077c7.602,2.734,15.004,8.907,21.532,13.91c11.062-5.537,22.786-10.411,38.577-11.217
				c1.742-5.704,8.926-13.906,17.045-14.81c14.744-1.641,20.722,16.629,27.361,26.924C435.347,37.903,442.258,48.936,450.807,58.334
				z M446.769,118.914c0.943-6.597-2.81-19.759-7.624-14.81c-8.881,9.128-19.835,21.17-28.26,30.964
				C427.611,137.854,444.788,132.796,446.769,118.914z M441.387,69.553c3.11-0.927,5.273-2.801,7.625-4.489
				c-7.169-9.131-11.124-21.479-23.774-25.128c-4.436,7.236-1.994,13.087-1.347,21.987c2.793,3.642,6.271,8.982,12.112,8.077
				c-4.785-2.001-14.704-17.831-8.074-23.333C434.22,41.445,446.91,62.663,441.387,69.553z M437.797,86.155
				c0.361-1.556-0.668-1.725-0.447-3.141c-2.533-0.908-4.973-1.906-8.074-2.243c-0.479,3.301,0.95,4.418,0.896,8.974
				C433.019,88.852,435.202,87.298,437.797,86.155z M414.921,24.23c-3.058-3.67-5.065-8.395-8.074-12.114
				c-6.078-1.052-6.791,3.729-9.419,7.178c1.444-0.097,1.897,0.795,3.589,0.45c1.211-2.527,2.306-5.172,5.381-5.833
				C409.365,16.927,410.461,24.204,414.921,24.23z M395.184,98.271c3.978-10.602-8.342-23.195-17.046-23.334
				c3.513,3.953,10.192,12.501,9.422,22.437c-0.517,6.633-5.427,9.073-10.318,4.936c-5.814-4.918-11.378-20.744-6.278-27.823
				c-13.491-1.442-26.088,3.102-34.541,10.323c2.276,13.809,20.055,24.202,37.231,24.68
				C382.718,109.741,392.376,105.755,395.184,98.271z M387.109,124.298c-0.068-0.527,0.078-1.273-0.446-1.347
				c-9.103,7.951-17.598,18.889-20.187,31.86c3.741-5.232,5.491-11.448,8.972-16.603
				C378.945,133.029,383.291,128.994,387.109,124.298z M373.654,126.092c2.792-2.143,8.762-5.475,7.177-7.178
				c-11,6.795-20.563,15.027-26.018,27.371c3.098-1.47,4.003-4.723,5.831-7.18C364.085,134.484,369.14,129.557,373.654,126.092z
				 M366.029,119.811c2.887-1.137,6.827-1.694,8.072-4.487c-13.623,3.573-24.979,9.413-32.295,19.294
				C348.97,129.236,356.946,123.386,366.029,119.811z M336.422,36.347c2.44,2.596,6.867,9.536,10.767,6.283
				c-3.822-2.369-8.054-7.533-13.457-11.22c-4.19-2.857-9.149-4.262-12.112-6.283c-1.468-0.999-1.925-3.05-3.588-3.141
				c-1.803-0.097-3.138,2.349-4.485,2.693c1.019,6.669-6.447,17.617-0.898,21.987c1.144-3.906,0.24-17.213,5.384-21.09
				C325.468,27.861,330.005,33.042,336.422,36.347z"/>
			<path fill="#FFFFFF" d="M439.144,104.104c4.814-4.95,8.567,8.213,7.624,14.81c-1.98,13.882-19.157,18.94-35.884,16.153
				C419.309,125.274,430.263,113.232,439.144,104.104z"/>
			<path fill="#FFFFFF" d="M449.013,65.064c-2.353,1.688-4.516,3.562-7.626,4.489c5.522-6.89-7.166-28.108-13.459-22.886
				C421.3,52.17,431.219,68,436.003,70.001c-5.841,0.906-9.319-4.435-12.112-8.077c-0.647-8.901-3.089-14.751,1.347-21.987
				C437.888,43.585,441.843,55.933,449.013,65.064z"/>
			<path fill="#FFFFFF" d="M437.35,83.014c-0.221,1.416,0.809,1.584,0.447,3.141c-2.596,1.143-4.778,2.698-7.625,3.59
				c0.054-4.556-1.377-5.673-0.896-8.973C432.377,81.108,434.817,82.106,437.35,83.014z"/>
			<path fill="#FFFFFF" d="M406.847,12.116c3.009,3.719,5.017,8.444,8.074,12.114c-4.461-0.026-5.557-7.303-8.523-10.321
				c-3.075,0.662-4.169,3.307-5.382,5.833c-1.689,0.346-2.144-0.547-3.588-0.45C400.056,15.845,400.77,11.064,406.847,12.116z"/>
			<path fill="#FFFFFF" d="M378.138,74.937c8.704,0.139,21.023,12.732,17.046,23.334c-2.807,7.484-12.466,11.47-21.53,11.219
				c-17.177-0.478-34.956-10.872-37.231-24.68c8.453-7.221,21.05-11.765,34.541-10.323c-5.1,7.079,0.464,22.904,6.278,27.823
				c4.892,4.137,9.802,1.697,10.318-4.936C388.331,87.438,381.651,78.89,378.138,74.937z"/>
			<path fill="#FFFFFF" d="M386.663,122.951c0.524,0.073,0.378,0.819,0.447,1.347c-3.819,4.696-8.165,8.731-11.663,13.91
				c-3.479,5.154-5.229,11.371-8.972,16.603C369.065,141.84,377.561,130.902,386.663,122.951z"/>
			<path fill="#FFFFFF" d="M380.831,118.914c1.585,1.703-4.384,5.035-7.177,7.178c-4.513,3.464-9.568,8.393-13.009,13.014
				c-1.829,2.457-2.734,5.71-5.831,7.18C360.268,133.941,369.831,125.709,380.831,118.914z"/>
			<path fill="#FFFFFF" d="M374.101,115.324c-1.245,2.792-5.186,3.35-8.072,4.486c-9.083,3.574-17.058,9.426-24.223,14.808
				C349.122,124.736,360.478,118.896,374.101,115.324z"/>
			<path fill="#FFFFFF" d="M347.188,42.63c-3.899,3.253-8.325-3.687-10.766-6.283c-6.417-3.305-10.954-8.485-18.391-10.77
				c-5.145,3.877-4.241,17.185-5.384,21.091c-5.549-4.371,1.917-15.318,0.898-21.987c1.347-0.344,2.683-2.791,4.485-2.693
				c1.662,0.091,2.12,2.142,3.587,3.141c2.964,2.02,7.922,3.426,12.112,6.283C339.134,35.098,343.367,40.261,347.188,42.63z"/>
		</g>
	</g>
</g>
<g id="レイヤー_1_1_">
	<g id="XMLID_8_">
		<g>
			<path fill="#FFFFFF" d="M574.914,165.558c3.727,1.848,5.683,7.022,4.972,13.616c-0.462,4.293-2.877,10.058-4.755,14.266
				c-5.423,12.155-15.358,24.658-30.042,26.368c-11.309,1.316-18.064-2.892-21.182-13.185c-2.345,0.549-3.843,3.599-6.268,5.619
				c-3.533,2.946-16.242,8.615-16.642-1.297c-0.118-2.885,1.149-7.077,2.594-10.59c1.26-3.065,3.909-8.003,2.593-10.158
				c-1.005-1.645-4.353-1.489-6.699-0.648c-4.539,13.573-11.873,28.177-27.666,29.394c-9.583,0.739-18.756-4.489-20.315-12.319
				c-1.198-6.012,2.552-15.297,11.238-13.616c4.001,0.773,6.041,5.822,3.026,9.294c-0.914,1.05-3.42,1.285-4.322,3.026
				c-1.976,3.801,0.16,7.504,5.187,6.699c3.586-0.572,7.215-4.703,9.511-7.349c7.568-8.725,13.702-20.813,19.884-30.042
				c-3.816,1.711-8.6,6.202-14.697,5.836c-6.358-0.383-10.636-6.188-7.78-12.536c1.937-4.303,10.837-10.96,15.994-9.293
				c0.173,4.688-4.624,4.028-4.755,7.996c-0.11,3.303,3.571,5.158,7.349,4.323c3.642-0.804,6.91-3.938,9.941-6.7
				c3.046-2.773,5.841-7.314,9.943-5.836c0.827,2.653-1.412,4.646-2.594,6.484c-3.664,5.69-6.11,12.337-8.646,19.451
				c2.582-2.01,5.103-4.895,7.78-7.781c2.44-2.63,4.952-5.169,7.781-7.78c5.569-5.139,11.386-11.055,18.803-12.103
				c4.866-0.688,9.277,0.718,7.997,6.7c2.704-0.768,5.333-3.269,8.646-4.755c3.164-1.42,7.194-2.935,10.375-3.242
				c1.899-0.184,3.763,0.108,4.105,1.081c0.586,1.664-2.496,3.633-3.674,4.322c-10.63,6.225-21.537,18.064-22.693,33.068
				c-0.698,9.07,2.019,17.906,12.318,16.426c6.575-0.944,11.224-8.085,14.481-13.4c3.711-6.054,6.604-13.657,6.268-21.396
				c-0.198-4.632-3.527-7.774-8.213-4.972c-4.431,2.653-8.602,9.468-9.078,16.426c-0.186,2.725-0.501,6.318,0.217,8.862
				c0.262,0.927,1.197,1.277,1.297,2.161c0.209,1.884-1.61,3.452-2.81,3.458c-3.428,0.016-4.215-6.964-3.891-11.238
				c0.644-8.497,5.706-17.551,10.158-21.397C563.654,166.204,570.168,163.204,574.914,165.558z M535.363,170.745
				c-2.819,0.499-4.302-0.955-5.62-1.297c-1.234-0.319-2.719-0.322-4.538,0c-7.024,1.24-10.796,7.582-15.131,12.752
				c5.718-1.889,11.517-1.219,11.673,4.106c0.122,4.24-4.76,12.12-2.81,15.345c1.31,0.86,3.57,0.325,4.322-0.647
				C523.085,186.711,529.278,178.781,535.363,170.745z"/>
			<path fill="#FFFFFF" d="M461.661,163.829c0.679,6.285-6.082,8.841-11.888,8.429c-2.477-0.178-6.693-1.935-5.836-5.188
				c1.114-4.224,7.09,0.906,9.511,0.648c4.379-0.464,4.144-6.315,0.216-7.565c-4.295-1.365-10.608,0.283-12.535,1.729
				c-3.1,2.323-6.831,10.464-1.081,12.32c1.063,0.344,4.671-0.331,6.916,0c1.788,0.264,5.058,1.659,5.404,3.674
				c0.97,5.65-8.082,6.102-12.537,4.754c-1.419-0.427-3.207-1.556-4.105-1.512c-1.275,0.063-3.394,2.019-4.323,2.81
				c-4.706,3.996-10.494,9.72-9.51,18.587c0.552,4.962,5.075,9.392,11.239,8.862c4.273-0.367,9.307-3.264,11.239-6.917
				c1.978-3.74,2.812-11.297-2.161-12.103c-4.997-0.812-6.219,3.549-7.781,6.916c-0.352,0.759-0.96,2.954-2.594,2.81
				c-2.574-0.228-1.17-4.673-0.433-6.484c1.345-3.298,3.906-6.501,7.565-7.348c5.6-1.297,11.306,2.33,11.888,8.213
				c0.583,5.9-3.112,11.612-6.484,15.346c-3.953,4.377-8.71,6.729-14.696,7.132c-10.908,0.73-19.398-4.748-22.479-12.968
				c-4.871,3.616-10.681,11.882-18.371,12.752c-5.838,0.662-8.222-4.78-6.916-10.59c0.479-2.127,2.066-4.573,3.242-6.917
				c2.198-4.378,4.466-8.728,6.7-13.399c1.011-2.113,2.821-5.021,1.081-7.133c-3.067-0.435-5.205,2.282-6.917,4.106
				c-5.284,5.635-10.664,12.186-13.616,20.101c2.311,1.573,4.942-2.338,6.7-0.865c3.255,2.729-6.088,5.733-8.213,4.539
				c-3.016,3.798-4.902,8.934-11.887,9.727c-1.66,0.188-4.574,0.143-5.188-1.081c-0.978-1.945,1.422-5.738,2.161-7.348
				c1.234-2.696,1.928-4.51,3.242-6.484c-1.502-2.172-3.454-3.895-4.539-6.484c-1.772,0.534-1.686,2.925-2.811,4.106
				c-5.232,8.923-13.938,18.787-27.232,20.316c-11.379,1.31-18.364-4.136-20.964-12.968c-4.593,3.158-8.184,8.738-14.05,9.726
				c-12.626,2.126-6.628-14.388-4.754-20.748c0.631-2.144,1.749-4.284,1.296-6.268c-0.384-1.69-2.835-2.034-2.809-4.107
				c0.041-3.28,8.345-3.254,11.022-5.403c4.984-4.001,3.439-15.244-2.377-17.506c-8.542,8.277-10.335,24.207-15.994,35.877
				c-5.448,11.24-16.402,21.647-30.042,19.669c-6.292-0.912-11.879-4.731-13.833-10.807c-3.633,2.3-9.177,9.56-15.129,11.022
				c-8.492,2.086-9.663-6.412-7.349-13.184c-5.208,3.33-10.599,10.947-17.074,13.399c-4.063,1.539-9.222-0.214-9.726-4.755
				c-0.43-3.883,1.919-6.676,3.243-9.51c1.431-3.066,2.388-5.848,3.674-8.861c-3.553-2.45-7.462-4.551-8.429-9.51
				c-1.07-5.494,1.2-10.914,3.026-15.562c-8.334,1.247-11.838,7.324-15.994,12.752c4.109-1.515,10.372-1.731,11.456,2.594
				c0.209,3.046-0.748,5.471-1.513,8.213c-0.819,2.936-3.514,8.434,0,9.078c3.603,0.659,4.779-4.918,8.213-3.026
				c0.182,3.13-3.553,5.931-6.484,8.861c-3.45,3.447-7.336,7.841-12.752,8.646c-6.497,0.966-9.001-3.231-7.781-9.511
				c0.467-2.403,1.896-5.345,3.026-8.213c0.834-2.115,2.965-6.541,1.945-8.645c-0.573-1.183-3.733-2.429-6.484-0.865
				c-1.281,0.729-1.541,3.426-2.162,5.188c-3.832,10.887-11.509,22.832-24.422,24.207c-10.749,1.146-20.728-4.254-21.83-13.184
				c-0.884-7.163,3.359-12.912,9.943-12.753c4.383,0.105,8.364,5.235,4.322,9.51c-1.651,1.747-6.4,2.419-4.539,7.565
				c0.767,2.125,4.396,2.743,7.132,1.513c3.575-1.605,6.426-4.921,8.646-7.564c6.925-8.243,13.204-20.302,19.02-29.178
				c-4.546,1.819-8.898,7.032-16.21,5.618c-8.779-1.696-8.524-12.127-1.945-17.507c1.433-1.171,3.62-2.353,5.403-3.241
				c1.962-0.979,4.513-2.294,6.268-0.865c0.564,4.522-5.107,3.962-4.539,8.646c0.277,2.276,2.587,3.796,4.755,3.891
				c6.304,0.274,12.218-6.953,16.858-11.023c1.798-1.577,4.545-3.56,5.62-1.296c0.879,1.853-1.695,4.493-2.81,6.268
				c-3.761,5.989-6.056,12.164-8.645,19.452c7.971-7.402,15.336-17.632,25.72-24.207c3.164-2.003,7.709-4.515,12.536-3.891
				c1.861,0.24,2.326,1.247,3.675,1.514c1.134,0.222,2.714-0.072,3.242,0c4.595,0.617,8.081,4.194,8.646,8.212
				c1.139,8.13-4.978,15.226-6.917,22.479c4.172-1.378,4.582-6.515,9.077-7.565c1.485,3.608-1.541,5.949-3.674,7.997
				c-1.089,1.047-2.367,1.922-3.674,2.81c-1.325,0.901-3.279,1.534-4.106,2.378c-0.966,0.984-1.76,3.596-2.378,5.187
				c-0.648,1.666-1.595,4.229,0.216,5.403c3.084-0.075,5.213-2.836,7.132-4.755c1.837-1.837,4.167-3.872,5.619-6.052
				c5.849-8.781,7.602-23.675,17.723-27.232c1.68-0.591,4.286-0.865,6.268,0.432c0.526,3.739-1.866,6.854-3.241,9.943
				c-2.793,6.27-5.479,12.522-8.213,19.02c-1.252,2.976-3.402,6.387-2.594,9.941c4.489-0.192,5.632-3.734,8.213-5.835
				c0.195-4.768,5.399-9.843,11.023-8.646c2.116,0.449,5.205,3.176,4.323,6.916c-0.83,3.521-7.416,4.306-6.484,9.077
				c0.415,2.128,3.588,3.21,6.701,2.594c1.912-0.378,3.784-1.629,5.403-3.025c6.979-6.015,10.999-15.495,15.994-24.64
				c5.049-9.242,11.092-16.855,17.507-22.909c-10.813-2.85-20.907,1.686-26.8,7.997c-2.519,2.694-7.205,10.642-3.675,15.562
				c1.472,2.051,5.492,2.074,6.484,3.458c1.937,2.699-0.396,5.302-3.891,4.539c-4.439-0.969-7.989-6.527-7.565-12.752
				c1.104-16.224,22.38-27.955,41.065-22.91c2.419-0.535,4.816-4.192,7.781-4.107c4.885,0.144,0.088,5.401-2.594,5.404
				c1.092,1.589,3.238,2.152,4.971,3.675c3.528,3.093,7.608,8.908,6.701,15.345c-0.812,5.739-5.908,10.311-12.536,10.808
				c-0.184,1.797,1.647,1.338,2.162,3.89c1.096,5.451-2.179,14.436,4.106,10.375c0.655-15.118,5.812-23.96,13.832-32.42
				c5.145-5.428,12.497-10.625,21.397-13.184c2.127-0.612,7.794-2.017,8.214,0.647c0.261,1.658-2.702,3.201-3.891,3.891
				c-5.164,2.992-9.264,6.994-12.535,10.806c-5.721,6.666-11.22,15.618-9.942,28.098c0.67,6.534,3.934,11.567,11.887,10.591
				c6.821-0.837,11.592-7.876,15.13-13.833c3.103-5.224,5.325-10.501,5.836-17.506c0.302-4.144-0.013-8.896-3.675-9.51
				c-2.24-0.377-4.271,0.914-5.835,2.16c-4.14,3.304-7.544,10.142-7.781,16.644c-0.151,4.141,0.007,7.543,1.729,9.725
				c-0.459,1.76-1.217,3.536-3.026,3.459c-3.642-0.156-4.169-8.704-3.675-12.536c1.273-9.87,8.521-22.782,17.724-23.99
				c4.229-0.556,8.688,0.814,10.158,4.105c4.709-5.466,10.349-13.283,20.101-12.318c6.385,0.63,9.444,7.206,7.996,14.696
				c-0.706,3.66-3.278,6.72-4.105,9.942c1.648-0.936,3.054-2.622,4.538-4.106c3.666-3.666,9.699-9.778,15.778-10.807
				c5.9-0.999,9.754,2.631,7.564,8.861c-1.705,4.852-4.93,10.318-7.564,15.778c-1.265,2.618-2.466,5.436-3.674,7.996
				c-1.259,2.668-3.558,5.385-2.378,8.214c4.201-0.643,6.449-5.066,9.726-7.35c-0.501-3.747-0.136-7.25,1.297-9.941
				c2.903-5.449,10.589-11.701,15.994-14.049c1.213-0.527,2.392-0.659,3.459-1.081c-0.809-1.843-2.184-2.614-2.811-4.106
				c-2.001-4.763,0.264-10.032,3.675-12.751c3.899-3.108,11.369-5.519,18.587-4.972C452.73,155.006,461.08,158.453,461.661,163.829z
				 M371.75,177.445c1.703-3.599,4.42-9.192,0.432-11.239c-0.726,0.184-2.204-0.233-3.241,0c-3.003,0.675-8.306,7.282-9.078,11.239
				c-0.246,1.261,0.035,2.753-0.216,4.106c-0.592,3.197-2.416,6.196-2.594,8.429c-0.317,3.994,1.915,7.653,3.891,9.294
				C364.13,192.979,368.334,184.661,371.75,177.445z M196.682,181.768c1.634-3.679,4.772-7.586,3.458-12.536
				c-0.216,0-0.257-0.175-0.432-0.215c-2.14,2.5-6.004,5.395-10.59,3.458c-5.428,4.336-6.039,19.577,2.377,20.965
				C193.502,189.738,194.929,185.716,196.682,181.768z"/>
			<path fill="#FFFFFF" d="M231.047,47.981c0.326,1.692-1.438,3.326-2.81,4.755c-3.456,3.599-9.418,9.557-15.129,10.158
				c-4.714,0.495-7.202-3.093-6.051-7.997c0.773-3.303,3.214-6.992,4.754-10.591c1.669-3.894,3.571-7.718,3.458-11.455
				c-3.467,0.369-5.81,3.681-8.213,6.268c-2.203,2.369-4.866,5.162-6.7,8.213c-3.756,6.253-5.393,14.92-13.4,16.21
				c-1.695,0.272-4.444,0.19-5.403-1.081c0.23-3.581,2.018-6.648,3.458-9.51c1.431-2.849,2.901-5.65,4.323-8.429
				c2.794-5.466,6.991-10.591,7.565-17.507c-2.905-0.225-5.049,2.518-6.7,4.322c-5.369,5.864-10.176,13.083-13.833,20.533
				c2.205,0.88,3.983-2.027,6.052-0.648c0.51,2.832-1.896,3.58-4.106,3.89c-1.007,0.141-2.125-0.304-3.026,0
				c-1.556,0.527-2.557,3.677-4.107,5.188c-2.254,2.195-6.194,4.284-10.807,2.594c-1.366-5.665,2.825-9.387,4.322-13.617
				c-1.765-2.917-2.985-6.38-3.674-10.375c-1.921,2.9-3.58,6.607-5.403,10.375c-3.504,7.234-6.199,15.572-17.507,13.617
				c-2.068-1.641-0.372-3.58,0.216-6.052c1.545-6.495,0.123-15.743-1.081-21.181c-2.016,2.387-3.806,6.128-4.754,8.862
				c1.187,0.471,3.249,0.067,3.674,1.297c-0.59,2.364-3.327,2.58-6.052,2.81c-3.927,7.016-10.498,14.386-20.533,15.346
				c-7.563,0.722-15.531-4-16.426-9.942c-1.193-7.917,3.274-14.667,10.807-13.4c6.86,1.154,5.241,12.175-1.513,12.104
				c-1.016,2.859,1.092,4.982,3.242,5.403c7.964,1.561,12.341-8.034,15.562-11.455c-2.036-1.986-4.658-2.65-6.7-4.971
				c-3.517-3.992-3.415-11.377,0.216-15.562c4.781-5.511,15.203-4.796,20.533-0.216c7.398-7.77,18.246-19.136,33.285-18.804
				c2.613,0.059,5.475,0.646,6.7,2.594c5.537-3.899,16.041-4.869,16.209,4.107c0.123,6.505-3.3,12.066-5.187,16.642
				c2.74-2.014,4.903-5.083,7.781-7.781c3.929-3.685,7.854-7.843,15.994-7.564c0.899,0.614,1.605,1.419,2.161,2.377
				c0.315,7.737-3.35,11.49-5.403,16.858c4.839-3.501,10.424-12.026,18.372-12.968c8.578-1.018,6.666,6.722,4.106,11.671
				c-2.589,5.006-4.824,9.342-7.348,14.265c-1.103,2.151-3.269,4.662-2.162,7.565C224.673,53.852,226.093,48.219,231.047,47.981z
				 M177.662,22.91c0.815-1.776,3.547-6.683,1.513-8.429c-2.145-1.841-5.791,1.355-6.7,2.594c-1.766,2.399-4.502,8.142-6.7,12.536
				c-2.291,4.578-1.416,11.928,0.648,15.346c3.151-4.323,4.834-9.292,7.565-14.697C175.053,28.151,176.304,25.869,177.662,22.91z
				 M164.694,12.104c-6.572-1.126-12.015,3.838-15.562,7.781c-3.564,3.959-6.892,8.044-9.51,11.671
				c1.215,3.209,2.658,7.052,3.242,10.807c0.187,1.197-0.339,3.037,0.865,3.891c4.96-8.872,10.476-17.489,15.994-25.503
				C161.558,18.081,164.251,15.483,164.694,12.104z M123.629,43.01c3.655-3.983,6.486-8.785,9.293-13.616
				c-2.799-2.405-9.034-5.401-13.185-2.81c-3.607,2.252-5.1,9.069-2.377,12.536C119.066,41.292,121.571,41.568,123.629,43.01z"/>
			<path fill="#FFFFFF" d="M102.448,12.104c2.092,8.738-15.064,12.304-16.642,3.674c2.306-3.927,5.863,1.159,9.293,0.649
				c1.284-0.193,2.771-1.345,2.81-3.458c0.093-4.93-10-4.67-13.833-2.593c-2.745,1.489-7.91,10.424-1.944,12.103
				c2.509,0.707,4.865-0.382,6.917,0c2.193,0.411,4.541,1.945,4.754,3.674c0.629,5.101-7.82,5.54-12.32,4.107
				c-1.171-0.374-2.719-1.34-3.458-1.297c-1.973,0.112-5.304,3.346-7.781,6.051c-3.538,3.865-7.279,11.229-4.323,17.291
				c5.043,10.338,22.802,3.603,21.83-8.429c-0.387-4.781-6.212-5.334-8.862-2.162c-0.752,0.899-2.246,7.712-4.971,6.917
				c-2.818-0.823,0.715-7.785,1.296-8.646c0.938-1.387,2.838-3.101,4.106-3.674c6.151-2.784,12.369,1.478,12.968,7.132
				c0.793,7.502-5.9,15.361-10.375,18.155C68.8,69.785,48.233,61.186,50.144,43.443c0.175-1.629,0.726-3.5,1.513-4.971
				c3.376-6.318,10.945-11.284,18.371-14.048c-0.724-1.725-2.285-2.616-2.81-4.539c-3.136,1.376-4.11,2.92-7.349,3.026
				c-8.128,0.264-12.913-6.661-21.397-7.565c-6.905-0.735-12.936,1.794-16.209,5.404c-2.535,2.794-4.69,9.555-1.945,14.48
				c3.659,6.564,14.678,3.006,14.48-4.539c-0.061-2.328-1.567-2.604-1.297-5.619c0.864-0.493,0.901-1.15,1.729-1.296
				c4.983-0.882,4.539,7.179,3.026,10.59c-1.881,4.236-6.095,8.174-11.456,8.213c-8.877,0.063-12.977-8.381-11.023-17.29
				C17.672,16.655,27.296,7.699,37.607,6.7c6.601-0.639,11.606,1.159,16.642,2.81c3.383,1.108,8.316,2.606,11.671,1.513
				c2-0.652,1.678-2.321,3.675-3.674c1.291-0.281,1.336,0.681,2.377,0.648c2.951-1.619,6.465-3.458,11.023-3.891
				C91.099,3.339,101.038,6.221,102.448,12.104z"/>
			<path fill="#FFFFFF" d="M54.466,23.558c0.544,1.261-1.338,3.366-2.161,4.755c-2.566,4.325-3.895,11.676-4.755,16.858
				c-0.809,4.874-1.122,8.418-2.81,11.671c-3.486,6.722-9.734,11.326-18.155,13.4c-1.271-0.212,0.035,0.813-0.865,0.864
				c-2.665,0-5.332,0-7.997,0c-1.271,0.212,0.035-0.813-0.864-0.864c-5.333-1.489-11.207-5.176-11.888-11.456
				C4.28,52.42,8.475,44.972,15.994,47.116c4.318,1.232,4.359,6.495,1.297,9.077c-1.29,1.087-2.743,1.312-3.026,3.026
				c-0.838,5.075,4.971,5.336,8.645,3.458c10.8-5.521,13.342-22.156,20.749-32.42c2.006-2.78,5.382-5.961,7.564-7.349
				C52.002,22.415,53.781,21.977,54.466,23.558z"/>
		</g>
	</g>
</g>
<g id="XMLID_21_">
	<g>
		<linearGradient id="XMLID_47_" gradientUnits="userSpaceOnUse" x1="116.4658" y1="191.4258" x2="589.2056" y2="191.4258">
			<stop  offset="0" style="stop-color:#EE7D71"/>
			<stop  offset="0.0033" style="stop-color:#EE7F74"/>
			<stop  offset="0.0532" style="stop-color:#F19A95"/>
			<stop  offset="0.1005" style="stop-color:#F4ADAD"/>
			<stop  offset="0.144" style="stop-color:#F6BABC"/>
			<stop  offset="0.1798" style="stop-color:#F6BEC1"/>
			<stop  offset="0.2689" style="stop-color:#FBDCBF"/>
			<stop  offset="0.3258" style="stop-color:#FBE6BC"/>
			<stop  offset="0.395" style="stop-color:#F9DD9A"/>
			<stop  offset="0.4663" style="stop-color:#F8D57D"/>
			<stop  offset="0.5036" style="stop-color:#EADA85"/>
			<stop  offset="0.5735" style="stop-color:#C9E09E"/>
			<stop  offset="0.6461" style="stop-color:#A9D6B1"/>
			<stop  offset="0.7334" style="stop-color:#B7C0D9"/>
			<stop  offset="0.8258" style="stop-color:#AB81B8"/>
			<stop  offset="1" style="stop-color:#634F9E"/>
		</linearGradient>
		<path fill="url(#XMLID_47_)" d="M582.774,167.825c4.617,1.822,7.052,8.627,6.296,15.255c-1.692,14.823-16.322,38.12-32.378,40.388
			c-13.612,1.922-21.708-1.935-24.731-11.669c-4.96,3.38-15.44,14.473-22.933,6.282c-1.895-9.877,4.1-15.196,4.945-23.782
			c-0.414-1.679-3.608-0.585-5.396-0.896c-3.779,10.651-11.281,27.535-25.632,29.614c-12.24,1.773-23.342-3.767-24.282-15.705
			c-4.563,17.631-36.063,23.13-43.618,3.142c-4.576,3.613-10.273,11.452-17.087,12.563c-6.466,1.053-10.237-3.771-8.995-11.219
			c0.473-2.816,3.146-6.326,4.95-9.873c3.078-6.052,5.427-10.309,7.195-16.6c-5.485,0-8.729,5.634-11.695,9.423
			c-3.182,4.067-6.638,8.486-8.091,13.459c2.758,0.171,3.686-2.723,5.846-1.795c3.397,4.554-3.718,7.658-7.646,6.281
			c-3.654,5.221-8.104,11.907-17.987,9.428c-2.331-5.782,3.285-10.151,4.496-15.26c-0.995-1.998-2.849-3.141-3.596-5.386
			c-6.448,11.362-18.288,27.644-38.673,23.787c-6.215-1.18-10.382-5.985-12.591-12.119c-4.874,2.983-7.875,8.658-13.941,9.423
			c-15.35,1.936-5.481-20.713-3.596-27.373c-0.729-1.71-3.712-2.498-3.146-5.382c0.797-4.091,8.379-2.309,11.691-5.387
			c4.77-4.438,2.461-12.532-2.25-15.705c-10.553,10.463-11.012,34.321-22.932,46.22c-5.247,5.233-14.972,12.064-26.982,8.527
			c-4.545-1.341-8.267-5.071-10.341-9.873c-6.363,3.96-10.377,11.673-20.236,10.769c-3.411-1.603-5.359-7.659-3.146-12.114
			c-3.893,0.855-10.557,11.547-17.541,12.564c-9.725,1.413-11.457-8.96-6.295-14.81c-6.372,4.311-11.565,15.561-21.582,13.464
			c-11.592-2.43,0.36-19.89,0.45-27.374c-1.089-0.859-3.614-0.283-5.396-0.449c-4.388,11.609-11.138,27.518-25.632,29.619
			c-11.947,1.728-19.692-2.997-23.832-11.219c0-2.993,0-5.985,0-8.978c1.715-1.485,1.823-3.915,4.046-5.382
			c10.566-6.993,18.544,8.082,7.645,10.769c-2.893,7.901,3.659,7.564,8.096,4.486c9.077-6.305,17.451-24.534,22.932-31.86
			c-5.535,5.094-19.886,5.989-21.586-2.69c-2.03-10.387,11.835-18.847,18.437-16.155c-0.176,4.05-9.662,10.179-1.796,12.114
			c9.698,2.389,16.105-16.029,24.282-12.564c0.167,5.04-3.591,8.091-5.396,11.669c-1.917,3.793-2.97,7.52-4.95,11.664
			c11.327-7.844,17.352-24.867,37.773-25.129c3.713,1.859,7.52,0.811,10.796,3.142c8.829,6.291,1.633,19.372-1.8,27.373
			c2.587-0.414,3.253-6.619,8.091-6.281c1.278,7.875-5.747,11.299-11.241,13.909c-1.156,3.182-2.835,5.85-3.596,9.423
			c6.197,0.576,8.172-6.745,12.591-9.423c6.025-10.998,10.305-31.415,25.182-27.819c0.99,6.988-4.05,13.077-6.746,19.296
			c-2.817,6.489-5.337,13.108-7.646,19.742c4.289,0.094,4.59-3.794,7.646-4.937c-1.926-6.634,11.461-13.536,15.736-7.178
			c4.923,7.316-6.979,9.207-5.845,13.909c0.567,2.345,4.549,2.754,7.646,1.796c7.659-2.367,14.526-16.938,18.437-24.232
			c5.499-10.256,10.75-18.585,17.986-24.679c-14.004-1.826-25.614,4.752-28.777,13.46c-0.68,1.863-1.436,6.516-0.45,8.527
			c2.106,4.307,9.72,1.589,7.646,8.077c-0.544,1.697-2.178,2.129-2.7,2.241c-9.126,1.98-12.771-12.397-9.891-19.741
			c5.733-14.639,23.368-19.265,36.423-18.4c1.471,0.099,3.474,0.639,4.496,0.45c2.659-0.486,6.381-6.206,10.791-2.246
			c0.216,3.209-2.345,3.646-4.496,4.491c5.891,4.293,11.876,8.487,11.241,19.296c5.323-7.614,12.965-15.363,22.933-19.746
			c3.982-1.75,10.224-4.571,14.391-0.899c-0.644,4.635-5.697,5.503-8.546,7.632c-8.104,6.053-17.027,15.876-17.986,30.064
			c-0.544,8.113,1.8,16.73,11.691,15.255c7.627-1.134,15.317-12.722,18.437-21.987c1.845-5.467,4.181-17.923-3.596-17.5
			c-6.493,2.678-12.875,14.444-10.341,24.683c0.508,2.057,2.425,7.537-2.25,7.627c-3.461,0.067-2.768-3.789-4.945-5.836
			c0.832-16.407,5.769-32.504,24.731-32.306c1.332,1.358,3.546,1.845,4.046,4.036c5.103-5.872,12.829-15.264,22.932-12.114
			c7.902,2.462,7.987,14.842,3.6,21.987c0.081,0.383-0.175,0.423-0.449,0.45c0,0.148,0,0.297,0,0.445
			c6.466-5.944,17.698-19.255,27.432-9.868c-1.242,15.669-11.857,24.363-14.391,37.242c3.001-0.148,5.373-4.807,8.541-6.282
			c-1.076-14.575,10.251-20.561,20.236-25.578c0.188-0.949-2.295-3.078-3.146-4.486c-1.544-8.712,6.476-15.881,16.187-17.501
			c9.288-1.552,21.397,2.272,23.382,8.078c3.663,10.719-17.258,16.154-19.337,4.937c2.313-4.388,7.231-1.454,10.346,0.449
			c7.844-3.798-3.312-9.922-11.241-5.386c-4.4,2.516-4.607,6.736-3.6,10.769c6.017,0.805,14.004-0.068,14.841,4.937
			c1.18,7.092-11.979,8.136-17.086,4.041c-8.47,1.057-21.142,23.813-8.096,28.269c9.112,3.109,19.08-4.392,16.637-15.26
			c-7.569-6.305-7.875,6.827-13.491,8.078c-3.991-7.745,3.33-15.512,9.896-15.705c5.603-0.162,10.679,4.396,10.341,11.218
			c1.017-5.8,14.688-9.063,16.637-2.24c1.525,5.318-3.299,7.223-6.296,9.868c-0.611,3.456,0.693,4.995,2.7,5.837
			c15.764-5.81,20.129-22.991,29.678-35.001c-4.978,3.572-16.808,8.104-21.582-0.9c-2.165-11.934,8.027-17.658,17.086-18.396
			c2.498,5.635-3.95,5.292-4.05,8.974c-0.045,1.836,1.521,3.677,3.601,4.041c8.771,1.53,14.791-13.307,22.481-13.464
			c3.636,3.028-0.306,5.719-1.8,8.077c-3.047,4.811-4.729,11.691-7.641,16.605c10.646-8.735,22.243-27.212,38.668-26.028
			c1.436,1.858,3.834,2.759,3.6,6.282c5.045-2.403,13.928-9.288,22.933-6.282c0.603,4.469-3.816,5.085-6.296,6.731
			c-9.729,6.458-19.26,17.033-20.236,31.86c-0.594,9.059,2.728,17.401,13.041,14.805c10.278-2.583,21.244-24.669,17.536-38.142
			c-0.765,0.022-1.16-0.333-1.345-0.896c-10.584,1.53-14.085,11.723-13.491,25.128c-0.342,1.688,2.385,0.311,1.8,2.245
			c0.671,3.214-2.124,2.966-2.7,4.937c-12.653-5.314-2.687-27.508,4.496-34.105c2.416-2.218,5.382-2.69,7.195-4.486
			C577.194,168.307,580.443,167.609,582.774,167.825z M542.75,175.003c-10.898-4.631-19.372,4.081-22.481,9.873
			c2.133-0.428,2.277-1.318,4.046-1.346c10.269-0.162,4.729,13.198,3.149,21.092c1.049,0,2.097,0,3.146,0
			C531.208,191.307,535.884,182.059,542.75,175.003z M380.873,170.966c-11.831-2.308-11.943,14.247-15.291,23.333
			c1.372,2.223,0.904,6.277,3.15,7.627C372.336,191.414,380.693,183.418,380.873,170.966z M310.272,206.413
			c-0.765-6.898,1.8-12.861,2.7-16.601c-1.765,1.831-4.027,3.159-7.646,3.141c3.051,2.34,0.985,9.788,2.25,13.909
			C308.949,207.187,308.9,206.089,310.272,206.413z M199.203,196.094c1.485-8.243,8.181-13.675,7.646-22.437
			c-2.412,3.024-5.823,4.999-10.341,3.141C192.817,180.808,191.621,195.622,199.203,196.094z M194.708,204.622
			c0.225-1.872,1.732-2.462,1.8-4.491c-1.625-0.022-2.178-1.116-3.6-1.346c-2.003-1.444-3.573-5.697-4.946-6.282
			c0.288,4.329-3.051,8.919-3.146,14.359C189.938,208.217,190.671,201.48,194.708,204.622z M188.412,190.708
			c-1.643-6.31,1.125-11.439,2.25-14.81c-5.67,2.128-10.926,7.052-13.041,11.219C182.058,184.224,186.554,187.319,188.412,190.708z"
			/>
		<linearGradient id="XMLID_48_" gradientUnits="userSpaceOnUse" x1="305.3267" y1="198.3672" x2="312.9722" y2="198.3672">
			<stop  offset="0" style="stop-color:#EE7D71"/>
			<stop  offset="0.0033" style="stop-color:#EE7F74"/>
			<stop  offset="0.0532" style="stop-color:#F19A95"/>
			<stop  offset="0.1005" style="stop-color:#F4ADAD"/>
			<stop  offset="0.144" style="stop-color:#F6BABC"/>
			<stop  offset="0.1798" style="stop-color:#F6BEC1"/>
			<stop  offset="0.2689" style="stop-color:#FBDCBF"/>
			<stop  offset="0.3258" style="stop-color:#FBE6BC"/>
			<stop  offset="0.395" style="stop-color:#F9DD9A"/>
			<stop  offset="0.4663" style="stop-color:#F8D57D"/>
			<stop  offset="0.5036" style="stop-color:#EADA85"/>
			<stop  offset="0.5735" style="stop-color:#C9E09E"/>
			<stop  offset="0.6461" style="stop-color:#A9D6B1"/>
			<stop  offset="0.7334" style="stop-color:#B7C0D9"/>
			<stop  offset="0.8258" style="stop-color:#AB81B8"/>
			<stop  offset="1" style="stop-color:#634F9E"/>
		</linearGradient>
		<path fill="url(#XMLID_48_)" d="M312.972,189.813c-0.9,3.739-3.465,9.702-2.7,16.601c-1.372-0.324-1.323,0.773-2.695,0.449
			c-1.265-4.121,0.801-11.569-2.25-13.909C308.945,192.972,311.208,191.644,312.972,189.813z"/>
		<linearGradient id="XMLID_49_" gradientUnits="userSpaceOnUse" x1="10.8931" y1="40.8232" x2="239.6758" y2="40.8232">
			<stop  offset="0" style="stop-color:#EE7D71"/>
			<stop  offset="0.0033" style="stop-color:#EE7F74"/>
			<stop  offset="0.0532" style="stop-color:#F19A95"/>
			<stop  offset="0.1005" style="stop-color:#F4ADAD"/>
			<stop  offset="0.144" style="stop-color:#F6BABC"/>
			<stop  offset="0.1798" style="stop-color:#F6BEC1"/>
			<stop  offset="0.2689" style="stop-color:#FBDCBF"/>
			<stop  offset="0.3258" style="stop-color:#FBE6BC"/>
			<stop  offset="0.395" style="stop-color:#F9DD9A"/>
			<stop  offset="0.4663" style="stop-color:#F8D57D"/>
			<stop  offset="0.5036" style="stop-color:#EADA85"/>
			<stop  offset="0.5735" style="stop-color:#C9E09E"/>
			<stop  offset="0.6461" style="stop-color:#A9D6B1"/>
			<stop  offset="0.7334" style="stop-color:#B7C0D9"/>
			<stop  offset="0.8258" style="stop-color:#AB81B8"/>
			<stop  offset="1" style="stop-color:#634F9E"/>
		</linearGradient>
		<path fill="url(#XMLID_49_)" d="M227.535,57.881c4.743-1.273,6.34-7.992,12.141-6.728c-1.467,4.153-6.597,9.526-10.791,12.564
			c-3.217,2.327-7.087,4.068-13.041,2.691c-5.49-10.787,5.265-19.494,6.746-29.169c-13.689,5.337-14.427,23.603-26.532,30.515
			c-2.651-0.36-5.85,0.468-7.646-0.896c2.182-13.226,12.33-23.288,15.741-35.451c-8.716,3.726-13.945,14.796-19.336,23.333
			c2.07,0.085,3.821-1.913,5.846-0.445c1.237,4.018-3.379,5.026-7.646,4.932c-2.993,4.532-8.298,10.913-16.187,7.632
			c-1.071-5.612,2.794-9.63,4.496-13.914c-0.941-2.799-2.651-4.833-3.15-8.078c-6.241,7.578-7.555,26.681-23.832,21.542
			c0.077-8.154,2.327-17.109,0-26.028c-1.458,1.984-2.137,4.748-3.595,6.732c0.904,1.04,3.294,0.599,3.595,2.246
			c-0.76,2.677-3.537,3.353-6.745,3.586c-4.037,14.044-29.961,21.672-37.769,6.282c0-2.691,0-5.382,0-8.073
			c-2.948,9.45-10.273,17.532-21.137,17.946c-14.908,0.572-29.556-16.402-18.437-30.514C64,33.833,70.665,29.914,76.443,27.367
			c-1.166-0.778-1.984-1.903-2.695-3.141c-1.939,2.745-7.997,3.411-11.691,1.795c-1.062,0.383,1.237,1.107,0.45,2.696
			c-5.913,5.548-5.589,15.156-7.195,23.782c-1.953,10.485-8.334,16.308-16.191,20.642c-10.858,3.735-24.62,0.711-27.428-8.527
			c-5.089-13.311,15.809-21.785,15.287-6.732c-1.773,2.475-7.02,4.019-4.045,8.527c17.919,0.954,18.729-22.711,27.882-34.105
			c2.047-2.551,4.86-3.168,6.291-6.282c1.062,0.009,1.328-0.769,2.7-0.445c-8.703-8.123-30.677-7.583-32.828,4.486
			c-0.522,2.939-0.585,6.287,1.35,8.973c2.848,3.951,11.021,3.704,12.591-1.795c1.076-3.762-1.818-5.765-0.45-9.873
			c2.704-1.669,5.805,0.648,6.295,2.246c2.979,9.684-7.268,17.348-12.591,17.5c-8.244,0.238-14.976-9.032-12.141-19.296
			c2.038-7.375,12.105-16.943,21.136-17.951c9.347-1.044,16.533,2.165,23.832,3.591c4.5,0.882,6.831,1.413,9.441-3.141
			c1.112-0.059,2.169-0.068,2.7,0.45c9.855-8.708,40.896-1.688,28.328,12.564c-5.981,4.541-21.191-0.904-12.141-6.732
			c2.452,0.842,4.243,2.349,6.746,3.141c1.566-0.68,2.493-1.998,2.25-4.486c-6.408-5.895-21.087,1.287-15.741,9.873
			c4.806,0.738,11.228-0.135,13.041,3.591c0.896,8.338-11.952,7.749-15.736,4.037c-6.116,4.351-15.021,9.868-13.041,20.641
			c2.214,12.06,24.363,7.646,21.132-7.627c-7.281-6.799-7.623,5.603-13.037,7.178c-6.975-13.59,20.997-22.932,18.887-2.241
			c2.435-6.754,11.691-10.31,16.636-3.591c0.977,6.363-2.241,8.532-6.295,9.873c3.123,10.575,15.484-1.85,17.537-6.732
			c-4.05-2.808-8.667-5.198-9.441-10.319c-1.926-12.744,14.729-19.354,24.282-11.218c9.414-9.153,17.671-19.462,37.323-18.4
			c0.841,0.801,2.596,0.702,2.695,2.245c3.712-2.218,10.395-4.329,14.391-1.795c6.129,3.888,1.399,15.926-1.35,20.191
			c5.603-4.131,12.227-15.412,23.832-12.114c2.727,6.062-1.192,12.316-3.146,16.601c5.058-4.995,14.261-15.192,23.382-8.973
			C239.388,40.691,230.073,45.907,227.535,57.881z M186.612,18.394c-2.452-0.508-4.536,0.877-5.845,2.246
			c-4.532,4.739-6.602,13.095-8.541,20.191c0.828,1.715,0.977,4.113,1.35,6.282C178.598,38.212,184.339,30.035,186.612,18.394z
			 M151.089,48.013c6.255-10.966,14.972-21.852,20.237-32.31c-12.285,2.102-17.167,11.587-23.382,19.742
			C149.293,39.332,150.725,43.139,151.089,48.013z M131.302,45.767c2.718-4.468,5.963-8.41,8.546-13.014
			c-2.975-0.927-6.737-3.443-9.891-2.691C122.577,30.211,122.104,45.794,131.302,45.767z"/>
	</g>
	<g>
		<path fill="none" stroke="#603438" stroke-width="4" d="M187.962,192.503c1.373,0.585,2.943,4.838,4.946,6.282
			c1.422,0.229,1.975,1.323,3.6,1.346c-0.067,2.029-1.575,2.619-1.8,4.491c-4.037-3.142-4.77,3.595-9.891,2.24
			C184.911,201.422,188.25,196.832,187.962,192.503z"/>
		<path fill="none" stroke="#603438" stroke-width="4" d="M206.849,173.657c0.535,8.762-6.161,14.193-7.646,22.437
			c-7.583-0.472-6.386-15.286-2.696-19.296C201.025,178.656,204.437,176.682,206.849,173.657z"/>
		<path fill="none" stroke="#603438" stroke-width="4" d="M380.873,170.966c-0.18,12.452-8.536,20.448-12.141,30.96
			c-2.246-1.35-1.778-5.404-3.15-7.627C368.929,185.213,369.042,168.658,380.873,170.966z"/>
		<path fill="none" stroke="#603438" stroke-width="4" d="M312.972,189.813c-0.9,3.739-3.465,9.702-2.7,16.601
			c-1.372-0.324-1.323,0.773-2.695,0.449c-1.265-4.121,0.801-11.569-2.25-13.909C308.945,192.972,311.208,191.644,312.972,189.813z"
			/>
		<path fill="none" stroke="#603438" stroke-width="4" d="M190.662,175.898c-1.125,3.37-3.893,8.5-2.25,14.81
			c-1.858-3.389-6.354-6.484-10.791-3.591C179.736,182.95,184.992,178.026,190.662,175.898z"/>
		<path fill="none" stroke="#603438" stroke-width="4" d="M542.75,175.003c-6.866,7.056-11.542,16.304-12.141,29.619
			c-1.049,0-2.097,0-3.146,0c1.58-7.894,7.119-21.254-3.149-21.092c-1.769,0.027-1.913,0.918-4.046,1.346
			C523.378,179.084,531.852,170.372,542.75,175.003z"/>
		<path fill="none" stroke="#603438" stroke-width="4" d="M392.114,183.976c6.466-5.944,17.698-19.255,27.432-9.868
			c-1.242,15.669-11.857,24.363-14.391,37.242c3.001-0.148,5.373-4.807,8.541-6.282c-1.076-14.575,10.251-20.561,20.236-25.578
			c0.188-0.949-2.295-3.078-3.146-4.486c-1.544-8.712,6.476-15.881,16.187-17.501c9.288-1.552,21.397,2.272,23.382,8.078
			c3.663,10.719-17.258,16.154-19.337,4.937c2.313-4.388,7.231-1.454,10.346,0.449c7.844-3.798-3.312-9.922-11.241-5.386
			c-4.4,2.516-4.607,6.736-3.6,10.769c6.017,0.805,14.004-0.068,14.841,4.937c1.18,7.092-11.979,8.136-17.086,4.041
			c-8.47,1.057-21.142,23.813-8.096,28.269c9.112,3.109,19.08-4.392,16.637-15.26c-7.569-6.305-7.875,6.827-13.491,8.078
			c-3.991-7.745,3.33-15.512,9.896-15.705c5.603-0.162,10.679,4.396,10.341,11.218c1.017-5.8,14.688-9.063,16.637-2.24
			c1.525,5.318-3.299,7.223-6.296,9.868c-0.611,3.456,0.693,4.995,2.7,5.837c15.764-5.81,20.129-22.991,29.678-35.001
			c-4.978,3.572-16.808,8.104-21.582-0.9c-2.165-11.934,8.027-17.658,17.086-18.396c2.498,5.635-3.95,5.292-4.05,8.974
			c-0.045,1.836,1.521,3.677,3.601,4.041c8.771,1.53,14.791-13.307,22.481-13.464c3.636,3.028-0.306,5.719-1.8,8.077
			c-3.047,4.811-4.729,11.691-7.641,16.605c10.646-8.735,22.243-27.212,38.668-26.028c1.436,1.858,3.834,2.759,3.6,6.282
			c5.045-2.403,13.928-9.288,22.933-6.282c0.603,4.469-3.816,5.085-6.296,6.731c-9.729,6.458-19.26,17.033-20.236,31.86
			c-0.594,9.059,2.728,17.401,13.041,14.805c10.278-2.583,21.244-24.669,17.536-38.142c-0.765,0.022-1.16-0.333-1.345-0.896
			c-10.584,1.53-14.085,11.723-13.491,25.128c-0.342,1.688,2.385,0.311,1.8,2.245c0.671,3.214-2.124,2.966-2.7,4.937
			c-12.653-5.314-2.687-27.508,4.496-34.105c2.416-2.218,5.382-2.69,7.195-4.486c1.615,0.932,4.864,0.234,7.195,0.45
			c4.617,1.822,7.052,8.627,6.296,15.255c-1.692,14.823-16.322,38.12-32.378,40.388c-13.612,1.922-21.708-1.935-24.731-11.669
			c-4.96,3.38-15.44,14.473-22.933,6.282c-1.895-9.877,4.1-15.196,4.945-23.782c-0.414-1.679-3.608-0.585-5.396-0.896
			c-3.779,10.651-11.281,27.535-25.632,29.614c-12.24,1.773-23.342-3.767-24.282-15.705c-4.563,17.631-36.063,23.13-43.618,3.142
			c-4.576,3.613-10.273,11.452-17.087,12.563c-6.466,1.053-10.237-3.771-8.995-11.219c0.473-2.816,3.146-6.326,4.95-9.873
			c3.078-6.052,5.427-10.309,7.195-16.6c-5.485,0-8.729,5.634-11.695,9.423c-3.182,4.067-6.638,8.486-8.091,13.459
			c2.758,0.171,3.686-2.723,5.846-1.795c3.397,4.554-3.718,7.658-7.646,6.281c-3.654,5.221-8.104,11.907-17.987,9.428
			c-2.331-5.782,3.285-10.151,4.496-15.26c-0.995-1.998-2.849-3.141-3.596-5.386c-6.448,11.362-18.288,27.644-38.673,23.787
			c-6.215-1.18-10.382-5.985-12.591-12.119c-4.874,2.983-7.875,8.658-13.941,9.423c-15.35,1.936-5.481-20.713-3.596-27.373
			c-0.729-1.71-3.712-2.498-3.146-5.382c0.797-4.091,8.379-2.309,11.691-5.387c4.77-4.438,2.461-12.532-2.25-15.705
			c-10.553,10.463-11.012,34.321-22.932,46.22c-5.247,5.233-14.972,12.064-26.982,8.527c-4.545-1.341-8.267-5.071-10.341-9.873
			c-6.363,3.96-10.377,11.673-20.236,10.769c-3.411-1.603-5.359-7.659-3.146-12.114c-3.893,0.855-10.557,11.547-17.541,12.564
			c-9.725,1.413-11.457-8.96-6.295-14.81c-6.372,4.311-11.565,15.561-21.582,13.464c-11.592-2.43,0.36-19.89,0.45-27.374
			c-1.089-0.859-3.614-0.283-5.396-0.449c-4.388,11.609-11.138,27.518-25.632,29.619c-11.947,1.728-19.692-2.997-23.832-11.219
			c0-2.993,0-5.985,0-8.978c1.715-1.485,1.823-3.915,4.046-5.382c10.566-6.993,18.544,8.082,7.645,10.769
			c-2.893,7.901,3.659,7.564,8.096,4.486c9.077-6.305,17.451-24.534,22.932-31.86c-5.535,5.094-19.886,5.989-21.586-2.69
			c-2.03-10.387,11.835-18.847,18.437-16.155c-0.176,4.05-9.662,10.179-1.796,12.114c9.698,2.389,16.105-16.029,24.282-12.564
			c0.167,5.04-3.591,8.091-5.396,11.669c-1.917,3.793-2.97,7.52-4.95,11.664c11.327-7.844,17.352-24.867,37.773-25.129
			c3.713,1.859,7.52,0.811,10.796,3.142c8.829,6.291,1.633,19.372-1.8,27.373c2.587-0.414,3.253-6.619,8.091-6.281
			c1.278,7.875-5.747,11.299-11.241,13.909c-1.156,3.182-2.835,5.85-3.596,9.423c6.197,0.576,8.172-6.745,12.591-9.423
			c6.025-10.998,10.305-31.415,25.182-27.819c0.99,6.988-4.05,13.077-6.746,19.296c-2.817,6.489-5.337,13.108-7.646,19.742
			c4.289,0.094,4.59-3.794,7.646-4.937c-1.926-6.634,11.461-13.536,15.736-7.178c4.923,7.316-6.979,9.207-5.845,13.909
			c0.567,2.345,4.549,2.754,7.646,1.796c7.659-2.367,14.526-16.938,18.437-24.232c5.499-10.256,10.75-18.585,17.986-24.679
			c-14.004-1.826-25.614,4.752-28.777,13.46c-0.68,1.863-1.436,6.516-0.45,8.527c2.106,4.307,9.72,1.589,7.646,8.077
			c-0.544,1.697-2.178,2.129-2.7,2.241c-9.126,1.98-12.771-12.397-9.891-19.741c5.733-14.639,23.368-19.265,36.423-18.4
			c1.471,0.099,3.474,0.639,4.496,0.45c2.659-0.486,6.381-6.206,10.791-2.246c0.216,3.209-2.345,3.646-4.496,4.491
			c5.891,4.293,11.876,8.487,11.241,19.296c5.323-7.614,12.965-15.363,22.933-19.746c3.982-1.75,10.224-4.571,14.391-0.899
			c-0.644,4.635-5.697,5.503-8.546,7.632c-8.104,6.053-17.027,15.876-17.986,30.064c-0.544,8.113,1.8,16.73,11.691,15.255
			c7.627-1.134,15.317-12.722,18.437-21.987c1.845-5.467,4.181-17.923-3.596-17.5c-6.493,2.678-12.875,14.444-10.341,24.683
			c0.508,2.057,2.425,7.537-2.25,7.627c-3.461,0.067-2.768-3.789-4.945-5.836c0.832-16.407,5.769-32.504,24.731-32.306
			c1.332,1.358,3.546,1.845,4.046,4.036c5.103-5.872,12.829-15.264,22.932-12.114c7.902,2.462,7.987,14.842,3.6,21.987
			c0.081,0.383-0.175,0.423-0.449,0.45C392.114,183.679,392.114,183.827,392.114,183.976z"/>
		<path fill="none" stroke="#603438" stroke-width="4" d="M195.607,30.958c5.603-4.131,12.227-15.412,23.832-12.114
			c2.727,6.062-1.192,12.316-3.146,16.601c5.058-4.995,14.261-15.192,23.382-8.973c-0.288,14.22-9.603,19.436-12.141,31.41
			c4.743-1.273,6.34-7.992,12.141-6.728c-1.467,4.153-6.597,9.526-10.791,12.564c-3.217,2.327-7.087,4.068-13.041,2.691
			c-5.49-10.787,5.265-19.494,6.746-29.169c-13.689,5.337-14.427,23.603-26.532,30.515c-2.651-0.36-5.85,0.468-7.646-0.896
			c2.182-13.226,12.33-23.288,15.741-35.451c-8.716,3.726-13.945,14.796-19.336,23.333c2.07,0.085,3.821-1.913,5.846-0.445
			c1.237,4.018-3.379,5.026-7.646,4.932c-2.993,4.532-8.298,10.913-16.187,7.632c-1.071-5.612,2.794-9.63,4.496-13.914
			c-0.941-2.799-2.651-4.833-3.15-8.078c-6.241,7.578-7.555,26.681-23.832,21.542c0.077-8.154,2.327-17.109,0-26.028
			c-1.458,1.984-2.137,4.748-3.595,6.732c0.904,1.04,3.294,0.599,3.595,2.246c-0.76,2.677-3.537,3.353-6.745,3.586
			c-4.037,14.044-29.961,21.672-37.769,6.282c0-2.691,0-5.382,0-8.073c-2.948,9.45-10.273,17.532-21.137,17.946
			c-14.908,0.572-29.556-16.402-18.437-30.514C64,33.833,70.665,29.914,76.443,27.367c-1.166-0.778-1.984-1.903-2.695-3.141
			c-1.939,2.745-7.997,3.411-11.691,1.795c-1.062,0.383,1.237,1.107,0.45,2.696c-5.913,5.548-5.589,15.156-7.195,23.782
			c-1.953,10.485-8.334,16.308-16.191,20.642c-10.858,3.735-24.62,0.711-27.428-8.527c-5.089-13.311,15.809-21.785,15.287-6.732
			c-1.773,2.475-7.02,4.019-4.045,8.527c17.919,0.954,18.729-22.711,27.882-34.105c2.047-2.551,4.86-3.168,6.291-6.282
			c1.062,0.009,1.328-0.769,2.7-0.445c-8.703-8.123-30.677-7.583-32.828,4.486c-0.522,2.939-0.585,6.287,1.35,8.973
			c2.848,3.951,11.021,3.704,12.591-1.795c1.076-3.762-1.818-5.765-0.45-9.873c2.704-1.669,5.805,0.648,6.295,2.246
			c2.979,9.684-7.268,17.348-12.591,17.5c-8.244,0.238-14.976-9.032-12.141-19.296c2.038-7.375,12.105-16.943,21.136-17.951
			c9.347-1.044,16.533,2.165,23.832,3.591c4.5,0.882,6.831,1.413,9.441-3.141c1.112-0.059,2.169-0.068,2.7,0.45
			c9.855-8.708,40.896-1.688,28.328,12.564c-5.981,4.541-21.191-0.904-12.141-6.732c2.452,0.842,4.243,2.349,6.746,3.141
			c1.566-0.68,2.493-1.998,2.25-4.486c-6.408-5.895-21.087,1.287-15.741,9.873c4.806,0.738,11.228-0.135,13.041,3.591
			c0.896,8.338-11.952,7.749-15.736,4.037c-6.116,4.351-15.021,9.868-13.041,20.641c2.214,12.06,24.363,7.646,21.132-7.627
			c-7.281-6.799-7.623,5.603-13.037,7.178c-6.975-13.59,20.997-22.932,18.887-2.241c2.435-6.754,11.691-10.31,16.636-3.591
			c0.977,6.363-2.241,8.532-6.295,9.873c3.123,10.575,15.484-1.85,17.537-6.732c-4.05-2.808-8.667-5.198-9.441-10.319
			c-1.926-12.744,14.729-19.354,24.282-11.218c9.414-9.153,17.671-19.462,37.323-18.4c0.841,0.801,2.596,0.702,2.695,2.245
			c3.712-2.218,10.395-4.329,14.391-1.795C203.086,14.654,198.357,26.692,195.607,30.958z"/>
		<path fill="none" stroke="#603438" stroke-width="4" d="M139.848,32.753c-2.583,4.604-5.828,8.545-8.546,13.014
			c-9.198,0.027-8.725-15.556-1.345-15.705C133.111,29.311,136.874,31.826,139.848,32.753z"/>
		<path fill="none" stroke="#603438" stroke-width="4" d="M186.612,18.394c-2.272,11.642-8.014,19.818-13.036,28.719
			c-0.374-2.169-0.522-4.567-1.35-6.282c1.939-7.096,4.009-15.453,8.541-20.191C182.076,19.271,184.16,17.885,186.612,18.394z"/>
		<path fill="none" stroke="#603438" stroke-width="4" d="M171.326,15.703c-5.265,10.458-13.982,21.344-20.237,32.31
			c-0.364-4.874-1.795-8.681-3.146-12.568C154.158,27.29,159.041,17.804,171.326,15.703z"/>
	</g>
</g>
<g id="レイヤー_12">
	<g id="XMLID_12_">
		<g>
			
				<linearGradient id="XMLID_50_" gradientUnits="userSpaceOnUse" x1="573.6372" y1="-197.9243" x2="592.0278" y2="-197.9243" gradientTransform="matrix(1 0 0 1 0.0752 220.5898)">
				<stop  offset="0" style="stop-color:#EE7D71"/>
				<stop  offset="0.0033" style="stop-color:#EE7F74"/>
				<stop  offset="0.0532" style="stop-color:#F19A95"/>
				<stop  offset="0.1005" style="stop-color:#F4ADAD"/>
				<stop  offset="0.144" style="stop-color:#F6BABC"/>
				<stop  offset="0.1798" style="stop-color:#F6BEC1"/>
				<stop  offset="0.2689" style="stop-color:#FBDCBF"/>
				<stop  offset="0.3258" style="stop-color:#FBE6BC"/>
				<stop  offset="0.395" style="stop-color:#F9DD9A"/>
				<stop  offset="0.4663" style="stop-color:#F8D57D"/>
				<stop  offset="0.5036" style="stop-color:#EADA85"/>
				<stop  offset="0.5735" style="stop-color:#C9E09E"/>
				<stop  offset="0.6461" style="stop-color:#A9D6B1"/>
				<stop  offset="0.7334" style="stop-color:#B7C0D9"/>
				<stop  offset="0.8258" style="stop-color:#AB81B8"/>
				<stop  offset="1" style="stop-color:#634F9E"/>
			</linearGradient>
			<path fill="url(#XMLID_50_)" d="M592.103,21.09c0,0.897,0,1.793,0,2.693c-3.41,1.224-3.752,5.52-6.281,7.627
				c-3.828-2.464-8.217-1.83-11.213-3.59c0.798-5.168,0.026-5.333-0.896-9.871c0.605-0.441,0.896-1.197,1.347-1.796
				c5.685,1.504,6.529-3.739,11.212-1.793C586.931,17.887,589.702,19.305,592.103,21.09z"/>
		</g>
	</g>
</g>
<g id="レイヤー_14">
	<polygon fill="#FFFFFF" points="585.937,30.714 581.337,26.583 575.325,28.029 577.833,22.378 574.6,17.107 580.75,17.746 
		584.763,13.042 586.055,19.089 591.769,21.452 586.419,24.55 	"/>
</g>
<g id="レイヤー_14のコピー">
	<g>
		<g>
			<g>
				<g>
					<defs>
						<rect id="XMLID_22_" x="536.002" y="34.419" width="33.294" height="30.527"/>
					</defs>
					<clipPath id="XMLID_51_">
						<use xlink:href="#XMLID_22_" />
					</clipPath>
					
						<linearGradient id="XMLID_52_" gradientUnits="userSpaceOnUse" x1="3280.7065" y1="520.9004" x2="3280.9233" y2="520.9004" gradientTransform="matrix(176 256 256 -176 -710221 -748158)">
						<stop  offset="0" style="stop-color:#EE7D71"/>
						<stop  offset="0.0033" style="stop-color:#EE7F74"/>
						<stop  offset="0.0532" style="stop-color:#F19A95"/>
						<stop  offset="0.1005" style="stop-color:#F4ADAD"/>
						<stop  offset="0.144" style="stop-color:#F6BABC"/>
						<stop  offset="0.1798" style="stop-color:#F6BEC1"/>
						<stop  offset="0.2689" style="stop-color:#FBDCBF"/>
						<stop  offset="0.3258" style="stop-color:#FBE6BC"/>
						<stop  offset="0.395" style="stop-color:#F9DD9A"/>
						<stop  offset="0.4663" style="stop-color:#F8D57D"/>
						<stop  offset="0.5036" style="stop-color:#EADA85"/>
						<stop  offset="0.5735" style="stop-color:#C9E09E"/>
						<stop  offset="0.6461" style="stop-color:#A9D6B1"/>
						<stop  offset="0.7334" style="stop-color:#B7C0D9"/>
						<stop  offset="0.8258" style="stop-color:#AB81B8"/>
						<stop  offset="1" style="stop-color:#634F9E"/>
					</linearGradient>
					<path clip-path="url(#XMLID_51_)" fill="url(#XMLID_52_)" d="M569.296,46.932c0,1.565,0,3.131,0,4.701
						c-6.174,2.135-6.792,9.635-11.37,13.313c-6.931-4.3-14.877-3.195-20.3-6.266c1.443-9.021,0.047-9.307-1.624-17.229
						c1.096-0.77,1.624-2.09,2.438-3.135c10.291,2.625,11.821-6.526,20.3-3.131C559.933,41.341,564.95,43.816,569.296,46.932z"/>
				</g>
			</g>
		</g>
		<polygon fill="#FFFFFF" points="559.24,63.47 550.519,55.964 539.131,57.615 543.875,48.478 537.74,39.243 549.393,41.102 
			556.989,33.744 559.447,44.029 570.276,48.717 560.142,53.215 		"/>
	</g>
</g>
<g id="レイヤー_14のコピー_2">
	<g>
		<g>
			<g>
				<g>
					<defs>
						
							<rect id="XMLID_25_" x="574.711" y="74.006" transform="matrix(-0.7452 0.6669 -0.6669 -0.7452 1081.8765 -242.5343)" width="25.135" height="22.869"/>
					</defs>
					<clipPath id="XMLID_53_">
						<use xlink:href="#XMLID_25_" />
					</clipPath>
					
						<linearGradient id="XMLID_54_" gradientUnits="userSpaceOnUse" x1="3275.4858" y1="529.2002" x2="3275.6479" y2="529.2002" gradientTransform="matrix(301.8713 73.3874 73.3874 -301.8713 -1027048.25 -80548.0078)">
						<stop  offset="0" style="stop-color:#EE7D71"/>
						<stop  offset="0.0033" style="stop-color:#EE7F74"/>
						<stop  offset="0.0532" style="stop-color:#F19A95"/>
						<stop  offset="0.1005" style="stop-color:#F4ADAD"/>
						<stop  offset="0.144" style="stop-color:#F6BABC"/>
						<stop  offset="0.1798" style="stop-color:#F6BEC1"/>
						<stop  offset="0.2689" style="stop-color:#FBDCBF"/>
						<stop  offset="0.3258" style="stop-color:#FBE6BC"/>
						<stop  offset="0.395" style="stop-color:#F9DD9A"/>
						<stop  offset="0.4663" style="stop-color:#F8D57D"/>
						<stop  offset="0.5036" style="stop-color:#EADA85"/>
						<stop  offset="0.5735" style="stop-color:#C9E09E"/>
						<stop  offset="0.6461" style="stop-color:#A9D6B1"/>
						<stop  offset="0.7334" style="stop-color:#B7C0D9"/>
						<stop  offset="0.8258" style="stop-color:#AB81B8"/>
						<stop  offset="1" style="stop-color:#634F9E"/>
					</linearGradient>
					<path clip-path="url(#XMLID_53_)" fill="url(#XMLID_54_)" d="M595.265,75.551c0.782,0.874,1.564,1.748,2.349,2.624
						c-2.407,4.3,0.992,8.797,0.255,13.155c-6.048,1.088-9.966,5.706-14.549,6.722c-3.694-5.761-4.623-5.219-9.521-8.799
						c0.232-0.982-0.13-1.984-0.195-2.977c7.101-3.714,3.389-9.594,9.854-11.967C587.206,77.144,591.264,76,595.265,75.551z"/>
				</g>
			</g>
		</g>
		<polygon fill="#FFFFFF" points="597.87,89.844 589.214,90.045 583.633,96.699 581.738,89.212 573.673,87.146 581.157,82.316 
			581.754,74.386 588.275,78.889 596.708,76.054 593.254,83.666 		"/>
	</g>
</g>
<g id="レイヤー_14のコピー_3">
	<g>
		<g>
			<g>
				<g>
					<defs>
						
							<rect id="XMLID_28_" x="509.893" y="102.544" transform="matrix(-0.7451 0.6669 -0.6669 -0.7451 987.7828 -149.5175)" width="25.134" height="22.869"/>
					</defs>
					<clipPath id="XMLID_55_">
						<use xlink:href="#XMLID_28_" />
					</clipPath>
					
						<linearGradient id="XMLID_56_" gradientUnits="userSpaceOnUse" x1="3275.3042" y1="529.0615" x2="3275.4663" y2="529.0615" gradientTransform="matrix(301.8713 73.3874 73.3874 -301.8713 -1027048.25 -80548.0078)">
						<stop  offset="0" style="stop-color:#EE7D71"/>
						<stop  offset="0.0033" style="stop-color:#EE7F74"/>
						<stop  offset="0.0532" style="stop-color:#F19A95"/>
						<stop  offset="0.1005" style="stop-color:#F4ADAD"/>
						<stop  offset="0.144" style="stop-color:#F6BABC"/>
						<stop  offset="0.1798" style="stop-color:#F6BEC1"/>
						<stop  offset="0.2689" style="stop-color:#FBDCBF"/>
						<stop  offset="0.3258" style="stop-color:#FBE6BC"/>
						<stop  offset="0.395" style="stop-color:#F9DD9A"/>
						<stop  offset="0.4663" style="stop-color:#F8D57D"/>
						<stop  offset="0.5036" style="stop-color:#EADA85"/>
						<stop  offset="0.5735" style="stop-color:#C9E09E"/>
						<stop  offset="0.6461" style="stop-color:#A9D6B1"/>
						<stop  offset="0.7334" style="stop-color:#B7C0D9"/>
						<stop  offset="0.8258" style="stop-color:#AB81B8"/>
						<stop  offset="1" style="stop-color:#634F9E"/>
					</linearGradient>
					<path clip-path="url(#XMLID_55_)" fill="url(#XMLID_56_)" d="M530.438,104.074c0.782,0.874,1.564,1.748,2.349,2.624
						c-2.406,4.3,0.992,8.798,0.254,13.156c-6.046,1.088-9.964,5.705-14.548,6.722c-3.694-5.762-4.623-5.218-9.521-8.8
						c0.232-0.98-0.13-1.983-0.195-2.977c7.101-3.715,3.389-9.593,9.854-11.967C522.378,105.667,526.437,104.524,530.438,104.074z"
						/>
				</g>
			</g>
		</g>
		<polygon fill="#FFFFFF" points="533.042,118.368 524.388,118.569 518.807,125.223 516.911,117.736 508.846,115.669 
			516.331,110.84 516.927,102.909 523.448,107.412 531.88,104.578 528.427,112.189 		"/>
	</g>
</g>
<g id="レイヤー_14のコピー_4">
	<g>
		<g>
			<g>
				<g>
					<defs>
						
							<rect id="XMLID_31_" x="550.33" y="112.022" transform="matrix(-0.9441 -0.3297 0.3297 -0.9441 1059.5155 436.9076)" width="32.953" height="33.176"/>
					</defs>
					<clipPath id="XMLID_57_">
						<use xlink:href="#XMLID_31_" />
					</clipPath>
					
						<linearGradient id="XMLID_58_" gradientUnits="userSpaceOnUse" x1="3284.9526" y1="522.4834" x2="3285.1155" y2="522.4834" gradientTransform="matrix(95.4152 426.7235 401.067 -130.4158 -522427.0938 -1333530.25)">
						<stop  offset="0" style="stop-color:#EE7D71"/>
						<stop  offset="0.0033" style="stop-color:#EE7F74"/>
						<stop  offset="0.0532" style="stop-color:#F19A95"/>
						<stop  offset="0.1005" style="stop-color:#F4ADAD"/>
						<stop  offset="0.144" style="stop-color:#F6BABC"/>
						<stop  offset="0.1798" style="stop-color:#F6BEC1"/>
						<stop  offset="0.2689" style="stop-color:#FBDCBF"/>
						<stop  offset="0.3258" style="stop-color:#FBE6BC"/>
						<stop  offset="0.395" style="stop-color:#F9DD9A"/>
						<stop  offset="0.4663" style="stop-color:#F8D57D"/>
						<stop  offset="0.5036" style="stop-color:#EADA85"/>
						<stop  offset="0.5735" style="stop-color:#C9E09E"/>
						<stop  offset="0.6461" style="stop-color:#A9D6B1"/>
						<stop  offset="0.7334" style="stop-color:#B7C0D9"/>
						<stop  offset="0.8258" style="stop-color:#AB81B8"/>
						<stop  offset="1" style="stop-color:#634F9E"/>
					</linearGradient>
					<path clip-path="url(#XMLID_57_)" fill="url(#XMLID_58_)" d="M583.331,131.236c-0.562,1.605-1.121,3.212-1.684,4.821
						c-6.534,0.177-9.799,7.669-15.395,9.95c-4.935-6.674-12.757-8.133-16.724-13.053c4.581-8.784,3.378-9.534,4.656-18.207
						c1.299-0.432,2.265-1.614,3.4-2.422c8.675,6.052,13.383-2.839,20.091,3.412C576.585,122.444,580.385,126.62,583.331,131.236z"
						/>
				</g>
			</g>
		</g>
		<polygon fill="#FFFFFF" points="568.008,144.922 562.548,134.375 551.317,132.354 559.022,124.526 556.598,113.05 
			566.822,118.759 576.555,113.688 575.167,125.043 583.607,133.386 572.526,134.695 		"/>
	</g>
</g>
<g id="レイヤー_14のコピー_5">
	<g>
		<g>
			<g>
				<g>
					<defs>
						
							<rect id="XMLID_34_" x="480.27" y="50.876" transform="matrix(-0.9441 -0.3297 0.3297 -0.9441 932.2246 280.3803)" width="19.233" height="20.535"/>
					</defs>
					<clipPath id="XMLID_59_">
						<use xlink:href="#XMLID_34_" />
					</clipPath>
					
						<linearGradient id="XMLID_60_" gradientUnits="userSpaceOnUse" x1="3282.4429" y1="515.9043" x2="3282.605" y2="515.9043" gradientTransform="matrix(51.3537 261.4364 237.0392 -84.6363 -290369.625 -814442)">
						<stop  offset="0" style="stop-color:#EE7D71"/>
						<stop  offset="0.0033" style="stop-color:#EE7F74"/>
						<stop  offset="0.0532" style="stop-color:#F19A95"/>
						<stop  offset="0.1005" style="stop-color:#F4ADAD"/>
						<stop  offset="0.144" style="stop-color:#F6BABC"/>
						<stop  offset="0.1798" style="stop-color:#F6BEC1"/>
						<stop  offset="0.2689" style="stop-color:#FBDCBF"/>
						<stop  offset="0.3258" style="stop-color:#FBE6BC"/>
						<stop  offset="0.395" style="stop-color:#F9DD9A"/>
						<stop  offset="0.4663" style="stop-color:#F8D57D"/>
						<stop  offset="0.5036" style="stop-color:#EADA85"/>
						<stop  offset="0.5735" style="stop-color:#C9E09E"/>
						<stop  offset="0.6461" style="stop-color:#A9D6B1"/>
						<stop  offset="0.7334" style="stop-color:#B7C0D9"/>
						<stop  offset="0.8258" style="stop-color:#AB81B8"/>
						<stop  offset="1" style="stop-color:#634F9E"/>
					</linearGradient>
					<path clip-path="url(#XMLID_59_)" fill="url(#XMLID_60_)" d="M499.57,62.565c-0.347,0.995-0.694,1.989-1.041,2.985
						c-3.841,0.18-5.841,4.825-9.154,6.29c-2.824-4.051-7.403-4.862-9.681-7.845c2.788-5.454,2.091-5.901,2.937-11.25
						c0.768-0.28,1.348-1.019,2.023-1.527c5.03,3.627,7.894-1.894,11.765,1.877C495.705,57.232,497.891,59.758,499.57,62.565z"/>
				</g>
			</g>
		</g>
		<polygon fill="#FFFFFF" points="490.418,71.153 487.327,64.726 480.751,63.605 485.364,58.706 484.066,51.673 490.008,55.073 
			495.783,51.847 494.842,58.846 499.708,63.885 493.185,64.813 		"/>
	</g>
</g>
<g id="レイヤー_14のコピー_6">
	<g>
		<g>
			<g>
				<g>
					<defs>
						
							<rect id="XMLID_37_" x="496.585" y="12.283" transform="matrix(-0.7683 0.6401 -0.6401 -0.7683 909.545 -284.1432)" width="19.231" height="20.535"/>
					</defs>
					<clipPath id="XMLID_61_">
						<use xlink:href="#XMLID_37_" />
					</clipPath>
					
						<linearGradient id="XMLID_62_" gradientUnits="userSpaceOnUse" x1="3272.313" y1="525.8301" x2="3272.4768" y2="525.8301" gradientTransform="matrix(250.6226 90.4129 49.3219 -246.8162 -845564.625 -166059.875)">
						<stop  offset="0" style="stop-color:#EE7D71"/>
						<stop  offset="0.0033" style="stop-color:#EE7F74"/>
						<stop  offset="0.0532" style="stop-color:#F19A95"/>
						<stop  offset="0.1005" style="stop-color:#F4ADAD"/>
						<stop  offset="0.144" style="stop-color:#F6BABC"/>
						<stop  offset="0.1798" style="stop-color:#F6BEC1"/>
						<stop  offset="0.2689" style="stop-color:#FBDCBF"/>
						<stop  offset="0.3258" style="stop-color:#FBE6BC"/>
						<stop  offset="0.395" style="stop-color:#F9DD9A"/>
						<stop  offset="0.4663" style="stop-color:#F8D57D"/>
						<stop  offset="0.5036" style="stop-color:#EADA85"/>
						<stop  offset="0.5735" style="stop-color:#C9E09E"/>
						<stop  offset="0.6461" style="stop-color:#A9D6B1"/>
						<stop  offset="0.7334" style="stop-color:#B7C0D9"/>
						<stop  offset="0.8258" style="stop-color:#AB81B8"/>
						<stop  offset="1" style="stop-color:#634F9E"/>
					</linearGradient>
					<path clip-path="url(#XMLID_61_)" fill="url(#XMLID_62_)" d="M512.42,15.002c0.674,0.809,1.348,1.618,2.023,2.429
						c-1.82,3.386,1.135,7.491,0.688,11.083c-4.928,0.34-7.979,3.85-11.707,4.267c-3.243-5.195-3.986-4.827-8.139-8.303
						c0.154-0.803-0.181-1.681-0.269-2.521c5.696-2.448,2.435-7.744,7.659-9.124C505.858,15.575,509.15,14.998,512.42,15.002z"/>
				</g>
			</g>
		</g>
		<polygon fill="#FFFFFF" points="515.078,27.267 507.976,26.612 503.634,31.676 501.804,25.201 495.105,22.696 501.078,19.348 
			501.28,12.737 506.799,17.143 513.624,15.562 511.064,21.633 		"/>
	</g>
</g>
<g id="レイヤー_14のコピー_7">
	<g>
		<g>
			<g>
				<g>
					<defs>
						
							<rect id="XMLID_40_" x="534.643" y="7.556" transform="matrix(-0.7683 0.6401 -0.6401 -0.7683 973.8166 -316.8618)" width="19.231" height="20.535"/>
					</defs>
					<clipPath id="XMLID_63_">
						<use xlink:href="#XMLID_40_" />
					</clipPath>
					
						<linearGradient id="XMLID_64_" gradientUnits="userSpaceOnUse" x1="3272.438" y1="525.9004" x2="3272.6011" y2="525.9004" gradientTransform="matrix(250.6226 90.4129 49.3219 -246.8162 -845564.625 -166059.875)">
						<stop  offset="0" style="stop-color:#EE7D71"/>
						<stop  offset="0.0033" style="stop-color:#EE7F74"/>
						<stop  offset="0.0532" style="stop-color:#F19A95"/>
						<stop  offset="0.1005" style="stop-color:#F4ADAD"/>
						<stop  offset="0.144" style="stop-color:#F6BABC"/>
						<stop  offset="0.1798" style="stop-color:#F6BEC1"/>
						<stop  offset="0.2689" style="stop-color:#FBDCBF"/>
						<stop  offset="0.3258" style="stop-color:#FBE6BC"/>
						<stop  offset="0.395" style="stop-color:#F9DD9A"/>
						<stop  offset="0.4663" style="stop-color:#F8D57D"/>
						<stop  offset="0.5036" style="stop-color:#EADA85"/>
						<stop  offset="0.5735" style="stop-color:#C9E09E"/>
						<stop  offset="0.6461" style="stop-color:#A9D6B1"/>
						<stop  offset="0.7334" style="stop-color:#B7C0D9"/>
						<stop  offset="0.8258" style="stop-color:#AB81B8"/>
						<stop  offset="1" style="stop-color:#634F9E"/>
					</linearGradient>
					<path clip-path="url(#XMLID_63_)" fill="url(#XMLID_64_)" d="M550.459,10.247c0.675,0.809,1.349,1.618,2.024,2.43
						c-1.821,3.386,1.135,7.49,0.687,11.084c-4.928,0.339-7.979,3.848-11.707,4.267c-3.243-5.195-3.986-4.827-8.139-8.303
						c0.155-0.803-0.18-1.68-0.269-2.521c5.697-2.448,2.436-7.744,7.66-9.124C543.897,10.82,547.189,10.244,550.459,10.247z"/>
				</g>
			</g>
		</g>
		<polygon fill="#FFFFFF" points="553.118,22.512 546.016,21.857 541.674,26.921 539.844,20.445 533.145,17.941 539.117,14.593 
			539.32,7.982 544.838,12.388 551.663,10.807 549.103,16.878 		"/>
	</g>
</g>
<g id="レイヤー_24">
	<g id="XMLID_17_">
		<g>
			<path d="M277.213,50.707c-2.624,2.46-7.077,3.093-10.766,4.487c0.25,0.914,1.349,0.879,0.448,1.793
				c-1.772,0.078,0.145-0.689-0.897-1.347c-1.986,3.405,2.127,10.558,2.244,16.156c-2.317-3.666-3.225-8.74-4.485-13.463
				c-2.51,0.783-1.978,4.604-4.487,5.386c0.951-2.04,1.824-4.158,2.691-6.283c-3.618-0.623-8.237,1.627-12.11,2.243
				c2.669-2.864,7.506-3.56,11.663-4.936c0.234-0.886-2.646-1.195-0.449-1.347c-2.423,0.013-4.829-2.617-7.626-3.59
				c2.647-0.696,5.414,2.356,8.075,3.143c0.417-4.461-2.271-9.692-2.69-14.81c2.589,3.992,3.467,9.695,4.934,14.81
				c2.289-1.451,2.263-5.215,4.935-6.283c-1.048,1.794-1.76,3.925-2.693,5.833C269.36,53.315,273.279,50.815,277.213,50.707z
				 M265.101,54.744c1.622-0.173,2.994-0.595,4.038-1.347C267.528,53.581,265.663,53.512,265.101,54.744z M265.55,61.924
				c-0.525-1.868-0.37-4.417-1.794-5.384C264.087,58.315,264.979,61.876,265.55,61.924z M263.756,56.09
				c0.005-0.89,1.223-0.57,0.897-1.793c-0.672,0.075-1.656-0.162-1.794,0.448C263.599,54.75,263.11,55.989,263.756,56.09z
				 M261.513,47.564c0.586,1.82,0.666,6.499,2.244,5.833C262.457,52.003,262.747,49.021,261.513,47.564z M262.859,55.194
				c-1.885-0.072-4.874,1.084-4.487,1.793C259.533,56.054,262.285,56.713,262.859,55.194z"/>
			<path d="M274.522,61.027c-2.596-1.144-4.781-2.697-7.627-3.59C268.883,55.829,272.734,59.505,274.522,61.027z"/>
			<path fill="#FFFFFF" d="M269.138,53.397c-1.043,0.752-2.416,1.174-4.038,1.347C265.663,53.512,267.528,53.581,269.138,53.397z"/>
			<path fill="#FFFFFF" d="M263.756,56.54c1.424,0.966,1.269,3.516,1.793,5.384C264.979,61.876,264.087,58.315,263.756,56.54z"/>
			<path fill="#FFFFFF" d="M264.653,54.296c0.326,1.224-0.892,0.903-0.897,1.793c-0.646-0.101-0.158-1.34-0.897-1.346
				C262.998,54.134,263.981,54.372,264.653,54.296z"/>
			<path fill="#FFFFFF" d="M263.756,53.397c-1.578,0.666-1.658-4.013-2.244-5.833C262.747,49.021,262.457,52.003,263.756,53.397z"/>
			<path fill="#FFFFFF" d="M258.372,56.987c-0.387-0.709,2.603-1.865,4.487-1.793C262.285,56.713,259.533,56.054,258.372,56.987z"/>
			<path d="M105.86,94.681c-2.593-1.143-4.779-2.697-7.625-3.59C100.224,89.483,104.075,93.16,105.86,94.681z"/>
			<path d="M96.441,86.602c0-0.004,0-0.006,0.002-0.011c0.141,0.021,0.29,0.026,0.447,0.013c-0.084-0.501-0.438-0.257-0.447-0.013
				c0,0-0.002,0-0.004,0c-0.329-1.85,1.812-5.055,3.59-6.27c-0.951,2.04-1.824,4.158-2.69,6.283
				c2.785,0.088,7.469-1.796,11.215-2.244c-2.884,3.052-10.915,3.858-12.112,5.833c1.142,4.992,1.98,10.286,3.588,14.807
				c-2.818-1.692-4.167-11.054-5.381-14.358c-0.865,1.811-1.569,4.53-3.141,6.73c-0.8-2.01,1.621-4.653,2.244-6.73
				c-4.751,0.333-8.105,2.062-12.56,2.691c2.727-2.806,7.677-3.389,11.663-4.934c-1.323-1.984-4.723-2.896-8.075-4.937
				c2.907-0.3,7.619,2.633,8.522,4.487c0.043-4.681-2.446-10.711-3.14-16.153c1.796,1.518,2.241,5.168,3.14,8.077
				c0.798,2.577,1.029,6.413,3.139,6.717C96.439,86.595,96.441,86.598,96.441,86.602z M96.891,88.848
				c0.869-0.923,2.717-0.871,3.588-1.794C99.204,87.295,95.631,87.56,96.891,88.848z M95.544,90.194
				c-0.646,0.866,0.802,5.31,1.347,4.936C96.296,93.631,96.34,91.493,95.544,90.194z M93.301,82.567
				c0.196,1.617,0.488,5.47,1.793,4.487C94.148,85.906,94.395,83.565,93.301,82.567z M89.713,90.644
				c1.161-0.934,3.912-0.277,4.485-1.796C92.622,89.083,89.264,89.873,89.713,90.644z"/>
			<path fill="#FFFFFF" d="M100.479,87.054c-0.871,0.923-2.719,0.871-3.588,1.794C95.631,87.56,99.204,87.295,100.479,87.054z"/>
			<path fill="#FFFFFF" d="M96.891,95.131c-0.544,0.374-1.993-4.07-1.347-4.937C96.34,91.493,96.296,93.631,96.891,95.131z"/>
			<path fill="#FFFFFF" d="M96.891,86.604c-0.158,0.013-0.307,0.008-0.447-0.013C96.452,86.347,96.806,86.103,96.891,86.604z"/>
			<path fill="#FFFFFF" d="M96.443,86.591c-0.002,0.004-0.002,0.007-0.002,0.011c0-0.004-0.002-0.006-0.002-0.011
				C96.441,86.591,96.443,86.591,96.443,86.591z"/>
			<path fill="#FFFFFF" d="M95.095,87.054c-1.305,0.983-1.597-2.87-1.793-4.487C94.395,83.565,94.148,85.906,95.095,87.054z"/>
			<path fill="#FFFFFF" d="M94.198,88.848c-0.573,1.519-3.324,0.862-4.485,1.796C89.264,89.873,92.622,89.083,94.198,88.848z"/>
		</g>
	</g>
</g>
<g id="レイヤー_24のコピー">
	<g id="XMLID_11_">
		<g>
			<path fill="#FFF100" d="M277.213,50.707c-2.624,2.46-7.077,3.093-10.766,4.487c0.25,0.914,1.349,0.879,0.448,1.793
				c-1.772,0.078,0.145-0.689-0.897-1.347c-1.986,3.405,2.127,10.558,2.244,16.156c-2.317-3.666-3.225-8.74-4.485-13.463
				c-2.51,0.783-1.978,4.604-4.487,5.386c0.951-2.04,1.824-4.158,2.691-6.283c-3.618-0.623-8.237,1.627-12.11,2.243
				c2.669-2.864,7.506-3.56,11.663-4.936c0.234-0.886-2.646-1.195-0.449-1.347c-2.423,0.013-4.829-2.617-7.626-3.59
				c2.647-0.696,5.414,2.356,8.075,3.143c0.417-4.461-2.271-9.692-2.69-14.81c2.589,3.992,3.467,9.695,4.934,14.81
				c2.289-1.451,2.263-5.215,4.935-6.283c-1.048,1.794-1.76,3.925-2.693,5.833C269.36,53.315,273.279,50.815,277.213,50.707z
				 M265.101,54.744c1.622-0.173,2.994-0.595,4.038-1.347C267.528,53.581,265.663,53.512,265.101,54.744z M265.55,61.924
				c-0.525-1.868-0.37-4.417-1.794-5.384C264.087,58.315,264.979,61.876,265.55,61.924z M263.756,56.09
				c0.005-0.89,1.223-0.57,0.897-1.793c-0.672,0.075-1.656-0.162-1.794,0.448C263.599,54.75,263.11,55.989,263.756,56.09z
				 M261.513,47.564c0.586,1.82,0.666,6.499,2.244,5.833C262.457,52.003,262.747,49.021,261.513,47.564z M262.859,55.194
				c-1.885-0.072-4.874,1.084-4.487,1.793C259.533,56.054,262.285,56.713,262.859,55.194z"/>
			<path fill="#FFF100" d="M274.522,61.027c-2.596-1.144-4.781-2.697-7.627-3.59C268.883,55.829,272.734,59.505,274.522,61.027z"/>
			<path fill="#FFF100" d="M269.138,53.397c-1.043,0.752-2.416,1.174-4.038,1.347C265.663,53.512,267.528,53.581,269.138,53.397z"/>
			<path fill="#FFF100" d="M263.756,56.54c1.424,0.966,1.269,3.516,1.793,5.384C264.979,61.876,264.087,58.315,263.756,56.54z"/>
			<path fill="#FFF100" d="M264.653,54.296c0.326,1.224-0.892,0.903-0.897,1.793c-0.646-0.101-0.158-1.34-0.897-1.346
				C262.998,54.134,263.981,54.372,264.653,54.296z"/>
			<path fill="#FFF100" d="M263.756,53.397c-1.578,0.666-1.658-4.013-2.244-5.833C262.747,49.021,262.457,52.003,263.756,53.397z"/>
			<path fill="#FFF100" d="M258.372,56.987c-0.387-0.709,2.603-1.865,4.487-1.793C262.285,56.713,259.533,56.054,258.372,56.987z"/>
			<path fill="#FFF100" d="M105.86,94.681c-2.593-1.143-4.779-2.697-7.625-3.59C100.224,89.483,104.075,93.16,105.86,94.681z"/>
			<path fill="#FFF100" d="M96.441,86.602c0-0.004,0-0.006,0.002-0.011c0.141,0.021,0.29,0.026,0.447,0.013
				c-0.084-0.501-0.438-0.257-0.447-0.013c0,0-0.002,0-0.004,0c-0.329-1.85,1.812-5.055,3.59-6.27
				c-0.951,2.04-1.824,4.158-2.69,6.283c2.785,0.088,7.469-1.796,11.215-2.244c-2.884,3.052-10.915,3.858-12.112,5.833
				c1.142,4.992,1.98,10.286,3.588,14.807c-2.818-1.692-4.167-11.054-5.381-14.358c-0.865,1.811-1.569,4.53-3.141,6.73
				c-0.8-2.01,1.621-4.653,2.244-6.73c-4.751,0.333-8.105,2.062-12.56,2.691c2.727-2.806,7.677-3.389,11.663-4.934
				c-1.323-1.984-4.723-2.896-8.075-4.937c2.907-0.3,7.619,2.633,8.522,4.487c0.043-4.681-2.446-10.711-3.14-16.153
				c1.796,1.518,2.241,5.168,3.14,8.077c0.798,2.577,1.029,6.413,3.139,6.717C96.439,86.595,96.441,86.598,96.441,86.602z
				 M96.891,88.848c0.869-0.923,2.717-0.871,3.588-1.794C99.204,87.295,95.631,87.56,96.891,88.848z M95.544,90.194
				c-0.646,0.866,0.802,5.31,1.347,4.936C96.296,93.631,96.34,91.493,95.544,90.194z M93.301,82.567
				c0.196,1.617,0.488,5.47,1.793,4.487C94.148,85.906,94.395,83.565,93.301,82.567z M89.713,90.644
				c1.161-0.934,3.912-0.277,4.485-1.796C92.622,89.083,89.264,89.873,89.713,90.644z"/>
			<path fill="#FFF100" d="M100.479,87.054c-0.871,0.923-2.719,0.871-3.588,1.794C95.631,87.56,99.204,87.295,100.479,87.054z"/>
			<path fill="#FFF100" d="M96.891,95.131c-0.544,0.374-1.993-4.07-1.347-4.937C96.34,91.493,96.296,93.631,96.891,95.131z"/>
			<path fill="#FFF100" d="M96.891,86.604c-0.158,0.013-0.307,0.008-0.447-0.013C96.452,86.347,96.806,86.103,96.891,86.604z"/>
			<path fill="#FFF100" d="M96.443,86.591c-0.002,0.004-0.002,0.007-0.002,0.011c0-0.004-0.002-0.006-0.002-0.011
				C96.441,86.591,96.443,86.591,96.443,86.591z"/>
			<path fill="#FFF100" d="M95.095,87.054c-1.305,0.983-1.597-2.87-1.793-4.487C94.395,83.565,94.148,85.906,95.095,87.054z"/>
			<path fill="#FFF100" d="M94.198,88.848c-0.573,1.519-3.324,0.862-4.485,1.796C89.264,89.873,92.622,89.083,94.198,88.848z"/>
		</g>
		<g>
			<path fill="none" stroke="#FFFFFF" d="M95.544,90.194c0.796,1.299,0.752,3.436,1.347,4.936
				C96.346,95.504,94.898,91.061,95.544,90.194z"/>
			<path fill="none" stroke="#FFFFFF" d="M94.198,88.848c-0.573,1.519-3.324,0.862-4.485,1.796
				C89.264,89.873,92.622,89.083,94.198,88.848z"/>
			<path fill="none" stroke="#FFFFFF" d="M100.479,87.054c-0.871,0.923-2.719,0.871-3.588,1.794
				C95.631,87.56,99.204,87.295,100.479,87.054z"/>
			<path fill="none" stroke="#FFFFFF" d="M93.301,82.567c1.093,0.999,0.847,3.339,1.793,4.487
				C93.79,88.037,93.498,84.183,93.301,82.567z"/>
			<path fill="none" stroke="#FFFFFF" d="M105.86,94.681c-2.593-1.143-4.779-2.697-7.625-3.59
				C100.224,89.483,104.075,93.16,105.86,94.681z"/>
			<path fill="none" stroke="#FFFFFF" d="M96.443,86.591c-0.002,0.004-0.002,0.007-0.002,0.013v-0.002
				c0-0.004-0.002-0.006-0.002-0.011"/>
			<path fill="none" stroke="#FFFFFF" d="M96.443,86.591c0.141,0.021,0.29,0.026,0.447,0.013
				C96.806,86.103,96.452,86.347,96.443,86.591z"/>
			<path fill="none" stroke="#FFFFFF" d="M96.439,86.591c0.002,0,0.004,0,0.004,0"/>
			<path fill="none" stroke="#FFFFFF" d="M93.301,87.951c0.043-4.681-2.447-10.711-3.141-16.153
				c1.796,1.518,2.241,5.168,3.141,8.077c0.797,2.577,1.028,6.413,3.138,6.717c-0.329-1.85,1.811-5.055,3.59-6.27
				c-0.951,2.04-1.824,4.158-2.69,6.283c2.785,0.088,7.469-1.796,11.215-2.244c-2.884,3.052-10.915,3.858-12.112,5.833
				c1.142,4.993,1.98,10.286,3.588,14.808c-2.818-1.692-4.167-11.054-5.382-14.358c-0.864,1.811-1.569,4.53-3.14,6.73
				c-0.8-2.01,1.621-4.653,2.243-6.73c-4.75,0.333-8.105,2.062-12.559,2.691c2.727-2.806,7.677-3.389,11.663-4.935
				c-1.323-1.984-4.723-2.896-8.075-4.937C87.686,83.163,92.397,86.097,93.301,87.951z"/>
			<path fill="none" stroke="#FFFFFF" d="M274.522,61.027c-2.596-1.144-4.781-2.697-7.627-3.59
				C268.883,55.829,272.734,59.505,274.522,61.027z"/>
			<path fill="none" stroke="#FFFFFF" d="M263.756,56.54c1.424,0.966,1.269,3.516,1.793,5.384
				C264.979,61.876,264.087,58.315,263.756,56.54z"/>
			<path fill="none" stroke="#FFFFFF" d="M262.859,55.194c-0.575,1.519-3.327,0.86-4.487,1.793
				C257.985,56.278,260.975,55.122,262.859,55.194z"/>
			<path fill="none" stroke="#FFFFFF" d="M262.859,54.744c0.138-0.61,1.122-0.372,1.794-0.448c0.326,1.224-0.892,0.903-0.897,1.793
				C263.11,55.989,263.599,54.75,262.859,54.744z"/>
			<path fill="none" stroke="#FFFFFF" d="M269.138,53.397c-1.043,0.752-2.416,1.174-4.038,1.347
				C265.663,53.512,267.528,53.581,269.138,53.397z"/>
			<path fill="none" stroke="#FFFFFF" d="M261.513,47.564c1.234,1.457,0.944,4.439,2.244,5.833
				C262.178,54.063,262.099,49.384,261.513,47.564z"/>
			<path fill="none" stroke="#FFFFFF" d="M253.438,49.808c2.648-0.696,5.414,2.356,8.075,3.142c0.417-4.46-2.271-9.691-2.69-14.809
				c2.589,3.992,3.467,9.695,4.934,14.809c2.289-1.45,2.263-5.215,4.935-6.283c-1.048,1.794-1.759,3.925-2.693,5.833
				c3.363,0.815,7.282-1.686,11.215-1.794c-2.624,2.46-7.077,3.093-10.766,4.487c0.251,0.914,1.349,0.879,0.448,1.793
				c-1.772,0.078,0.145-0.689-0.897-1.347c-1.986,3.405,2.126,10.558,2.244,16.156c-2.317-3.666-3.225-8.741-4.485-13.462
				c-2.509,0.782-1.978,4.603-4.487,5.386c0.951-2.04,1.824-4.158,2.691-6.283c-3.618-0.623-8.237,1.627-12.11,2.244
				c2.669-2.864,7.506-3.56,11.663-4.937c0.234-0.886-2.646-1.195-0.449-1.347C258.641,53.411,256.234,50.78,253.438,49.808z"/>
		</g>
	</g>
</g>
</svg>
