<?xml version="1.0" encoding="utf-8"?>
<!-- Generator: Adobe Illustrator 12.0.0, SVG Export Plug-In . SVG Version: 6.00 Build 51448)  -->
<!DOCTYPE svg PUBLIC "-//W3C//DTD SVG 1.1//EN" "http://www.w3.org/Graphics/SVG/1.1/DTD/svg11.dtd" [
	<!ENTITY ns_svg "http://www.w3.org/2000/svg">
	<!ENTITY ns_xlink "http://www.w3.org/1999/xlink">
]>
<svg  version="1.1" id="レイヤー_1" xmlns="&ns_svg;" xmlns:xlink="&ns_xlink;" 
	 viewBox="0 0 1368.906 661.151" overflow="visible" enable-background="new 0 0 1368.906 661.151" xml:space="preserve">
<g id="XMLID_5_">
	<g>
		<path fill="#FFFFFF" d="M1288.965,407.181c-1.105-19.217-11.367-31.711-17.399-47.184c-2.013-5.161-4.033-11.148-1.858-17.278
			c2.815-1.484,6.117-2.276,9.291-3.19c9.819-2.841,20.201-5.145,28.38-9.304c10.677-5.433,19.7-12.854,23.986-23.392
			c2.407-5.915,2.71-12.721,1.521-18.874c-3.519-18.22-13.894-31.777-20.271-47.45c-0.704-0.105-1.098,0.471-1.521,0.798
			c-5.807,4.513-8.805,9.979-13.852,15.285c-1.569,1.65-4.055,4.292-6.25,4.652c-3.027,0.493-6.37-1.152-9.291-1.728
			c-21.756-4.314-49.924-2.796-70.104,1.329c-1.387-0.609-2.048-1.838-2.872-2.791c-6.123-7.138-13.288-13.884-19.088-21.133
			c48.03,0,96.062,0,144.092,0c0,86.88,0,173.76,0,260.64c-57.04,0-114.08,0-171.12,0c0-65.215,0-130.431,0-195.646
			c2.288,22.135,21.988,31.223,46.454,35.621c6.293,1.13,13.021,2.01,19.089,3.057c1.984,0.344,4.216,0.504,5.912,1.462
			c-6.891,26.395-14.119,52.722-16.386,83.07c-1.119,14.98-0.683,31.782,3.21,44.393c1.921,6.208,4.892,11.817,9.122,16.746
			c4.047,4.713,9.86,9.133,17.061,10.634c9.108,1.894,17.604-1.445,23.143-4.652c5.905-3.417,11.044-7.842,15.203-12.095
			c9.017-9.204,16.337-19.527,22.636-30.171c6.455-10.899,12.128-22.545,16.386-35.089c4.244-12.482,8.721-26.494,6.251-41.867
			c-1.316,0.227-2.238,1.102-3.21,1.728c-7.595,4.885-13.07,11.475-16.724,19.405c-6.313,13.707-5.638,32.713-9.46,48.114
			c-1.288,5.194-3.202,9.73-5.743,14.089c-4.399,7.554-10.952,13.196-18.582,17.942c-1.133,0.709-2.175,1.551-3.378,1.729
			C1283.095,456.823,1290.527,434.233,1288.965,407.181z"/>
		<path d="M1288.965,407.181c1.563,27.053-5.87,49.643-15.372,68.849c1.203-0.178,2.245-1.02,3.378-1.729
			c7.63-4.746,14.183-10.389,18.582-17.942c2.541-4.358,4.455-8.895,5.743-14.089c3.822-15.401,3.146-34.407,9.46-48.114
			c3.653-7.931,9.129-14.521,16.724-19.405c0.972-0.626,1.894-1.501,3.21-1.728c2.47,15.373-2.007,29.385-6.251,41.867
			c-4.258,12.544-9.931,24.189-16.386,35.089c-6.299,10.644-13.619,20.967-22.636,30.171c-4.159,4.253-9.298,8.678-15.203,12.095
			c-5.539,3.207-14.034,6.546-23.143,4.652c-7.2-1.501-13.014-5.921-17.061-10.634c-4.23-4.929-7.201-10.538-9.122-16.746
			c-3.893-12.61-4.329-29.412-3.21-44.393c2.267-30.349,9.495-56.676,16.386-83.07c-1.696-0.958-3.928-1.118-5.912-1.462
			c-6.067-1.047-12.796-1.927-19.089-3.057c-24.466-4.397-44.166-13.485-46.454-35.621c0-1.772,0-3.544,0-5.316
			c0.493-5.466,1.964-11.203,3.886-16.348c4.617-12.377,11.388-22.966,17.398-33.893c1.803-3.273,3.315-6.723,5.575-9.304
			c0-0.044,0-0.088,0-0.133c0.056,0,0.112,0,0.169,0c5.8,7.249,12.965,13.995,19.088,21.133c0.824,0.953,1.485,2.182,2.872,2.791
			c20.18-4.125,48.348-5.643,70.104-1.329c2.921,0.576,6.264,2.221,9.291,1.728c2.195-0.36,4.681-3.001,6.25-4.652
			c5.047-5.306,8.045-10.771,13.852-15.285c0.423-0.327,0.816-0.903,1.521-0.798c6.377,15.673,16.752,29.229,20.271,47.45
			c1.189,6.153,0.887,12.959-1.521,18.874c-4.286,10.539-13.31,17.959-23.986,23.392c-8.179,4.159-18.561,6.463-28.38,9.304
			c-3.174,0.914-6.476,1.706-9.291,3.19c-2.175,6.13-0.154,12.117,1.858,17.278C1277.598,375.47,1287.859,387.964,1288.965,407.181z
			"/>
		<path fill="#FFFFFF" d="M1189.469,237.054c-2.26,2.581-3.772,6.031-5.575,9.304c-6.011,10.927-12.781,21.515-17.398,33.893
			c-1.922,5.145-3.393,10.882-3.886,16.348c0-19.893,0-39.785,0-59.677c8.953,0,17.906,0,26.859,0
			C1189.469,236.965,1189.469,237.009,1189.469,237.054z"/>
	</g>
	<g>
	</g>
</g>
<path d="M914.359,464.875c-3.975,2.308-8.649,3.459-14.026,3.459c-8.067,0-15.088-2.728-21.062-8.187
	c-5.965-5.445-9.683-11.246-9.612-22.582h0.304c0-1.384,0.738-7.472,0.738-8.235c0,0.764,0,1.506,0,2.239
	c0.918-4.524,3.102-8.128,6.561-10.806c3.917-3.031,8.359-4.549,13.322-4.549c3.229,0,6.325,0.754,9.286,2.258
	c2.96,1.504,5.188,3.572,6.683,6.204c0.957,1.693,1.587,4.607,1.885,8.744c0,0-29.861,3.482-29.91,4.862l0.302,0.001
	c0,0,28.078,7.426,37.438,6.551c9.359-0.872,10.793-7.27,10.793-7.27c0-8.013-2.957-14.411-8.866-19.196
	c-5.908-4.783-13.461-7.178-22.652-7.178c-10.865,0-19.896,3.099-27.087,9.294c-7.192,6.196-10.788,14.831-10.788,25.902
	c0,10.227,3.507,18.365,10.519,24.42c7.014,6.056,15.446,9.081,25.297,9.081c9.072,0,16.625-2.64,22.653-7.922
	c6.028-5.28,9.672-11.169,10.925-17.669l-2.706-1.411C921.663,458.572,918.333,462.567,914.359,464.875z"/>
<path d="M720.484,364.348h33.01l74.585,82.272v-56.708c0-6.73-0.847-5.686-2.54-7.355c-2.239-2.26-5.779-3.392-10.615-3.392h-4.267
	v-3.024l21.673-19.794l21.162,19.794v3.024h-4.354c-5.205,0-8.894,1.399-11.072,4.2c-1.33,1.723-1.995,0.411-1.995,6.547v86.115
	h-3.269l-80.321-88.473v61.781c0,6.729,0.816,6.343,2.45,8.011c2.296,2.262,5.836,3.391,10.615,3.391h4.355v3.025l-21.8,12.8
	l-21.034-12.8v-3.025h4.265c5.262,0,8.983-1.399,11.161-4.199c1.328-1.721,1.995-1.064,1.995-7.202V378.75
	c-3.536-3.711-6.219-6.159-8.046-7.343c-1.829-1.184-4.511-2.286-8.046-3.309c-1.739-0.483-4.376-0.727-7.912-0.727V364.348z"/>
<path d="M672.549,378.434c14.911,0,26.884,4.555,35.919,13.664c7.67,7.787,11.507,16.724,11.507,26.814
	c0,7.094-2.115,14.273-6.346,21.537c-4.231,7.265-10.057,12.743-17.475,16.434c-7.421,3.687-15.685,5.534-24.789,5.534
	c-14.841,0-26.635-4.758-35.38-14.271c-7.384-8.013-11.076-17.009-11.076-26.986c0-7.264,2.238-14.484,6.722-21.665
	c4.479-7.178,10.377-12.484,17.69-15.915C656.631,380.148,664.376,378.434,672.549,378.434z M669.227,384.114
	c-3.79,0-7.598,0.909-11.42,2.723c-3.826,1.815-6.916,4.999-9.274,9.55c-2.36,4.551-3.538,10.398-3.538,17.542
	c0,11.525,2.838,21.464,8.522,29.817c5.683,8.353,13.169,12.529,22.464,12.529c6.935,0,12.651-2.303,17.155-6.913
	c4.501-4.608,6.755-12.53,6.755-23.767c0-14.057-3.754-25.118-11.259-33.186C683.557,386.88,677.087,384.114,669.227,384.114z"/>
<path d="M1108.234,378.434c14.911,0,26.884,4.555,35.919,13.664c7.669,7.787,11.507,16.724,11.507,26.814
	c0,7.094-2.115,14.273-6.346,21.537c-4.231,7.265-10.057,12.743-17.475,16.434c-7.421,3.687-15.685,5.534-24.789,5.534
	c-14.841,0-26.635-4.758-35.38-14.271c-7.385-8.013-11.076-17.009-11.076-26.986c0-7.264,2.238-14.484,6.722-21.665
	c4.479-7.178,10.377-12.484,17.689-15.915C1092.316,380.148,1100.062,378.434,1108.234,378.434z M1104.912,384.114
	c-3.79,0-7.598,0.909-11.42,2.723c-3.826,1.815-6.916,4.999-9.274,9.55c-2.36,4.551-3.539,10.398-3.539,17.542
	c0,11.525,2.839,21.464,8.523,29.817c5.683,8.353,13.169,12.529,22.464,12.529c6.935,0,12.651-2.303,17.155-6.913
	c4.501-4.608,6.755-12.53,6.755-23.767c0-14.057-3.755-25.118-11.259-33.186C1119.242,386.88,1112.772,384.114,1104.912,384.114z"/>
<path d="M391.017,449.733l-42.413-40.175l16.866-15.617c9.831-9.351,15.344-14.529,16.539-15.542
	c4.121-3.552,7.592-6.126,10.411-7.725c2.82-1.599,5.206-2.677,7.158-3.235c1.952-0.557,4.121-0.862,6.508-0.913v-2.834h-40.548
	v2.834h2.521c2.711,0,4.636,0.442,5.774,1.329c1.139,0.885,1.708,1.908,1.708,3.072c0,1.518-0.731,3.29-2.196,5.313
	c-3.364,4.605-13.103,13.787-29.216,27.551c-6.35,5.463-10.064,8.676-11.148,9.637v-31.516c0-5.053,0.327-8.387,0.985-10.004
	c0.655-1.615,1.832-2.828,3.529-3.638c2.408-1.162,4.898-1.744,7.472-1.744h3.775v-2.834h-47.141v2.834h3.899
	c2.599,0,5.091,0.607,7.475,1.82c1.679,0.911,2.79,1.972,3.332,3.183c0.703,1.719,1.056,5.179,1.056,10.383v66.54
	c0,6.166-0.65,10.057-1.95,11.672c-2.058,2.477-5.361,3.715-9.912,3.715h-3.899v2.834h21.661h25.479v-2.834h-3.775
	c-2.628,0-5.117-0.605-7.472-1.82c-1.751-0.91-2.901-1.995-3.448-3.258c-0.712-1.666-1.066-5.104-1.066-10.309V415.25l47.711,37.856
	c4.232,3.019-11.151,16.079,15.57,21.464c8.992,1.813,23.371,0.521,37.141-0.94C426.875,459.779,418.081,443.856,391.017,449.733z"
	/>
<path d="M433.403,473.63c0.077,0.163,0.152,0.324,0.229,0.486c0.09-0.152,0.142-0.331,0.169-0.529
	C433.668,473.602,433.537,473.615,433.403,473.63z"/>
<path d="M1012.339,426.484l-32.458-29.932l12.908-11.635c7.522-6.966,11.741-10.824,12.656-11.578
	c3.153-2.646,5.81-4.564,7.968-5.756c2.157-1.191,3.983-1.994,5.478-2.41c1.493-0.415,3.154-0.643,4.979-0.68v-2.112h-31.029v2.112
	h1.929c2.076,0,3.549,0.329,4.42,0.989c0.872,0.659,1.307,1.422,1.307,2.289c0,1.132-0.56,2.451-1.68,3.958
	c-2.575,3.432-10.027,10.271-22.359,20.525c-4.858,4.07-7.701,6.464-8.531,7.18v-23.479c0-3.765,0.251-6.249,0.755-7.454
	c0.5-1.203,1.401-2.106,2.7-2.71c1.844-0.866,3.749-1.299,5.718-1.299h2.89v-2.112h-36.075v2.112h2.984
	c1.989,0,3.896,0.451,5.72,1.355c1.285,0.679,2.136,1.469,2.551,2.371c0.538,1.279,0.807,3.858,0.807,7.736v49.572
	c0,4.594-0.498,7.493-1.491,8.696c-1.576,1.845-4.104,2.768-7.586,2.768h-2.984v2.111h16.577h19.498v-2.111h-2.89
	c-2.011,0-3.916-0.451-5.718-1.356c-1.34-0.678-2.22-1.486-2.639-2.428c-0.544-1.24-0.816-3.802-0.816-7.68v-24.736l36.512,28.204
	c3.239,2.249-8.533,11.979,11.915,15.99c6.883,1.352,17.886,0.39,28.424-0.699C1039.779,433.969,1033.05,422.106,1012.339,426.484z"
	/>
<path d="M1044.776,444.288c0.058,0.121,0.116,0.24,0.175,0.362c0.068-0.114,0.107-0.247,0.129-0.396
	C1044.979,444.267,1044.878,444.276,1044.776,444.288z"/>
<path d="M237.652,409.6c2.844-3.71,4.522-5.845,5.036-6.402c1.278-1.41,2.658-2.504,4.137-3.283s2.944-1.17,4.395-1.17
	c2.447,0,4.551,0.928,6.314,2.783c1.764,1.856,2.944,4.547,3.542,8.072c2.938-4.453,5.419-7.377,7.445-8.769
	c2.024-1.392,4.107-2.087,6.247-2.087c2.082,0,3.929,0.695,5.54,2.084s2.888,3.658,3.829,6.805c0.627,2.148,0.941,5.52,0.941,10.111
	v21.889c0,3.171,0.183,5.347,0.552,6.526c0.282,0.812,0.805,1.502,1.568,2.074s12.55,5.39,12.55,5.39l-28.047-2.562v-1.971h0.811
	c1.677,0,2.982-0.424,3.921-1.271c0.653-0.59,1.122-1.531,1.406-2.822c0.114-0.627,0.171-2.416,0.171-5.364v-21.867
	c0-4.145-0.386-7.068-1.158-8.771c-1.115-2.367-2.9-3.551-5.359-3.551c-1.515,0-3.037,0.49-4.566,1.469s-3.38,2.8-5.552,5.461
	l-0.085,0.609l0.151,2.388v24.263c0,3.466,0.148,5.623,0.445,6.472c0.297,0.848,0.854,1.557,1.672,2.129
	c0.818,0.572,2.216,0.857,4.192,0.857v1.971h-19.686v-1.971c2.145,0,3.619-0.331,4.424-0.994c0.805-0.664,1.362-1.66,1.673-2.989
	c0.14-0.626,0.211-2.452,0.211-5.475v-21.874c0-4.144-0.471-7.128-1.411-8.946c-1.255-2.377-3.009-3.565-5.261-3.565
	c-1.539,0-3.064,0.538-4.576,1.614c-2.366,1.633-4.191,3.471-5.474,5.512v27.26c0,3.318,0.175,5.477,0.528,6.472
	c0.353,0.996,0.875,1.742,1.566,2.239c0.691,0.499,2.096,0.747,4.214,0.747v1.971l-26.356,3.773c0,0,12.054-7.781,12.425-8.869
	c0.369-1.088,0.554-3.199,0.554-6.333v-19.508c0-5.585-0.129-9.19-0.386-10.818c-0.201-1.22-0.515-2.062-0.945-2.523
	c-0.43-0.462-1.017-0.693-1.76-0.693c-0.803,0-11.024,0.277-12.14,0.832l-0.644-1.971l21.099-6.207h1.844V409.6z"/>
<path d="M184.945,407.551H163.98l-3.639,7.938c-0.902,1.956-1.353,3.418-1.353,4.383c0,0.768,0.392,1.443,1.174,2.025
	s2.475,0.959,5.076,1.133v1.389l-9.285,18.89l-7.793-18.89v-1.389c2.256-0.373,3.716-0.856,4.379-1.453
	c1.354-1.191,2.853-3.611,4.499-7.262l18.945-41.49h1.505l18.807,41.957c1.513,3.369,2.886,5.555,4.12,6.558s2.953,1.565,5.155,1.69
	v1.389l-10.703,18.452l-10.599-18.452v-1.389c2.149-0.1,3.603-0.434,4.359-1.004s1.134-1.264,1.134-2.082
	c0-1.09-0.531-2.813-1.592-5.168L184.945,407.551z M183.705,404.772l-9.102-20.39l-9.348,20.39H183.705z"/>
<path d="M111.271,391.892c-0.036,5.693,1.766,10.157,5.409,13.394c3.642,3.237,7.921,4.855,12.839,4.855
	c3.277,0,6.128-0.684,8.549-2.053c2.423-1.369,4.453-3.738,6.093-7.109l1.65,0.837c-0.765,3.854-2.985,7.347-6.66,10.479
	c-3.674,3.134-8.279,4.698-13.809,4.698c-6.005,0-11.145-1.794-15.42-5.385c-4.275-3.592-6.413-8.418-6.413-14.483
	c0-6.566,2.192-11.687,6.576-15.362c4.384-3.674,9.888-5.512,16.512-5.512c5.603,0,10.208,1.42,13.809,4.257
	c3.602,2.838,5.404,6.633,5.404,11.385h-24.094 M134.46,389.434c-0.183-2.453-0.566-4.182-1.149-5.187
	c-0.911-1.56-2.27-2.786-4.074-3.68c-1.805-0.892-3.692-1.338-5.66-1.338c-3.026,0-5.734,0.899-8.121,2.697"/>
<g>
	<g>
		<path d="M89.896,328.34v31.205l352.005-0.066l13.793,3.898l-14.777,3.058l-351.021,0.312v61.836c0,6.176,1.118,10.34,3.358,12.492
			c2.241,2.151,5.119,3.226,8.635,3.226c2.896,0,5.709-0.716,8.433-2.15c2.721-1.431,4.829-3.545,6.325-6.344h5.163
			c-3.08,6.797-7.439,11.912-13.071,15.346c-5.636,3.434-11.443,5.15-17.427,5.15c-4.052,0-8.016-0.886-11.887-2.656
			c-3.872-1.773-6.732-4.309-8.58-7.609c-1.848-3.301-2.772-8.39-2.772-15.271v-64.204H48.83v-3.31
			c4.866-1.506,9.845-4.053,14.934-7.648c5.089-3.592,9.628-7.876,13.625-12.854c2.039-2.625,4.88-7.429,8.518-14.41H89.896z"/>
	</g>
</g>
<path d="M606.07,472.204c-3.487-1.763-7.656-5.329-12.507-10.699l-21.306-23.312c8.601-1.52,14.951-4.117,19.052-7.797
	c4.101-3.678,6.151-8.017,6.151-13.015c0-4.679-1.805-8.706-5.409-12.085c-3.606-3.379-7.994-5.697-13.163-6.957
	c-5.171-1.26-13.203-1.89-24.097-1.89l-19.868,1.776c-0.597,0.301-1.22,0.583-1.86,0.844l-3.066,2.254
	c1.406,1.238,2.111,4.413,2.111,9.521v52.568c0,4.632-0.528,7.565-1.581,8.802c-1.859,2.236-4.948,3.354-9.267,3.354h-3.84v2.239
	h43.927v-2.239h-3.992c-3.816,0-6.678-0.878-8.584-2.635c-1.407-1.237-2.11-4.411-2.11-9.521v-23.672
	c0.804,0.04,1.583,0.07,2.337,0.09c0.753,0.02,1.459,0.03,2.111,0.03c1.609,0,3.694-0.04,6.259-0.12l34.857,38.067h27.487v-2.239
	C614.104,475.091,609.557,473.967,606.07,472.204z M550.847,436.07c-0.448,0-1.021-0.01-1.719-0.03
	c-0.699-0.021-1.521-0.03-2.467-0.03v-33.908c4.933-0.709,8.845-1.066,11.737-1.066c6.526,0,11.773,1.592,15.735,4.77
	c3.963,3.18,5.944,7.311,5.944,12.389c0,5.199-2.455,9.48-7.364,12.838C567.803,434.391,560.514,436.07,550.847,436.07z"/>
<path d="M479.53,376.326l13.089,10.584v42.381c0,7.93,0.217,12.781,0.654,14.552c0.435,1.77,1.132,3.008,2.092,3.71
	c0.962,0.702,2.082,1.054,3.363,1.054c1.804,0,3.841-0.43,6.11-1.287l1.222,2.691l-23.887,8.476h-3.923v-14.548
	c-6.825,6.399-12.029,10.426-15.615,12.073c-3.587,1.648-7.374,2.475-11.364,2.475c-8.242-1.081-15.658-5.386-18.394-12.065
	c-1.27-3.539-1.904-8.55-1.904-15.024v-31.033c0-3.307-0.405-5.596-1.214-6.869c-0.812-1.272-2.011-2.252-3.6-2.939
	c-1.591-0.686-4.466-1.004-8.628-0.955v-2.689l17.667-10.584l10.144,10.584v46.612c0,6.487,1.286,10.746,3.861,12.773
	c2.576,2.028,5.688,3.041,9.336,3.041c2.488,0,5.311-0.683,8.466-2.051c3.152-1.369,6.901-3.98,11.245-7.833v-39.358
	c0-4.04-0.831-6.775-2.487-8.2c-1.658-1.426-5.103-2.189-10.337-2.295v-2.689L479.53,376.326z"/>
<path fill="#D3DAEE" stroke="#FFFFFF" d="M1172.07,124.729c-14.355,5.297-28.917,10.03-43.54,14.337
	c-51.327,15.102-104.274,24.561-157.446,30.06c-37.702,3.899-75.805,5.927-113.938,5.927c-76.99,0-154.148-8.259-228.692-26.051
	c-20.088-4.795-40.062-10.343-59.709-16.863c-6.807,1.19-13.645,2.314-20.479,3.366c4.103,1.493,8.212,2.942,12.328,4.354
	c48.735,16.722,99.423,27.612,150.408,34.749c49.362,6.919,99.434,10.426,149.513,10.426c65.744,0,131.511-6.041,195.809-18.337
	c44.869-8.581,89.289-20.577,131.761-37.508C1182.73,127.744,1177.401,126.26,1172.07,124.729z"/>
<path fill="#B0BDE0" d="M549.218,125.288c-6.695,1.034-13.401,1.995-20.115,2.888c6.35,2.555,12.748,4.994,19.162,7.328
	c6.835-1.052,13.672-2.175,20.479-3.366C562.197,129.966,555.685,127.685,549.218,125.288z"/>
<path fill="#B0BDE0" d="M1188.064,118.549c-5.298,2.144-10.632,4.201-15.994,6.18c5.331,1.531,10.66,3.015,16.014,4.459
	c3.053-1.217,6.101-2.461,9.134-3.73c2.149-0.899,4.294-1.813,6.435-2.74C1198.445,121.367,1193.249,119.977,1188.064,118.549z"/>
<path fill="#FFFF00" stroke="#FFFFFF" d="M383.429,15.46c-2.296-4.874-4.231-9.875-5.796-14.96H2v52.469
	c7.207,4.204,14.542,8.159,21.933,11.883c41.535,20.925,86.13,35.586,131.283,46.422c111.429,26.757,228.762,32.193,342.603,20.574
	c10.437-1.067,20.865-2.292,31.274-3.676c-28.521-11.478-56.196-25.341-81.314-42.944C421.94,67.12,397.082,44.449,383.429,15.46z"
	/>
<path fill="#B0BDE0" stroke="#FFFFFF" d="M548.507,125.394c-1.961,0.301-3.923,0.588-5.886,0.876
	c-1.373,0.202-2.746,0.41-4.119,0.606c-1.931,0.276-3.864,0.537-5.796,0.801c-1.201,0.165-2.4,0.338-3.602,0.498l-0.01-0.004
	c-10.41,1.384-20.837,2.609-31.274,3.676c-113.841,11.619-231.174,6.183-342.603-20.574
	c-45.153-10.836-89.748-25.497-131.283-46.422C16.542,61.128,9.207,57.173,2,52.969v11.582
	c27.043,15.376,56.092,27.41,85.374,37.498c48.726,16.785,99.396,27.738,150.363,34.947
	c109.335,15.465,222.094,14.172,330.983-4.866c-6.539-2.17-13.043-4.448-19.501-6.842
	C548.981,125.325,548.744,125.357,548.507,125.394z"/>
<path fill="#FF3FD0" stroke="#FFFFFF" d="M1297.532,65.815c-27.674,24.239-60.215,42.322-93.862,56.896
	c46.662,12.104,94.221,21.058,142.237,25.292c7.339,0.648,14.708,1.191,22.093,1.637V0.5h-24.228
	C1335.374,26.178,1317.674,48.178,1297.532,65.815z"/>
<path fill="#B0BDE0" stroke="#FFFFFF" d="M1345.907,148.003c-48.017-4.234-95.575-13.188-142.237-25.292l-0.018,0.008
	c-2.124-0.551-4.244-1.113-6.364-1.677c-0.396-0.105-0.794-0.208-1.19-0.313c-2.681-0.716-5.358-1.442-8.033-2.179
	c-5.291,2.141-10.619,4.196-15.975,6.172c47.531,13.651,95.993,23.871,144.837,30.139c16.931,2.172,33.98,3.822,51.073,4.829v-10.05
	C1360.615,149.194,1353.246,148.651,1345.907,148.003z"/>
<path fill="#B979E6" stroke="#FFFFFF" d="M895.548,0.5h-44.443c-7.82,10.448-16.97,19.963-26.693,28.46
	c-29.466,25.74-64.44,44.514-100.386,59.508c-45.243,18.864-92.844,31.923-140.949,41.058c-4.772,0.906-9.544,1.776-14.331,2.613
	c19.647,6.521,39.621,12.068,59.709,16.863c74.544,17.792,151.702,26.051,228.692,26.051c38.133,0,76.235-2.027,113.938-5.927
	c53.172-5.499,106.119-14.958,157.446-30.06c14.623-4.307,29.185-9.04,43.54-14.337c-66.633-19.138-131.438-45.045-192.877-76.356
	C950.582,33.797,922.56,17.923,895.548,0.5z"/>
<path fill="#B97976" stroke="#FFFFFF" d="M410.924,39.265c23.337,27.36,54.297,47.466,86.184,63.486
	c16.92,8.497,34.347,15.954,52.11,22.537c35.814-5.528,71.316-13.119,106.083-23.302c42.192-12.357,83.862-28.269,121.617-51.048
	c21.379-12.899,44.016-29.976,61.114-50.438H388.158C393.081,14.618,401.08,27.725,410.924,39.265z"/>
<path fill="#965CD8" stroke="#FFFFFF" d="M724.025,88.468c35.945-14.994,70.92-33.768,100.386-59.508
	c9.724-8.497,18.873-18.012,26.693-28.46h-13.072c-17.099,20.462-39.735,37.539-61.114,50.438
	c-37.755,22.779-79.425,38.691-121.617,51.048c-34.767,10.184-70.269,17.774-106.083,23.302c6.458,2.394,12.962,4.671,19.501,6.842
	l0.025,0.009c4.787-0.837,9.559-1.707,14.331-2.613C631.181,120.391,678.782,107.332,724.025,88.468z"/>
<path fill="#B925D1" stroke="#FFFFFF" d="M1333.16,0.5H914.169c80.835,50.376,170.012,88.219,261.197,114.473
	c4.224,1.216,8.458,2.409,12.698,3.576c21.423-8.667,42.256-18.739,62.011-30.693C1283.217,67.802,1319.39,37.694,1333.16,0.5z"/>
<path fill="#965CD8" stroke="#FFFFFF" d="M1175.366,114.973C1084.181,88.719,995.004,50.876,914.169,0.5h-18.621
	c27.012,17.423,55.034,33.297,83.646,47.873c61.438,31.311,126.244,57.218,192.877,76.356l0.02-0.007
	c5.355-1.976,10.684-4.031,15.975-6.172C1183.824,117.382,1179.59,116.189,1175.366,114.973z"/>
<path fill="#D3DA7E" stroke="#FFFFFF" d="M410.924,39.265c-9.844-11.54-17.843-24.647-22.766-38.765h-10.525
	c1.565,5.085,3.5,10.086,5.796,14.96c13.653,28.989,38.511,51.66,64.35,69.768c25.118,17.603,52.793,31.466,81.314,42.944
	l0.01,0.004c1.202-0.16,2.401-0.333,3.602-0.498c1.933-0.264,3.865-0.525,5.796-0.801c1.374-0.196,2.746-0.404,4.119-0.606
	c1.962-0.289,3.925-0.575,5.886-0.876c0.237-0.037,0.475-0.069,0.711-0.106c-17.763-6.583-35.19-14.041-52.11-22.537
	C465.221,86.731,434.261,66.625,410.924,39.265z"/>
<path fill="#D386D9" stroke="#FFFFFF" d="M1343.772,0.5h-10.612c-13.771,37.194-49.943,67.302-83.085,87.356
	c-19.755,11.954-40.588,22.026-62.011,30.693c2.675,0.737,5.353,1.462,8.033,2.179c0.396,0.106,0.794,0.208,1.19,0.313
	c2.12,0.564,4.24,1.125,6.364,1.677l0.018-0.008c33.647-14.574,66.188-32.657,93.862-56.896
	C1317.674,48.178,1335.374,26.178,1343.772,0.5z"/>
<g>
	<g>
		<g>
			<g>
				<g>
					<g>
						<g>
							<path fill="none" d="M1218.064,285.592"/>
							<path fill="#FFFFFF" d="M1218.064,290.592c6.449,0,6.449-10,0-10S1211.615,290.592,1218.064,290.592L1218.064,290.592z"/>
						</g>
					</g>
				</g>
			</g>
		</g>
	</g>
</g>
<g>
	<g>
		<g>
			<g>
				<g>
					<g>
						<g>
							<path fill="none" d="M1283.062,284.594"/>
							<path fill="#FFFFFF" d="M1283.062,289.594c6.448,0,6.448-10,0-10S1276.613,289.594,1283.062,289.594L1283.062,289.594z"/>
						</g>
					</g>
				</g>
			</g>
		</g>
	</g>
</g>
<g>
	<g>
		<path fill="none" d="M1213,309.5c26.078,0,51.93,0,80,0"/>
		<path fill="#FFFFFF" d="M1212.859,310.986c26.666,0,53.333,0,80,0c1.91,0,2.203-2.973,0.281-2.973c-26.666,0-53.333,0-80,0
			C1211.23,308.014,1210.938,310.986,1212.859,310.986L1212.859,310.986z"/>
	</g>
</g>
<g>
	<g>
		<path fill="none" d="M1276.562,367.588c-11.999,4.5-20.999-16.499-22.499-23.999"/>
		<path fill="#FFFFFF" d="M1275.921,366.24c-11.091,3.571-18.609-14.68-20.389-22.91c-0.406-1.877-3.347-1.365-2.939,0.518
			c2.274,10.521,11.013,29.467,24.609,25.088C1279.027,368.349,1277.729,365.657,1275.921,366.24L1275.921,366.24z"/>
	</g>
</g>
<g>
	<g>
		<path fill="none" d="M1230.063,361.589c16.5,25.498,16.5-15,25.499-19.499"/>
		<path fill="#FFFFFF" d="M1228.926,362.555c4.021,6.064,11.026,13.318,16.398,4.496c2.319-3.811,3.531-8.312,4.96-12.5
			c1.175-3.444,2.487-9.163,5.919-11.113c1.661-0.943,0.396-3.649-1.281-2.695c-5.571,3.165-7.111,11.909-9.031,17.442
			c-1.12,3.229-2.271,7.146-4.848,9.543c-3.521,3.276-8.399-4.931-9.842-7.104C1230.141,359.023,1227.873,360.967,1228.926,362.555
			L1228.926,362.555z"/>
	</g>
</g>
<polygon stroke="#000000" points="672.789,453.5 666.196,437.014 672.377,428.514 679.732,436.655 "/>
<ellipse fill="none" stroke="#000000" stroke-width="5" cx="672.613" cy="419.952" rx="7.017" ry="8.874"/>
<polygon stroke="#000000" points="699.547,419.958 686.193,428.113 679.297,420.499 685.887,411.412 "/>
<polygon stroke="#000000" points="645.09,419.941 658.619,412.238 665.344,420.082 658.557,428.943 "/>
<polygon stroke="#000000" points="671.94,386.102 678.875,402.374 672.874,411.068 665.351,403.16 "/>
<polygon stroke="#000000" points="1109.789,453.5 1103.196,437.014 1109.377,428.514 1116.732,436.655 "/>
<ellipse fill="none" stroke="#000000" stroke-width="5" cx="1109.613" cy="419.952" rx="7.017" ry="8.874"/>
<polygon stroke="#000000" points="1136.547,419.958 1123.193,428.113 1116.297,420.499 1122.887,411.412 "/>
<polygon stroke="#000000" points="1082.09,419.941 1095.619,412.238 1102.344,420.082 1095.557,428.943 "/>
<polygon stroke="#000000" points="1108.94,386.102 1115.875,402.374 1109.873,411.068 1102.352,403.16 "/>
<g>
	<line x1="965.459" y1="659.5" x2="1016.255" y2="659.5"/>
	<g>
		<line fill="none" x1="965.459" y1="659.5" x2="1016.255" y2="659.5"/>
		<g>
			<line fill="none" stroke="#000000" stroke-width="0" x1="985.374" y1="657.385" x2="985.374" y2="657.385"/>
			<line fill="none" stroke="#000000" stroke-width="0" x1="984.604" y1="656.768" x2="984.604" y2="656.768"/>
			<path d="M968.718,662.506c0.383,0.112,0.772-0.025,1.139-0.237c0.78-0.448,1.434,1.069,2.195,0.534
				c0.955-0.672,1.895,0.611,2.888,0.168c1.823-0.812,3.703-1.928,5.55-1.325c3.48,1.136,6.644,1.15,9.997,3.048
				c1.95,1.103,4.166,1.777,6.208,1.588c1.493-0.137,4.514,0.664,5.794-0.992c-1.717,0.584-3.523,0.002-5.209-0.689
				c3.699-0.375,7.557-0.338,11.193-1.853c-6.814,2.2-13.71,0.347-19.971-5.29c7.322,2.492,16.826,6.79,24.024,1.152
				c0.546-0.426,1.152-1.035,1.609-1.672c-7.14,7.238-16.404,2.449-23.905-0.445c-3.444-1.328-6.913-2.449-10.438-2.434
				c-0.958-0.192-1.921-0.307-2.881-0.396c-1.971-0.186-3.955-0.232-5.924,0.07c-1.748,0.267-4.864,0.451-5.529,4.229
				c0.561,0.131,1.181-0.329,1.72-0.072c-0.204,0.341-0.438,0.76-0.679,0.994c0.229-0.017,0.484,0.107,0.698-0.111
				c-0.178,0.199-0.358,0.439-0.427,0.821c0.276,0.097,0.668-0.458,0.885-0.69c0.128-0.139,0.713-1.033,0.88-0.885
				c-0.434,0.723-0.982,1.396-1.336,2.265c0.15,0.027,0.299-0.028,0.444,0.053c-0.181,0.339-0.533,0.479-0.625,0.929
				c0.373-0.053,0.703-0.307,1.09-0.291c0.313,0.012,0.596,0.075,0.896-0.133c-0.359,0.344-0.84,0.587-1.088,1.217
				c0.166,0.146,0.34,0.058,0.511-0.018l-0.037,0.207c0.076-0.01,0.176,0.081,0.255,0.055l0.004,0.311l0.005-0.223"/>
			<line x1="968.718" y1="662.506" x2="968.718" y2="662.506"/>
			<path d="M968.191,655.307c0.371-0.051,0.897-0.111,1.237,0.091"/>
			<path fill="none" stroke="#000000" stroke-width="0" d="M990.616,657.564c0,0,19.789,5.148,25.639-4.92"/>
			<path fill="none" stroke="#000000" stroke-width="0" d="M999.488,661.729c0,0,7.479,1.598,13.392-4.357"/>
		</g>
	</g>
</g>
<g>
	<line x1="1048.861" y1="659.5" x2="1100.705" y2="659.5"/>
	<g>
		<line fill="none" x1="1048.861" y1="659.5" x2="1100.705" y2="659.5"/>
		<g>
			<line fill="none" stroke="#000000" stroke-width="0" x1="1069.188" y1="657.385" x2="1069.188" y2="657.385"/>
			<line fill="none" stroke="#000000" stroke-width="0" x1="1068.401" y1="656.768" x2="1068.401" y2="656.768"/>
			<path d="M1052.188,662.506c0.391,0.112,0.788-0.025,1.162-0.237c0.796-0.448,1.464,1.069,2.241,0.534
				c0.975-0.672,1.933,0.611,2.946,0.168c1.861-0.812,3.78-1.928,5.665-1.325c3.552,1.136,6.78,1.15,10.203,3.048
				c1.99,1.103,4.252,1.777,6.335,1.588c1.525-0.137,4.607,0.664,5.914-0.992c-1.752,0.584-3.596,0.002-5.315-0.689
				c3.775-0.375,7.712-0.338,11.424-1.853c-6.956,2.2-13.993,0.347-20.383-5.29c7.473,2.492,17.173,6.79,24.52,1.152
				c0.558-0.426,1.176-1.035,1.643-1.672c-7.287,7.238-16.742,2.449-24.398-0.445c-3.515-1.328-7.056-2.449-10.653-2.434
				c-0.977-0.192-1.96-0.307-2.939-0.396c-2.012-0.186-4.037-0.232-6.046,0.07c-1.784,0.267-4.964,0.451-5.644,4.229
				c0.572,0.131,1.205-0.329,1.755-0.072c-0.208,0.341-0.446,0.76-0.692,0.994c0.234-0.017,0.494,0.107,0.713-0.111
				c-0.182,0.199-0.366,0.439-0.436,0.821c0.282,0.097,0.682-0.458,0.903-0.69c0.13-0.139,0.728-1.033,0.897-0.885
				c-0.442,0.723-1.002,1.396-1.363,2.265c0.152,0.027,0.305-0.028,0.453,0.053c-0.184,0.339-0.544,0.479-0.638,0.929
				c0.381-0.053,0.718-0.307,1.112-0.291c0.32,0.012,0.608,0.075,0.914-0.133c-0.365,0.344-0.856,0.587-1.109,1.217
				c0.169,0.146,0.348,0.058,0.521-0.018l-0.038,0.207c0.077-0.01,0.18,0.081,0.26,0.055l0.005,0.311l0.004-0.223"/>
			<line x1="1052.188" y1="662.506" x2="1052.188" y2="662.506"/>
			<path d="M1051.65,655.307c0.378-0.051,0.916-0.111,1.263,0.091"/>
			<path fill="none" stroke="#000000" stroke-width="0" d="M1074.537,657.564c0,0,20.197,5.148,26.168-4.92"/>
			<path fill="none" stroke="#000000" stroke-width="0" d="M1083.592,661.729c0,0,7.635,1.598,13.668-4.357"/>
		</g>
	</g>
</g>
<g>
	<line x1="1133.459" y1="659.5" x2="1183.296" y2="659.5"/>
	<g>
		<line fill="none" x1="1133.459" y1="659.5" x2="1183.296" y2="659.5"/>
		<g>
			<line fill="none" stroke="#000000" stroke-width="0" x1="1152.998" y1="657.385" x2="1152.998" y2="657.385"/>
			<line fill="none" stroke="#000000" stroke-width="0" x1="1152.243" y1="656.768" x2="1152.243" y2="656.768"/>
			<path d="M1136.656,662.506c0.375,0.112,0.758-0.025,1.117-0.237c0.766-0.448,1.407,1.069,2.154,0.534
				c0.937-0.672,1.858,0.611,2.833,0.168c1.788-0.812,3.634-1.928,5.445-1.325c3.415,1.136,6.518,1.15,9.808,3.048
				c1.914,1.103,4.088,1.777,6.091,1.588c1.465-0.137,4.429,0.664,5.685-0.992c-1.684,0.584-3.457,0.002-5.11-0.689
				c3.63-0.375,7.414-0.338,10.982-1.853c-6.687,2.2-13.452,0.347-19.594-5.29c7.184,2.492,16.508,6.79,23.57,1.152
				c0.535-0.426,1.13-1.035,1.579-1.672c-7.005,7.238-16.095,2.449-23.454-0.445c-3.379-1.328-6.782-2.449-10.241-2.434
				c-0.938-0.192-1.884-0.307-2.825-0.396c-1.934-0.186-3.881-0.232-5.813,0.07c-1.715,0.267-4.771,0.451-5.425,4.229
				c0.55,0.131,1.158-0.329,1.688-0.072c-0.2,0.341-0.43,0.76-0.666,0.994c0.225-0.017,0.475,0.107,0.685-0.111
				c-0.174,0.199-0.352,0.439-0.418,0.821c0.271,0.097,0.654-0.458,0.868-0.69c0.125-0.139,0.699-1.033,0.863-0.885
				c-0.426,0.723-0.964,1.396-1.312,2.265c0.147,0.027,0.293-0.028,0.437,0.053c-0.177,0.339-0.523,0.479-0.613,0.929
				c0.366-0.053,0.689-0.307,1.069-0.291c0.308,0.012,0.585,0.075,0.879-0.133c-0.352,0.344-0.824,0.587-1.067,1.217
				c0.163,0.146,0.334,0.058,0.502-0.018l-0.037,0.207c0.075-0.01,0.173,0.081,0.25,0.055l0.005,0.311l0.004-0.223"/>
			<line x1="1136.656" y1="662.506" x2="1136.656" y2="662.506"/>
			<path d="M1136.14,655.307c0.364-0.051,0.881-0.111,1.214,0.091"/>
			<path fill="none" stroke="#000000" stroke-width="0" d="M1158.142,657.564c0,0,19.415,5.148,25.154-4.92"/>
			<path fill="none" stroke="#000000" stroke-width="0" d="M1166.846,661.729c0,0,7.338,1.598,13.139-4.357"/>
		</g>
	</g>
</g>
<g>
	<line x1="1300.42" y1="659.5" x2="1366" y2="659.5"/>
	<g>
		<line fill="none" x1="1300.42" y1="659.5" x2="1366" y2="659.5"/>
		<g>
			<line fill="none" stroke="#000000" stroke-width="0" x1="1326.131" y1="657.385" x2="1326.131" y2="657.385"/>
			<line fill="none" stroke="#000000" stroke-width="0" x1="1325.138" y1="656.768" x2="1325.138" y2="656.768"/>
			<path d="M1304.627,662.506c0.494,0.112,0.998-0.025,1.471-0.237c1.007-0.448,1.851,1.069,2.834,0.534
				c1.233-0.672,2.445,0.611,3.729,0.168c2.354-0.812,4.781-1.928,7.165-1.325c4.493,1.136,8.576,1.15,12.907,3.048
				c2.517,1.103,5.378,1.777,8.014,1.588c1.928-0.137,5.827,0.664,7.48-0.992c-2.216,0.584-4.549,0.002-6.725-0.689
				c4.775-0.375,9.756-0.338,14.451-1.853c-8.799,2.2-17.7,0.347-25.783-5.29c9.453,2.492,21.724,6.79,31.017,1.152
				c0.704-0.426,1.487-1.035,2.077-1.672c-9.218,7.238-21.178,2.449-30.863-0.445c-4.445-1.328-8.924-2.449-13.475-2.434
				c-1.236-0.192-2.479-0.307-3.719-0.396c-2.545-0.186-5.106-0.232-7.648,0.07c-2.257,0.267-6.279,0.451-7.139,4.229
				c0.724,0.131,1.523-0.329,2.221-0.072c-0.264,0.341-0.565,0.76-0.877,0.994c0.297-0.017,0.625,0.107,0.901-0.111
				c-0.229,0.199-0.462,0.439-0.55,0.821c0.356,0.097,0.861-0.458,1.142-0.69c0.165-0.139,0.921-1.033,1.137-0.885
				c-0.561,0.723-1.269,1.396-1.726,2.265c0.193,0.027,0.386-0.028,0.574,0.053c-0.233,0.339-0.689,0.479-0.808,0.929
				c0.481-0.053,0.908-0.307,1.407-0.291c0.405,0.012,0.77,0.075,1.156-0.133c-0.462,0.344-1.084,0.587-1.403,1.217
				c0.214,0.146,0.439,0.058,0.659-0.018l-0.048,0.207c0.099-0.01,0.228,0.081,0.329,0.055l0.006,0.311l0.005-0.223"/>
			<line x1="1304.627" y1="662.506" x2="1304.627" y2="662.506"/>
			<path d="M1303.947,655.307c0.479-0.051,1.159-0.111,1.598,0.091"/>
			<path fill="none" stroke="#000000" stroke-width="0" d="M1332.899,657.564c0,0,25.549,5.148,33.101-4.92"/>
			<path fill="none" stroke="#000000" stroke-width="0" d="M1344.354,661.729c0,0,9.656,1.598,17.289-4.357"/>
		</g>
	</g>
</g>
<g>
	<line x1="1216.306" y1="659.5" x2="1267.266" y2="659.5"/>
	<g>
		<line fill="none" x1="1216.306" y1="659.5" x2="1267.266" y2="659.5"/>
		<g>
			<line fill="none" stroke="#000000" stroke-width="0" x1="1236.285" y1="657.385" x2="1236.285" y2="657.385"/>
			<line fill="none" stroke="#000000" stroke-width="0" x1="1235.513" y1="656.768" x2="1235.513" y2="656.768"/>
			<path d="M1219.574,662.506c0.385,0.112,0.775-0.025,1.144-0.237c0.782-0.448,1.438,1.069,2.202,0.534
				c0.958-0.672,1.9,0.611,2.896,0.168c1.829-0.812,3.716-1.928,5.568-1.325c3.492,1.136,6.664,1.15,10.029,3.048
				c1.956,1.103,4.18,1.777,6.228,1.588c1.498-0.137,4.528,0.664,5.813-0.992c-1.722,0.584-3.534,0.002-5.225-0.689
				c3.711-0.375,7.58-0.338,11.229-1.853c-6.838,2.2-13.755,0.347-20.035-5.29c7.345,2.492,16.88,6.79,24.102,1.152
				c0.547-0.426,1.155-1.035,1.614-1.672c-7.163,7.238-16.457,2.449-23.982-0.445c-3.455-1.328-6.936-2.449-10.472-2.434
				c-0.96-0.192-1.927-0.307-2.89-0.396c-1.977-0.186-3.968-0.232-5.943,0.07c-1.754,0.267-4.879,0.451-5.547,4.229
				c0.563,0.131,1.185-0.329,1.726-0.072c-0.205,0.341-0.439,0.76-0.682,0.994c0.23-0.017,0.486,0.107,0.701-0.111
				c-0.178,0.199-0.359,0.439-0.428,0.821c0.277,0.097,0.669-0.458,0.888-0.69c0.127-0.139,0.715-1.033,0.882-0.885
				c-0.435,0.723-0.985,1.396-1.34,2.265c0.15,0.027,0.3-0.028,0.445,0.053c-0.181,0.339-0.535,0.479-0.627,0.929
				c0.374-0.053,0.706-0.307,1.094-0.291c0.314,0.012,0.598,0.075,0.898-0.133c-0.359,0.344-0.842,0.587-1.091,1.217
				c0.166,0.146,0.342,0.058,0.513-0.018l-0.037,0.207c0.076-0.01,0.176,0.081,0.256,0.055l0.004,0.311l0.004-0.223"/>
			<line x1="1219.574" y1="662.506" x2="1219.574" y2="662.506"/>
			<path d="M1219.047,655.307c0.372-0.051,0.9-0.111,1.241,0.091"/>
			<path fill="none" stroke="#000000" stroke-width="0" d="M1241.544,657.564c0,0,19.854,5.148,25.722-4.92"/>
			<path fill="none" stroke="#000000" stroke-width="0" d="M1250.444,661.729c0,0,7.504,1.598,13.436-4.357"/>
		</g>
	</g>
</g>
<g>
	<line x1="0" y1="659.5" x2="27.174" y2="659.5"/>
	<g>
		<line fill="none" x1="0" y1="659.5" x2="27.174" y2="659.5"/>
		<g>
			<line fill="none" stroke="#000000" stroke-width="0" x1="10.654" y1="657.385" x2="10.654" y2="657.385"/>
			<line fill="none" stroke="#000000" stroke-width="0" x1="10.242" y1="656.768" x2="10.242" y2="656.768"/>
			<path d="M1.743,662.506c0.205,0.112,0.414-0.025,0.609-0.237c0.417-0.448,0.767,1.069,1.174,0.534
				c0.511-0.672,1.014,0.611,1.545,0.168c0.975-0.812,1.981-1.928,2.969-1.325c1.862,1.136,3.553,1.15,5.348,3.048
				c1.043,1.103,2.229,1.777,3.321,1.588c0.799-0.137,2.415,0.664,3.1-0.992c-0.918,0.584-1.885,0.002-2.786-0.689
				c1.979-0.375,4.042-0.338,5.988-1.853c-3.646,2.2-7.334,0.347-10.684-5.29c3.917,2.492,9.001,6.79,12.852,1.152
				c0.292-0.426,0.616-1.035,0.861-1.672c-3.819,7.238-8.775,2.449-12.789-0.445c-1.842-1.328-3.698-2.449-5.583-2.434
				c-0.512-0.192-1.027-0.307-1.541-0.396c-1.054-0.186-2.116-0.232-3.169,0.07c-0.936,0.267-2.602,0.451-2.958,4.229
				c0.3,0.131,0.631-0.329,0.92-0.072c-0.109,0.341-0.234,0.76-0.363,0.994c0.123-0.017,0.259,0.107,0.374-0.111
				c-0.095,0.199-0.191,0.439-0.228,0.821c0.148,0.097,0.357-0.458,0.474-0.69c0.068-0.139,0.381-1.033,0.471-0.885
				c-0.232,0.723-0.526,1.396-0.715,2.265c0.08,0.027,0.16-0.028,0.238,0.053c-0.097,0.339-0.286,0.479-0.334,0.929
				c0.199-0.053,0.376-0.307,0.583-0.291c0.168,0.012,0.319,0.075,0.479-0.133c-0.191,0.344-0.449,0.587-0.582,1.217
				c0.089,0.146,0.182,0.058,0.273-0.018l-0.02,0.207c0.041-0.01,0.094,0.081,0.136,0.055l0.002,0.311l0.002-0.223"/>
			<line x1="1.743" y1="662.506" x2="1.743" y2="662.506"/>
			<path d="M1.462,655.307c0.198-0.051,0.48-0.111,0.662,0.091"/>
			<path fill="none" stroke="#000000" stroke-width="0" d="M13.458,657.564c0,0,10.586,5.148,13.716-4.92"/>
			<path fill="none" stroke="#000000" stroke-width="0" d="M18.204,661.729c0,0,4.001,1.598,7.164-4.357"/>
		</g>
	</g>
</g>
<g>
	<line x1="561.86" y1="659.5" x2="613.704" y2="659.5"/>
	<g>
		<line fill="none" x1="561.86" y1="659.5" x2="613.704" y2="659.5"/>
		<g>
			<line fill="none" stroke="#000000" stroke-width="0" x1="582.186" y1="657.385" x2="582.186" y2="657.385"/>
			<line fill="none" stroke="#000000" stroke-width="0" x1="581.4" y1="656.768" x2="581.4" y2="656.768"/>
			<path d="M565.186,662.506c0.391,0.112,0.789-0.025,1.163-0.237c0.796-0.448,1.463,1.069,2.241,0.534
				c0.975-0.672,1.933,0.611,2.947,0.168c1.861-0.812,3.78-1.928,5.665-1.325c3.552,1.136,6.78,1.15,10.203,3.048
				c1.99,1.103,4.252,1.777,6.335,1.588c1.524-0.137,4.607,0.664,5.914-0.992c-1.751,0.584-3.596,0.002-5.316-0.689
				c3.775-0.375,7.712-0.338,11.424-1.853c-6.956,2.2-13.993,0.347-20.383-5.29c7.473,2.492,17.173,6.79,24.52,1.152
				c0.557-0.426,1.176-1.035,1.643-1.672c-7.287,7.238-16.742,2.449-24.398-0.445c-3.515-1.328-7.055-2.449-10.653-2.434
				c-0.977-0.192-1.96-0.307-2.94-0.396c-2.011-0.186-4.037-0.232-6.046,0.07c-1.784,0.267-4.964,0.451-5.643,4.229
				c0.572,0.131,1.205-0.329,1.755-0.072c-0.208,0.341-0.447,0.76-0.693,0.994c0.235-0.017,0.495,0.107,0.713-0.111
				c-0.181,0.199-0.366,0.439-0.435,0.821c0.282,0.097,0.681-0.458,0.903-0.69c0.13-0.139,0.728-1.033,0.898-0.885
				c-0.443,0.723-1.003,1.396-1.364,2.265c0.153,0.027,0.305-0.028,0.454,0.053c-0.185,0.339-0.544,0.479-0.638,0.929
				c0.381-0.053,0.718-0.307,1.112-0.291c0.32,0.012,0.608,0.075,0.915-0.133c-0.366,0.344-0.857,0.587-1.11,1.217
				c0.169,0.146,0.347,0.058,0.521-0.018l-0.038,0.207c0.078-0.01,0.18,0.081,0.26,0.055l0.005,0.311l0.004-0.223"/>
			<line x1="565.186" y1="662.506" x2="565.186" y2="662.506"/>
			<path d="M564.649,655.307c0.378-0.051,0.916-0.111,1.263,0.091"/>
			<path fill="none" stroke="#000000" stroke-width="0" d="M587.537,657.564c0,0,20.197,5.148,26.167-4.92"/>
			<path fill="none" stroke="#000000" stroke-width="0" d="M596.591,661.729c0,0,7.634,1.598,13.668-4.357"/>
		</g>
	</g>
</g>
<g>
	<line x1="479.497" y1="659.5" x2="529.254" y2="659.5"/>
	<g>
		<line fill="none" x1="479.497" y1="659.5" x2="529.254" y2="659.5"/>
		<g>
			<line fill="none" stroke="#000000" stroke-width="0" x1="499.005" y1="657.385" x2="499.005" y2="657.385"/>
			<line fill="none" stroke="#000000" stroke-width="0" x1="498.251" y1="656.768" x2="498.251" y2="656.768"/>
			<path d="M482.689,662.506c0.375,0.112,0.757-0.025,1.116-0.237c0.764-0.448,1.405,1.069,2.151,0.534
				c0.935-0.672,1.855,0.611,2.828,0.168c1.786-0.812,3.627-1.928,5.437-1.325c3.409,1.136,6.507,1.15,9.792,3.048
				c1.91,1.103,4.081,1.777,6.081,1.588c1.463-0.137,4.421,0.664,5.675-0.992c-1.681,0.584-3.451,0.002-5.102-0.689
				c3.623-0.375,7.402-0.338,10.964-1.853c-6.676,2.2-13.43,0.347-19.562-5.29c7.172,2.492,16.481,6.79,23.532,1.152
				c0.535-0.426,1.128-1.035,1.576-1.672c-6.994,7.238-16.068,2.449-23.416-0.445c-3.374-1.328-6.771-2.449-10.224-2.434
				c-0.938-0.192-1.881-0.307-2.822-0.396c-1.93-0.186-3.874-0.232-5.803,0.07c-1.712,0.267-4.764,0.451-5.416,4.229
				c0.549,0.131,1.156-0.329,1.685-0.072c-0.2,0.341-0.429,0.76-0.665,0.994c0.225-0.017,0.475,0.107,0.684-0.111
				c-0.174,0.199-0.351,0.439-0.417,0.821c0.271,0.097,0.653-0.458,0.867-0.69c0.125-0.139,0.698-1.033,0.862-0.885
				c-0.425,0.723-0.962,1.396-1.309,2.265c0.147,0.027,0.292-0.028,0.436,0.053c-0.177,0.339-0.523,0.479-0.613,0.929
				c0.366-0.053,0.689-0.307,1.068-0.291c0.308,0.012,0.584,0.075,0.877-0.133c-0.351,0.344-0.822,0.587-1.065,1.217
				c0.162,0.146,0.333,0.058,0.5-0.018l-0.037,0.207c0.075-0.01,0.172,0.081,0.25,0.055l0.004,0.311l0.004-0.223"/>
			<line x1="482.689" y1="662.506" x2="482.689" y2="662.506"/>
			<path d="M482.174,655.307c0.363-0.051,0.879-0.111,1.212,0.091"/>
			<path fill="none" stroke="#000000" stroke-width="0" d="M504.14,657.564c0,0,19.384,5.148,25.114-4.92"/>
			<path fill="none" stroke="#000000" stroke-width="0" d="M512.83,661.729c0,0,7.327,1.598,13.118-4.357"/>
		</g>
	</g>
</g>
<g>
	<line x1="394.416" y1="659.5" x2="447.145" y2="659.5"/>
	<g>
		<line fill="none" x1="394.416" y1="659.5" x2="447.145" y2="659.5"/>
		<g>
			<line fill="none" stroke="#000000" stroke-width="0" x1="415.089" y1="657.385" x2="415.089" y2="657.385"/>
			<line fill="none" stroke="#000000" stroke-width="0" x1="414.29" y1="656.768" x2="414.29" y2="656.768"/>
			<path d="M397.798,662.506c0.397,0.112,0.802-0.025,1.183-0.237c0.81-0.448,1.488,1.069,2.279,0.534
				c0.991-0.672,1.966,0.611,2.998,0.168c1.893-0.812,3.844-1.928,5.761-1.325c3.613,1.136,6.896,1.15,10.377,3.048
				c2.024,1.103,4.325,1.777,6.443,1.588c1.55-0.137,4.686,0.664,6.015-0.992c-1.782,0.584-3.657,0.002-5.407-0.689
				c3.84-0.375,7.844-0.338,11.619-1.853c-7.074,2.2-14.232,0.347-20.73-5.29c7.6,2.492,17.466,6.79,24.938,1.152
				c0.566-0.426,1.195-1.035,1.67-1.672c-7.411,7.238-17.028,2.449-24.815-0.445c-3.575-1.328-7.175-2.449-10.834-2.434
				c-0.994-0.192-1.993-0.307-2.99-0.396c-2.046-0.186-4.106-0.232-6.15,0.07c-1.814,0.267-5.048,0.451-5.739,4.229
				c0.582,0.131,1.226-0.329,1.785-0.072c-0.211,0.341-0.455,0.76-0.705,0.994c0.238-0.017,0.502,0.107,0.725-0.111
				c-0.184,0.199-0.372,0.439-0.442,0.821c0.287,0.097,0.693-0.458,0.918-0.69c0.132-0.139,0.74-1.033,0.914-0.885
				c-0.451,0.723-1.02,1.396-1.387,2.265c0.155,0.027,0.31-0.028,0.461,0.053c-0.188,0.339-0.554,0.479-0.649,0.929
				c0.388-0.053,0.73-0.307,1.132-0.291c0.326,0.012,0.619,0.075,0.93-0.133c-0.372,0.344-0.872,0.587-1.129,1.217
				c0.172,0.146,0.354,0.058,0.531-0.018l-0.039,0.207c0.079-0.01,0.182,0.081,0.264,0.055l0.005,0.311l0.004-0.223"/>
			<line x1="397.798" y1="662.506" x2="397.798" y2="662.506"/>
			<path d="M397.252,655.307c0.385-0.051,0.932-0.111,1.285,0.091"/>
			<path fill="none" stroke="#000000" stroke-width="0" d="M420.53,657.564c0,0,20.542,5.148,26.614-4.92"/>
			<path fill="none" stroke="#000000" stroke-width="0" d="M429.74,661.729c0,0,7.764,1.598,13.901-4.357"/>
		</g>
	</g>
</g>
<g>
	<line x1="311.497" y1="659.5" x2="362.214" y2="659.5"/>
	<g>
		<line fill="none" x1="311.497" y1="659.5" x2="362.214" y2="659.5"/>
		<g>
			<line fill="none" stroke="#000000" stroke-width="0" x1="331.381" y1="657.385" x2="331.381" y2="657.385"/>
			<line fill="none" stroke="#000000" stroke-width="0" x1="330.612" y1="656.768" x2="330.612" y2="656.768"/>
			<path d="M314.75,662.506c0.382,0.112,0.771-0.025,1.137-0.237c0.779-0.448,1.432,1.069,2.192,0.534
				c0.953-0.672,1.891,0.611,2.883,0.168c1.82-0.812,3.698-1.928,5.542-1.325c3.475,1.136,6.632,1.15,9.981,3.048
				c1.947,1.103,4.16,1.777,6.198,1.588c1.491-0.137,4.507,0.664,5.785-0.992c-1.714,0.584-3.518,0.002-5.2-0.689
				c3.693-0.375,7.544-0.338,11.176-1.853c-6.805,2.2-13.689,0.347-19.939-5.29c7.31,2.492,16.799,6.79,23.986,1.152
				c0.545-0.426,1.15-1.035,1.606-1.672c-7.128,7.238-16.378,2.449-23.868-0.445c-3.438-1.328-6.902-2.449-10.421-2.434
				c-0.956-0.192-1.917-0.307-2.876-0.396c-1.968-0.186-3.949-0.232-5.915,0.07c-1.746,0.267-4.856,0.451-5.521,4.229
				c0.56,0.131,1.179-0.329,1.717-0.072c-0.203,0.341-0.437,0.76-0.678,0.994c0.229-0.017,0.484,0.107,0.697-0.111
				c-0.177,0.199-0.357,0.439-0.426,0.821c0.276,0.097,0.667-0.458,0.884-0.69c0.127-0.139,0.711-1.033,0.878-0.885
				c-0.433,0.723-0.981,1.396-1.334,2.265c0.15,0.027,0.298-0.028,0.444,0.053c-0.18,0.339-0.533,0.479-0.624,0.929
				c0.373-0.053,0.702-0.307,1.088-0.291c0.313,0.012,0.595,0.075,0.895-0.133c-0.358,0.344-0.838,0.587-1.086,1.217
				c0.166,0.146,0.34,0.058,0.51-0.018l-0.037,0.207c0.076-0.01,0.175,0.081,0.254,0.055l0.004,0.311l0.004-0.223"/>
			<line x1="314.75" y1="662.506" x2="314.75" y2="662.506"/>
			<path d="M314.225,655.307c0.371-0.051,0.896-0.111,1.236,0.091"/>
			<path fill="none" stroke="#000000" stroke-width="0" d="M336.615,657.564c0,0,19.758,5.148,25.599-4.92"/>
			<path fill="none" stroke="#000000" stroke-width="0" d="M345.473,661.729c0,0,7.468,1.598,13.371-4.357"/>
		</g>
	</g>
</g>
<g>
	<line x1="226.416" y1="659.5" x2="279.145" y2="659.5"/>
	<g>
		<line fill="none" x1="226.416" y1="659.5" x2="279.145" y2="659.5"/>
		<g>
			<line fill="none" stroke="#000000" stroke-width="0" x1="247.089" y1="657.385" x2="247.089" y2="657.385"/>
			<line fill="none" stroke="#000000" stroke-width="0" x1="246.29" y1="656.768" x2="246.29" y2="656.768"/>
			<path d="M229.798,662.506c0.397,0.112,0.802-0.025,1.183-0.237c0.81-0.448,1.488,1.069,2.279,0.534
				c0.991-0.672,1.966,0.611,2.997,0.168c1.893-0.812,3.844-1.928,5.761-1.325c3.613,1.136,6.896,1.15,10.377,3.048
				c2.024,1.103,4.325,1.777,6.443,1.588c1.55-0.137,4.686,0.664,6.015-0.992c-1.782,0.584-3.657,0.002-5.407-0.689
				c3.84-0.375,7.844-0.338,11.619-1.853c-7.074,2.2-14.232,0.347-20.73-5.29c7.6,2.492,17.466,6.79,24.938,1.152
				c0.566-0.426,1.195-1.035,1.67-1.672c-7.411,7.238-17.028,2.449-24.815-0.445c-3.575-1.328-7.175-2.449-10.834-2.434
				c-0.994-0.192-1.993-0.307-2.99-0.396c-2.046-0.186-4.106-0.232-6.15,0.07c-1.814,0.267-5.048,0.451-5.739,4.229
				c0.582,0.131,1.225-0.329,1.785-0.072c-0.211,0.341-0.455,0.76-0.705,0.994c0.238-0.017,0.502,0.107,0.725-0.111
				c-0.184,0.199-0.372,0.439-0.442,0.821c0.287,0.097,0.693-0.458,0.918-0.69c0.132-0.139,0.74-1.033,0.914-0.885
				c-0.451,0.723-1.02,1.396-1.387,2.265c0.155,0.027,0.31-0.028,0.461,0.053c-0.188,0.339-0.554,0.479-0.649,0.929
				c0.388-0.053,0.73-0.307,1.132-0.291c0.326,0.012,0.619,0.075,0.93-0.133c-0.372,0.344-0.872,0.587-1.129,1.217
				c0.172,0.146,0.354,0.058,0.531-0.018l-0.039,0.207c0.079-0.01,0.183,0.081,0.264,0.055l0.005,0.311l0.004-0.223"/>
			<line x1="229.798" y1="662.506" x2="229.798" y2="662.506"/>
			<path d="M229.252,655.307c0.385-0.051,0.932-0.111,1.285,0.091"/>
			<path fill="none" stroke="#000000" stroke-width="0" d="M252.53,657.564c0,0,20.542,5.148,26.614-4.92"/>
			<path fill="none" stroke="#000000" stroke-width="0" d="M261.74,661.729c0,0,7.764,1.598,13.901-4.357"/>
		</g>
	</g>
</g>
<g>
	<line x1="144.537" y1="659.5" x2="194.214" y2="659.5"/>
	<g>
		<line fill="none" x1="144.537" y1="659.5" x2="194.214" y2="659.5"/>
		<g>
			<line fill="none" stroke="#000000" stroke-width="0" x1="164.013" y1="657.385" x2="164.013" y2="657.385"/>
			<line fill="none" stroke="#000000" stroke-width="0" x1="163.261" y1="656.768" x2="163.261" y2="656.768"/>
			<path d="M147.724,662.506c0.375,0.112,0.756-0.025,1.114-0.237c0.763-0.448,1.402,1.069,2.147,0.534
				c0.934-0.672,1.853,0.611,2.824,0.168c1.783-0.812,3.622-1.928,5.428-1.325c3.404,1.136,6.496,1.15,9.776,3.048
				c1.907,1.103,4.075,1.777,6.071,1.588c1.46-0.137,4.415,0.664,5.667-0.992c-1.679,0.584-3.445,0.002-5.094-0.689
				c3.618-0.375,7.39-0.338,10.947-1.853c-6.665,2.2-13.408,0.347-19.531-5.29c7.161,2.492,16.455,6.79,23.495,1.152
				c0.534-0.426,1.127-1.035,1.574-1.672c-6.982,7.238-16.042,2.449-23.378-0.445c-3.368-1.328-6.76-2.449-10.208-2.434
				c-0.936-0.192-1.878-0.307-2.817-0.396c-1.927-0.186-3.868-0.232-5.793,0.07c-1.709,0.267-4.756,0.451-5.407,4.229
				c0.548,0.131,1.154-0.329,1.682-0.072c-0.199,0.341-0.428,0.76-0.664,0.994c0.225-0.017,0.474,0.107,0.683-0.111
				c-0.173,0.199-0.35,0.439-0.417,0.821c0.271,0.097,0.653-0.458,0.866-0.69c0.124-0.139,0.697-1.033,0.86-0.885
				c-0.424,0.723-0.961,1.396-1.307,2.265c0.147,0.027,0.292-0.028,0.435,0.053c-0.177,0.339-0.522,0.479-0.612,0.929
				c0.365-0.053,0.688-0.307,1.066-0.291c0.307,0.012,0.583,0.075,0.876-0.133c-0.351,0.344-0.821,0.587-1.063,1.217
				c0.162,0.146,0.333,0.058,0.5-0.018l-0.036,0.207c0.074-0.01,0.172,0.081,0.249,0.055l0.004,0.311l0.004-0.223"/>
			<line x1="147.724" y1="662.506" x2="147.724" y2="662.506"/>
			<path d="M147.209,655.307c0.363-0.051,0.878-0.111,1.21,0.091"/>
			<path fill="none" stroke="#000000" stroke-width="0" d="M169.14,657.564c0,0,19.353,5.148,25.074-4.92"/>
			<path fill="none" stroke="#000000" stroke-width="0" d="M177.816,661.729c0,0,7.315,1.598,13.097-4.357"/>
		</g>
	</g>
</g>
<g>
	<line x1="58.972" y1="659.5" x2="112.584" y2="659.5"/>
	<g>
		<line fill="none" x1="58.972" y1="659.5" x2="112.584" y2="659.5"/>
		<g>
			<line fill="none" stroke="#000000" stroke-width="0" x1="79.991" y1="657.385" x2="79.991" y2="657.385"/>
			<line fill="none" stroke="#000000" stroke-width="0" x1="79.179" y1="656.768" x2="79.179" y2="656.768"/>
			<path d="M62.411,662.506c0.404,0.112,0.815-0.025,1.202-0.237c0.823-0.448,1.513,1.069,2.317,0.534
				c1.008-0.672,1.999,0.611,3.048,0.168c1.924-0.812,3.909-1.928,5.858-1.325c3.673,1.136,7.011,1.15,10.551,3.048
				c2.058,1.103,4.397,1.777,6.551,1.588c1.577-0.137,4.764,0.664,6.116-0.992c-1.812,0.584-3.719,0.002-5.498-0.689
				c3.904-0.375,7.976-0.338,11.814-1.853c-7.193,2.2-14.47,0.347-21.078-5.29c7.728,2.492,17.759,6.79,25.356,1.152
				c0.576-0.426,1.216-1.035,1.698-1.672c-7.536,7.238-17.313,2.449-25.231-0.445c-3.635-1.328-7.296-2.449-11.016-2.434
				c-1.01-0.192-2.027-0.307-3.04-0.396c-2.08-0.186-4.174-0.232-6.253,0.07c-1.845,0.267-5.133,0.451-5.835,4.229
				c0.591,0.131,1.246-0.329,1.815-0.072c-0.215,0.341-0.462,0.76-0.716,0.994c0.242-0.017,0.511,0.107,0.737-0.111
				c-0.187,0.199-0.378,0.439-0.45,0.821c0.292,0.097,0.704-0.458,0.934-0.69c0.134-0.139,0.752-1.033,0.929-0.885
				c-0.458,0.723-1.037,1.396-1.41,2.265c0.158,0.027,0.315-0.028,0.469,0.053c-0.191,0.339-0.563,0.479-0.66,0.929
				c0.394-0.053,0.742-0.307,1.15-0.291c0.331,0.012,0.629,0.075,0.946-0.133c-0.378,0.344-0.886,0.587-1.148,1.217
				c0.175,0.146,0.359,0.058,0.54-0.018l-0.04,0.207c0.081-0.01,0.186,0.081,0.269,0.055l0.004,0.311l0.004-0.223"/>
			<line x1="62.411" y1="662.506" x2="62.411" y2="662.506"/>
			<path d="M61.855,655.307c0.392-0.051,0.948-0.111,1.306,0.091"/>
			<path fill="none" stroke="#000000" stroke-width="0" d="M85.524,657.564c0,0,20.886,5.148,27.06-4.92"/>
			<path fill="none" stroke="#000000" stroke-width="0" d="M94.888,661.729c0,0,7.894,1.598,14.134-4.357"/>
		</g>
	</g>
</g>
<g>
	<line x1="646.458" y1="659.5" x2="681.215" y2="659.5"/>
	<g>
		<line fill="none" x1="646.458" y1="659.5" x2="681.215" y2="659.5"/>
		<g>
			<line fill="none" stroke="#000000" stroke-width="0" x1="660.085" y1="657.385" x2="660.085" y2="657.385"/>
			<line fill="none" stroke="#000000" stroke-width="0" x1="659.558" y1="656.768" x2="659.558" y2="656.768"/>
			<path d="M648.688,662.506c0.262,0.112,0.529-0.025,0.779-0.237c0.534-0.448,0.981,1.069,1.502,0.534
				c0.653-0.672,1.296,0.611,1.976,0.168c1.247-0.812,2.534-1.928,3.797-1.325c2.381,1.136,4.545,1.15,6.84,3.048
				c1.334,1.103,2.851,1.777,4.248,1.588c1.022-0.137,3.088,0.664,3.964-0.992c-1.174,0.584-2.411,0.002-3.563-0.689
				c2.531-0.375,5.17-0.338,7.659-1.853c-4.663,2.2-9.381,0.347-13.665-5.29c5.01,2.492,11.513,6.79,16.438,1.152
				c0.374-0.426,0.788-1.035,1.101-1.672c-4.885,7.238-11.224,2.449-16.357-0.445c-2.356-1.328-4.73-2.449-7.142-2.434
				c-0.655-0.192-1.314-0.307-1.971-0.396c-1.349-0.186-2.707-0.232-4.054,0.07c-1.196,0.267-3.328,0.451-3.783,4.229
				c0.383,0.131,0.808-0.329,1.177-0.072c-0.14,0.341-0.3,0.76-0.465,0.994c0.157-0.017,0.332,0.107,0.478-0.111
				c-0.121,0.199-0.245,0.439-0.292,0.821c0.189,0.097,0.457-0.458,0.605-0.69c0.087-0.139,0.487-1.033,0.602-0.885
				c-0.297,0.723-0.672,1.396-0.915,2.265c0.103,0.027,0.204-0.028,0.304,0.053c-0.124,0.339-0.365,0.479-0.428,0.929
				c0.255-0.053,0.481-0.307,0.746-0.291c0.215,0.012,0.408,0.075,0.613-0.133c-0.246,0.344-0.575,0.587-0.744,1.217
				c0.113,0.146,0.233,0.058,0.35-0.018l-0.025,0.207c0.052-0.01,0.12,0.081,0.174,0.055l0.003,0.311l0.003-0.223"/>
			<line x1="648.688" y1="662.506" x2="648.688" y2="662.506"/>
			<path d="M648.328,655.307c0.254-0.051,0.614-0.111,0.847,0.091"/>
			<path fill="none" stroke="#000000" stroke-width="0" d="M663.672,657.564c0,0,13.541,5.148,17.543-4.92"/>
			<path fill="none" stroke="#000000" stroke-width="0" d="M669.742,661.729c0,0,5.118,1.598,9.163-4.357"/>
		</g>
	</g>
</g>
<g>
	<line x1="880.861" y1="659.5" x2="932.705" y2="659.5"/>
	<g>
		<line fill="none" x1="880.861" y1="659.5" x2="932.705" y2="659.5"/>
		<g>
			<line fill="none" stroke="#000000" stroke-width="0" x1="901.188" y1="657.385" x2="901.188" y2="657.385"/>
			<line fill="none" stroke="#000000" stroke-width="0" x1="900.401" y1="656.768" x2="900.401" y2="656.768"/>
			<path d="M884.188,662.506c0.391,0.112,0.788-0.025,1.162-0.237c0.796-0.448,1.464,1.069,2.241,0.534
				c0.975-0.672,1.933,0.611,2.946,0.168c1.861-0.812,3.78-1.928,5.665-1.325c3.552,1.136,6.779,1.15,10.203,3.048
				c1.99,1.103,4.252,1.777,6.335,1.588c1.524-0.137,4.607,0.664,5.914-0.992c-1.752,0.584-3.596,0.002-5.315-0.689
				c3.775-0.375,7.712-0.338,11.424-1.853c-6.956,2.2-13.993,0.347-20.383-5.29c7.473,2.492,17.173,6.79,24.52,1.152
				c0.558-0.426,1.176-1.035,1.643-1.672c-7.287,7.238-16.742,2.449-24.398-0.445c-3.515-1.328-7.056-2.449-10.653-2.434
				c-0.977-0.192-1.96-0.307-2.939-0.396c-2.011-0.186-4.037-0.232-6.046,0.07c-1.784,0.267-4.964,0.451-5.644,4.229
				c0.572,0.131,1.205-0.329,1.755-0.072c-0.208,0.341-0.446,0.76-0.692,0.994c0.234-0.017,0.494,0.107,0.713-0.111
				c-0.182,0.199-0.366,0.439-0.436,0.821c0.282,0.097,0.682-0.458,0.903-0.69c0.13-0.139,0.728-1.033,0.897-0.885
				c-0.442,0.723-1.002,1.396-1.363,2.265c0.152,0.027,0.305-0.028,0.453,0.053c-0.184,0.339-0.544,0.479-0.638,0.929
				c0.381-0.053,0.718-0.307,1.112-0.291c0.32,0.012,0.608,0.075,0.914-0.133c-0.365,0.344-0.856,0.587-1.109,1.217
				c0.169,0.146,0.348,0.058,0.521-0.018l-0.038,0.207c0.077-0.01,0.18,0.081,0.26,0.055l0.005,0.311l0.004-0.223"/>
			<line x1="884.188" y1="662.506" x2="884.188" y2="662.506"/>
			<path d="M883.65,655.307c0.378-0.051,0.916-0.111,1.263,0.091"/>
			<path fill="none" stroke="#000000" stroke-width="0" d="M906.537,657.564c0,0,20.197,5.148,26.168-4.92"/>
			<path fill="none" stroke="#000000" stroke-width="0" d="M915.593,661.729c0,0,7.634,1.598,13.667-4.357"/>
		</g>
	</g>
</g>
<g>
	<line x1="798.498" y1="659.5" x2="848.255" y2="659.5"/>
	<g>
		<line fill="none" x1="798.498" y1="659.5" x2="848.255" y2="659.5"/>
		<g>
			<line fill="none" stroke="#000000" stroke-width="0" x1="818.006" y1="657.385" x2="818.006" y2="657.385"/>
			<line fill="none" stroke="#000000" stroke-width="0" x1="817.252" y1="656.768" x2="817.252" y2="656.768"/>
			<path d="M801.689,662.506c0.375,0.112,0.758-0.025,1.116-0.237c0.764-0.448,1.404,1.069,2.15,0.534
				c0.936-0.672,1.855,0.611,2.829,0.168c1.785-0.812,3.627-1.928,5.437-1.325c3.409,1.136,6.507,1.15,9.792,3.048
				c1.91,1.103,4.081,1.777,6.08,1.588c1.464-0.137,4.422,0.664,5.676-0.992c-1.681,0.584-3.451,0.002-5.102-0.689
				c3.623-0.375,7.401-0.338,10.964-1.853c-6.675,2.2-13.43,0.347-19.562-5.29c7.172,2.492,16.481,6.79,23.532,1.152
				c0.534-0.426,1.129-1.035,1.576-1.672c-6.993,7.238-16.068,2.449-23.416-0.445c-3.374-1.328-6.771-2.449-10.225-2.434
				c-0.938-0.192-1.881-0.307-2.821-0.396c-1.93-0.186-3.874-0.232-5.803,0.07c-1.712,0.267-4.764,0.451-5.416,4.229
				c0.549,0.131,1.156-0.329,1.685-0.072c-0.2,0.341-0.429,0.76-0.665,0.994c0.225-0.017,0.475,0.107,0.684-0.111
				c-0.173,0.199-0.351,0.439-0.417,0.821c0.271,0.097,0.653-0.458,0.866-0.69c0.125-0.139,0.698-1.033,0.862-0.885
				c-0.425,0.723-0.963,1.396-1.31,2.265c0.147,0.027,0.293-0.028,0.436,0.053c-0.177,0.339-0.522,0.479-0.612,0.929
				c0.365-0.053,0.689-0.307,1.068-0.291c0.307,0.012,0.583,0.075,0.877-0.133c-0.351,0.344-0.822,0.587-1.065,1.217
				c0.163,0.146,0.334,0.058,0.501-0.018l-0.036,0.207c0.074-0.01,0.172,0.081,0.249,0.055l0.005,0.311l0.004-0.223"/>
			<line x1="801.689" y1="662.506" x2="801.689" y2="662.506"/>
			<path d="M801.175,655.307c0.363-0.051,0.879-0.111,1.212,0.091"/>
			<path fill="none" stroke="#000000" stroke-width="0" d="M823.141,657.564c0,0,19.385,5.148,25.114-4.92"/>
			<path fill="none" stroke="#000000" stroke-width="0" d="M831.831,661.729c0,0,7.327,1.598,13.118-4.357"/>
		</g>
	</g>
</g>
<g>
	<line x1="713.417" y1="659.5" x2="766.146" y2="659.5"/>
	<g>
		<line fill="none" x1="713.417" y1="659.5" x2="766.146" y2="659.5"/>
		<g>
			<line fill="none" stroke="#000000" stroke-width="0" x1="734.09" y1="657.385" x2="734.09" y2="657.385"/>
			<line fill="none" stroke="#000000" stroke-width="0" x1="733.291" y1="656.768" x2="733.291" y2="656.768"/>
			<path d="M716.8,662.506c0.397,0.112,0.802-0.025,1.182-0.237c0.811-0.448,1.489,1.069,2.279,0.534
				c0.991-0.672,1.966,0.611,2.997,0.168c1.893-0.812,3.845-1.928,5.762-1.325c3.613,1.136,6.896,1.15,10.377,3.048
				c2.024,1.103,4.325,1.777,6.443,1.588c1.551-0.137,4.687,0.664,6.016-0.992c-1.782,0.584-3.657,0.002-5.407-0.689
				c3.84-0.375,7.844-0.338,11.619-1.853c-7.074,2.2-14.231,0.347-20.73-5.29c7.601,2.492,17.466,6.79,24.938,1.152
				c0.566-0.426,1.195-1.035,1.67-1.672c-7.411,7.238-17.027,2.449-24.814-0.445c-3.575-1.328-7.176-2.449-10.835-2.434
				c-0.993-0.192-1.993-0.307-2.99-0.396c-2.045-0.186-4.105-0.232-6.149,0.07c-1.814,0.267-5.049,0.451-5.739,4.229
				c0.582,0.131,1.226-0.329,1.785-0.072c-0.212,0.341-0.454,0.76-0.705,0.994c0.238-0.017,0.503,0.107,0.726-0.111
				c-0.185,0.199-0.372,0.439-0.443,0.821c0.287,0.097,0.693-0.458,0.919-0.69c0.132-0.139,0.74-1.033,0.913-0.885
				c-0.45,0.723-1.02,1.396-1.387,2.265c0.155,0.027,0.31-0.028,0.461,0.053c-0.188,0.339-0.554,0.479-0.648,0.929
				c0.387-0.053,0.729-0.307,1.131-0.291c0.326,0.012,0.619,0.075,0.931-0.133c-0.372,0.344-0.872,0.587-1.129,1.217
				c0.172,0.146,0.353,0.058,0.53-0.018l-0.039,0.207c0.079-0.01,0.183,0.081,0.265,0.055l0.005,0.311l0.004-0.223"/>
			<line x1="716.8" y1="662.506" x2="716.8" y2="662.506"/>
			<path d="M716.254,655.307c0.385-0.051,0.932-0.111,1.284,0.091"/>
			<path fill="none" stroke="#000000" stroke-width="0" d="M739.531,657.564c0,0,20.542,5.148,26.614-4.92"/>
			<path fill="none" stroke="#000000" stroke-width="0" d="M748.74,661.729c0,0,7.765,1.598,13.901-4.357"/>
		</g>
	</g>
</g>
<g>
	<line x1="1267.266" y1="659.5" x2="1300.42" y2="659.5"/>
	<g>
		<line fill="none" x1="1267.266" y1="659.5" x2="1300.42" y2="659.5"/>
		<g>
			<line fill="none" stroke="#000000" stroke-width="0" x1="1280.264" y1="657.385" x2="1280.264" y2="657.385"/>
			<line fill="none" stroke="#000000" stroke-width="0" x1="1279.762" y1="656.768" x2="1279.762" y2="656.768"/>
			<path d="M1269.393,662.506c0.25,0.112,0.504-0.025,0.743-0.237c0.509-0.448,0.937,1.069,1.434,0.534
				c0.623-0.672,1.235,0.611,1.884,0.168c1.19-0.812,2.418-1.928,3.623-1.325c2.271,1.136,4.336,1.15,6.525,3.048
				c1.272,1.103,2.719,1.777,4.051,1.588c0.975-0.137,2.946,0.664,3.782-0.992c-1.12,0.584-2.3,0.002-3.399-0.689
				c2.414-0.375,4.932-0.338,7.306-1.853c-4.448,2.2-8.948,0.347-13.035-5.29c4.779,2.492,10.982,6.79,15.681,1.152
				c0.356-0.426,0.752-1.035,1.05-1.672c-4.659,7.238-10.706,2.449-15.603-0.445c-2.248-1.328-4.512-2.449-6.813-2.434
				c-0.625-0.192-1.254-0.307-1.88-0.396c-1.286-0.186-2.581-0.232-3.866,0.07c-1.142,0.267-3.175,0.451-3.609,4.229
				c0.366,0.131,0.771-0.329,1.122-0.072c-0.133,0.341-0.285,0.76-0.442,0.994c0.149-0.017,0.315,0.107,0.455-0.111
				c-0.115,0.199-0.233,0.439-0.277,0.821c0.18,0.097,0.435-0.458,0.577-0.69c0.083-0.139,0.465-1.033,0.574-0.885
				c-0.283,0.723-0.642,1.396-0.872,2.265c0.098,0.027,0.194-0.028,0.29,0.053c-0.118,0.339-0.349,0.479-0.408,0.929
				c0.243-0.053,0.459-0.307,0.712-0.291c0.204,0.012,0.389,0.075,0.584-0.133c-0.233,0.344-0.548,0.587-0.71,1.217
				c0.108,0.146,0.223,0.058,0.334-0.018l-0.024,0.207c0.05-0.01,0.115,0.081,0.166,0.055l0.003,0.311l0.003-0.223"/>
			<line x1="1269.393" y1="662.506" x2="1269.393" y2="662.506"/>
			<path d="M1269.049,655.307c0.242-0.051,0.586-0.111,0.808,0.091"/>
			<path fill="none" stroke="#000000" stroke-width="0" d="M1283.686,657.564c0,0,12.916,5.148,16.734-4.92"/>
			<path fill="none" stroke="#000000" stroke-width="0" d="M1289.477,661.729c0,0,4.882,1.598,8.74-4.357"/>
		</g>
	</g>
</g>
<g>
	<line x1="1183.296" y1="659.5" x2="1216.306" y2="659.5"/>
	<g>
		<line fill="none" x1="1183.296" y1="659.5" x2="1216.306" y2="659.5"/>
		<g>
			<line fill="none" stroke="#000000" stroke-width="0" x1="1196.237" y1="657.385" x2="1196.237" y2="657.385"/>
			<line fill="none" stroke="#000000" stroke-width="0" x1="1195.737" y1="656.768" x2="1195.737" y2="656.768"/>
			<path d="M1185.413,662.506c0.249,0.112,0.503-0.025,0.74-0.237c0.507-0.448,0.933,1.069,1.427,0.534
				c0.621-0.672,1.231,0.611,1.877,0.168c1.185-0.812,2.406-1.928,3.606-1.325c2.262,1.136,4.317,1.15,6.497,3.048
				c1.267,1.103,2.707,1.777,4.033,1.588c0.971-0.137,2.934,0.664,3.766-0.992c-1.115,0.584-2.289,0.002-3.385-0.689
				c2.404-0.375,4.91-0.338,7.274-1.853c-4.429,2.2-8.91,0.347-12.979-5.29c4.758,2.492,10.935,6.79,15.612,1.152
				c0.354-0.426,0.748-1.035,1.046-1.672c-4.64,7.238-10.66,2.449-15.535-0.445c-2.238-1.328-4.492-2.449-6.783-2.434
				c-0.622-0.192-1.248-0.307-1.872-0.396c-1.28-0.186-2.569-0.232-3.85,0.07c-1.136,0.267-3.16,0.451-3.593,4.229
				c0.364,0.131,0.767-0.329,1.117-0.072c-0.132,0.341-0.284,0.76-0.44,0.994c0.148-0.017,0.314,0.107,0.453-0.111
				c-0.115,0.199-0.232,0.439-0.276,0.821c0.179,0.097,0.434-0.458,0.574-0.69c0.083-0.139,0.464-1.033,0.572-0.885
				c-0.282,0.723-0.639,1.396-0.868,2.265c0.098,0.027,0.193-0.028,0.289,0.053c-0.118,0.339-0.348,0.479-0.407,0.929
				c0.243-0.053,0.458-0.307,0.709-0.291c0.204,0.012,0.387,0.075,0.582-0.133c-0.233,0.344-0.546,0.587-0.707,1.217
				c0.108,0.146,0.222,0.058,0.332-0.018l-0.024,0.207c0.05-0.01,0.115,0.081,0.166,0.055l0.003,0.311l0.003-0.223"/>
			<line x1="1185.413" y1="662.506" x2="1185.413" y2="662.506"/>
			<path d="M1185.071,655.307c0.241-0.051,0.584-0.111,0.805,0.091"/>
			<path fill="none" stroke="#000000" stroke-width="0" d="M1199.645,657.564c0,0,12.859,5.148,16.661-4.92"/>
			<path fill="none" stroke="#000000" stroke-width="0" d="M1205.41,661.729c0,0,4.86,1.598,8.702-4.357"/>
		</g>
	</g>
</g>
<g>
	<line x1="1016.255" y1="659.5" x2="1048.861" y2="659.5"/>
	<g>
		<line fill="none" x1="1016.255" y1="659.5" x2="1048.861" y2="659.5"/>
		<g>
			<line fill="none" stroke="#000000" stroke-width="0" x1="1029.039" y1="657.385" x2="1029.039" y2="657.385"/>
			<line fill="none" stroke="#000000" stroke-width="0" x1="1028.545" y1="656.768" x2="1028.545" y2="656.768"/>
			<path d="M1018.347,662.506c0.245,0.112,0.496-0.025,0.731-0.237c0.5-0.448,0.92,1.069,1.409,0.534
				c0.612-0.672,1.216,0.611,1.854,0.168c1.17-0.812,2.377-1.928,3.563-1.325c2.234,1.136,4.264,1.15,6.417,3.048
				c1.252,1.103,2.675,1.777,3.984,1.588c0.959-0.137,2.897,0.664,3.72-0.992c-1.102,0.584-2.262,0.002-3.344-0.689
				c2.375-0.375,4.851-0.338,7.186-1.853c-4.375,2.2-8.801,0.347-12.819-5.29c4.699,2.492,10.801,6.79,15.421,1.152
				c0.351-0.426,0.739-1.035,1.033-1.672c-4.583,7.238-10.53,2.449-15.345-0.445c-2.211-1.328-4.438-2.449-6.7-2.434
				c-0.614-0.192-1.233-0.307-1.85-0.396c-1.265-0.186-2.538-0.232-3.803,0.07c-1.122,0.267-3.122,0.451-3.549,4.229
				c0.359,0.131,0.758-0.329,1.104-0.072c-0.131,0.341-0.28,0.76-0.436,0.994c0.147-0.017,0.312,0.107,0.448-0.111
				c-0.113,0.199-0.229,0.439-0.273,0.821c0.178,0.097,0.429-0.458,0.568-0.69c0.081-0.139,0.457-1.033,0.564-0.885
				c-0.278,0.723-0.631,1.396-0.857,2.265c0.096,0.027,0.191-0.028,0.285,0.053c-0.116,0.339-0.343,0.479-0.401,0.929
				c0.239-0.053,0.451-0.307,0.699-0.291c0.201,0.012,0.383,0.075,0.575-0.133c-0.23,0.344-0.539,0.587-0.698,1.217
				c0.106,0.146,0.219,0.058,0.328-0.018l-0.023,0.207c0.049-0.01,0.112,0.081,0.163,0.055l0.003,0.311l0.003-0.223"/>
			<line x1="1018.347" y1="662.506" x2="1018.347" y2="662.506"/>
			<path d="M1018.009,655.307c0.238-0.051,0.576-0.111,0.794,0.091"/>
			<path fill="none" stroke="#000000" stroke-width="0" d="M1032.403,657.564c0,0,12.703,5.148,16.458-4.92"/>
			<path fill="none" stroke="#000000" stroke-width="0" d="M1038.099,661.729c0,0,4.801,1.598,8.596-4.357"/>
		</g>
	</g>
</g>
<g>
	<line x1="1100.705" y1="659.5" x2="1133.459" y2="659.5"/>
	<g>
		<line fill="none" x1="1100.705" y1="659.5" x2="1133.459" y2="659.5"/>
		<g>
			<line fill="none" stroke="#000000" stroke-width="0" x1="1113.547" y1="657.385" x2="1113.547" y2="657.385"/>
			<line fill="none" stroke="#000000" stroke-width="0" x1="1113.05" y1="656.768" x2="1113.05" y2="656.768"/>
			<path d="M1102.807,662.506c0.246,0.112,0.498-0.025,0.734-0.237c0.503-0.448,0.924,1.069,1.415,0.534
				c0.616-0.672,1.222,0.611,1.862,0.168c1.176-0.812,2.388-1.928,3.579-1.325c2.244,1.136,4.283,1.15,6.446,3.048
				c1.257,1.103,2.686,1.777,4.002,1.588c0.963-0.137,2.911,0.664,3.736-0.992c-1.106,0.584-2.271,0.002-3.358-0.689
				c2.385-0.375,4.872-0.338,7.218-1.853c-4.395,2.2-8.841,0.347-12.878-5.29c4.722,2.492,10.85,6.79,15.491,1.152
				c0.352-0.426,0.743-1.035,1.037-1.672c-4.604,7.238-10.577,2.449-15.414-0.445c-2.221-1.328-4.457-2.449-6.73-2.434
				c-0.617-0.192-1.238-0.307-1.857-0.396c-1.271-0.186-2.55-0.232-3.819,0.07c-1.128,0.267-3.137,0.451-3.565,4.229
				c0.361,0.131,0.761-0.329,1.109-0.072c-0.132,0.341-0.283,0.76-0.438,0.994c0.148-0.017,0.313,0.107,0.45-0.111
				c-0.114,0.199-0.23,0.439-0.274,0.821c0.178,0.097,0.431-0.458,0.57-0.69c0.082-0.139,0.46-1.033,0.567-0.885
				c-0.279,0.723-0.634,1.396-0.861,2.265c0.097,0.027,0.192-0.028,0.286,0.053c-0.116,0.339-0.344,0.479-0.403,0.929
				c0.241-0.053,0.454-0.307,0.703-0.291c0.202,0.012,0.385,0.075,0.578-0.133c-0.231,0.344-0.542,0.587-0.701,1.217
				c0.106,0.146,0.219,0.058,0.329-0.018l-0.024,0.207c0.05-0.01,0.113,0.081,0.165,0.055l0.003,0.311l0.002-0.223"/>
			<line x1="1102.807" y1="662.506" x2="1102.807" y2="662.506"/>
			<path d="M1102.467,655.307c0.239-0.051,0.579-0.111,0.798,0.091"/>
			<path fill="none" stroke="#000000" stroke-width="0" d="M1116.927,657.564c0,0,12.761,5.148,16.532-4.92"/>
			<path fill="none" stroke="#000000" stroke-width="0" d="M1122.647,661.729c0,0,4.823,1.598,8.635-4.357"/>
		</g>
	</g>
</g>
<g>
	<line x1="932.705" y1="659.5" x2="965.459" y2="659.5"/>
	<g>
		<line fill="none" x1="932.705" y1="659.5" x2="965.459" y2="659.5"/>
		<g>
			<line fill="none" stroke="#000000" stroke-width="0" x1="945.547" y1="657.385" x2="945.547" y2="657.385"/>
			<line fill="none" stroke="#000000" stroke-width="0" x1="945.05" y1="656.768" x2="945.05" y2="656.768"/>
			<path d="M934.807,662.506c0.246,0.112,0.498-0.025,0.734-0.237c0.503-0.448,0.924,1.069,1.415,0.534
				c0.616-0.672,1.222,0.611,1.862,0.168c1.176-0.812,2.388-1.928,3.579-1.325c2.244,1.136,4.283,1.15,6.446,3.048
				c1.257,1.103,2.686,1.777,4.002,1.588c0.963-0.137,2.911,0.664,3.736-0.992c-1.106,0.584-2.271,0.002-3.358-0.689
				c2.385-0.375,4.872-0.338,7.218-1.853c-4.395,2.2-8.841,0.347-12.878-5.29c4.722,2.492,10.85,6.79,15.491,1.152
				c0.352-0.426,0.743-1.035,1.037-1.672c-4.604,7.238-10.577,2.449-15.414-0.445c-2.221-1.328-4.457-2.449-6.73-2.434
				c-0.617-0.192-1.238-0.307-1.857-0.396c-1.271-0.186-2.55-0.232-3.819,0.07c-1.127,0.267-3.137,0.451-3.565,4.229
				c0.361,0.131,0.761-0.329,1.109-0.072c-0.132,0.341-0.283,0.76-0.438,0.994c0.148-0.017,0.313,0.107,0.45-0.111
				c-0.114,0.199-0.23,0.439-0.274,0.821c0.178,0.097,0.43-0.458,0.57-0.69c0.082-0.139,0.46-1.033,0.567-0.885
				c-0.279,0.723-0.634,1.396-0.861,2.265c0.097,0.027,0.192-0.028,0.286,0.053c-0.116,0.339-0.344,0.479-0.403,0.929
				c0.241-0.053,0.454-0.307,0.703-0.291c0.202,0.012,0.385,0.075,0.578-0.133c-0.231,0.344-0.542,0.587-0.701,1.217
				c0.106,0.146,0.219,0.058,0.329-0.018l-0.024,0.207c0.05-0.01,0.114,0.081,0.165,0.055l0.003,0.311l0.002-0.223"/>
			<line x1="934.807" y1="662.506" x2="934.807" y2="662.506"/>
			<path d="M934.467,655.307c0.239-0.051,0.579-0.111,0.798,0.091"/>
			<path fill="none" stroke="#000000" stroke-width="0" d="M948.927,657.564c0,0,12.761,5.148,16.532-4.92"/>
			<path fill="none" stroke="#000000" stroke-width="0" d="M954.647,661.729c0,0,4.823,1.598,8.635-4.357"/>
		</g>
	</g>
</g>
<g>
	<line x1="848.255" y1="659.5" x2="880.861" y2="659.5"/>
	<g>
		<line fill="none" x1="848.255" y1="659.5" x2="880.861" y2="659.5"/>
		<g>
			<line fill="none" stroke="#000000" stroke-width="0" x1="861.038" y1="657.385" x2="861.038" y2="657.385"/>
			<line fill="none" stroke="#000000" stroke-width="0" x1="860.545" y1="656.768" x2="860.545" y2="656.768"/>
			<path d="M850.347,662.506c0.245,0.112,0.496-0.025,0.731-0.237c0.5-0.448,0.92,1.069,1.409,0.534
				c0.612-0.672,1.216,0.611,1.854,0.168c1.17-0.812,2.377-1.928,3.563-1.325c2.234,1.136,4.264,1.15,6.417,3.048
				c1.252,1.103,2.675,1.777,3.984,1.588c0.959-0.137,2.897,0.664,3.72-0.992c-1.102,0.584-2.262,0.002-3.344-0.689
				c2.375-0.375,4.851-0.338,7.186-1.853c-4.375,2.2-8.801,0.347-12.819-5.29c4.7,2.492,10.801,6.79,15.421,1.152
				c0.351-0.426,0.739-1.035,1.033-1.672c-4.583,7.238-10.53,2.449-15.345-0.445c-2.211-1.328-4.438-2.449-6.7-2.434
				c-0.614-0.192-1.233-0.307-1.85-0.396c-1.265-0.186-2.538-0.232-3.803,0.07c-1.122,0.267-3.122,0.451-3.549,4.229
				c0.359,0.131,0.758-0.329,1.104-0.072c-0.131,0.341-0.28,0.76-0.436,0.994c0.147-0.017,0.312,0.107,0.448-0.111
				c-0.113,0.199-0.229,0.439-0.273,0.821c0.178,0.097,0.429-0.458,0.568-0.69c0.081-0.139,0.457-1.033,0.564-0.885
				c-0.278,0.723-0.631,1.396-0.857,2.265c0.096,0.027,0.191-0.028,0.285,0.053c-0.116,0.339-0.343,0.479-0.401,0.929
				c0.239-0.053,0.451-0.307,0.699-0.291c0.201,0.012,0.383,0.075,0.575-0.133c-0.23,0.344-0.539,0.587-0.698,1.217
				c0.106,0.146,0.219,0.058,0.328-0.018l-0.023,0.207c0.049-0.01,0.112,0.081,0.163,0.055l0.003,0.311l0.003-0.223"/>
			<line x1="850.347" y1="662.506" x2="850.347" y2="662.506"/>
			<path d="M850.009,655.307c0.238-0.051,0.576-0.111,0.794,0.091"/>
			<path fill="none" stroke="#000000" stroke-width="0" d="M864.403,657.564c0,0,12.703,5.148,16.458-4.92"/>
			<path fill="none" stroke="#000000" stroke-width="0" d="M870.099,661.729c0,0,4.801,1.598,8.596-4.357"/>
		</g>
	</g>
</g>
<g>
	<line x1="681.215" y1="659.5" x2="713.417" y2="659.5"/>
	<g>
		<line fill="none" x1="681.215" y1="659.5" x2="713.417" y2="659.5"/>
		<g>
			<line fill="none" stroke="#000000" stroke-width="0" x1="693.84" y1="657.385" x2="693.84" y2="657.385"/>
			<line fill="none" stroke="#000000" stroke-width="0" x1="693.352" y1="656.768" x2="693.352" y2="656.768"/>
			<path d="M683.281,662.506c0.243,0.112,0.49-0.025,0.722-0.237c0.494-0.448,0.909,1.069,1.392,0.534
				c0.605-0.672,1.201,0.611,1.83,0.168c1.156-0.812,2.349-1.928,3.519-1.325c2.207,1.136,4.212,1.15,6.338,3.048
				c1.236,1.103,2.642,1.777,3.936,1.588c0.946-0.137,2.861,0.664,3.673-0.992c-1.088,0.584-2.233,0.002-3.302-0.689
				c2.345-0.375,4.79-0.338,7.096-1.853c-4.32,2.2-8.691,0.347-12.66-5.29c4.642,2.492,10.667,6.79,15.23,1.152
				c0.346-0.426,0.729-1.035,1.02-1.672c-4.526,7.238-10.399,2.449-15.154-0.445c-2.184-1.328-4.383-2.449-6.617-2.434
				c-0.606-0.192-1.218-0.307-1.826-0.396c-1.249-0.186-2.507-0.232-3.755,0.07c-1.108,0.267-3.083,0.451-3.505,4.229
				c0.355,0.131,0.749-0.329,1.09-0.072c-0.129,0.341-0.278,0.76-0.431,0.994c0.146-0.017,0.307,0.107,0.443-0.111
				c-0.112,0.199-0.227,0.439-0.271,0.821c0.175,0.097,0.423-0.458,0.561-0.69c0.081-0.139,0.452-1.033,0.558-0.885
				c-0.275,0.723-0.623,1.396-0.847,2.265c0.095,0.027,0.189-0.028,0.282,0.053c-0.115,0.339-0.338,0.479-0.396,0.929
				c0.236-0.053,0.446-0.307,0.691-0.291c0.199,0.012,0.378,0.075,0.568-0.133c-0.227,0.344-0.532,0.587-0.689,1.217
				c0.105,0.146,0.216,0.058,0.324-0.018l-0.023,0.207c0.048-0.01,0.111,0.081,0.161,0.055l0.003,0.311l0.002-0.223"/>
			<line x1="683.281" y1="662.506" x2="683.281" y2="662.506"/>
			<path d="M682.947,655.307c0.235-0.051,0.569-0.111,0.784,0.091"/>
			<path fill="none" stroke="#000000" stroke-width="0" d="M697.163,657.564c0,0,12.546,5.148,16.254-4.92"/>
			<path fill="none" stroke="#000000" stroke-width="0" d="M702.787,661.729c0,0,4.742,1.598,8.49-4.357"/>
		</g>
	</g>
</g>
<g>
	<line x1="766.146" y1="659.5" x2="798.498" y2="659.5"/>
	<g>
		<line fill="none" x1="766.146" y1="659.5" x2="798.498" y2="659.5"/>
		<g>
			<line fill="none" stroke="#000000" stroke-width="0" x1="778.83" y1="657.385" x2="778.83" y2="657.385"/>
			<line fill="none" stroke="#000000" stroke-width="0" x1="778.34" y1="656.768" x2="778.34" y2="656.768"/>
			<path d="M768.221,662.506c0.244,0.112,0.492-0.025,0.726-0.237c0.497-0.448,0.913,1.069,1.398,0.534
				c0.608-0.672,1.206,0.611,1.839,0.168c1.161-0.812,2.359-1.928,3.535-1.325c2.217,1.136,4.23,1.15,6.367,3.048
				c1.242,1.103,2.653,1.777,3.953,1.588c0.952-0.137,2.875,0.664,3.69-0.992c-1.093,0.584-2.243,0.002-3.317-0.689
				c2.356-0.375,4.813-0.338,7.13-1.853c-4.341,2.2-8.732,0.347-12.72-5.29c4.663,2.492,10.717,6.79,15.301,1.152
				c0.348-0.426,0.734-1.035,1.025-1.672c-4.548,7.238-10.448,2.449-15.226-0.445c-2.193-1.328-4.403-2.449-6.648-2.434
				c-0.609-0.192-1.223-0.307-1.834-0.396c-1.255-0.186-2.52-0.232-3.773,0.07c-1.113,0.267-3.098,0.451-3.521,4.229
				c0.357,0.131,0.752-0.329,1.096-0.072c-0.13,0.341-0.279,0.76-0.433,0.994c0.146-0.017,0.309,0.107,0.444-0.111
				c-0.112,0.199-0.228,0.439-0.271,0.821c0.176,0.097,0.425-0.458,0.563-0.69c0.081-0.139,0.454-1.033,0.561-0.885
				c-0.276,0.723-0.626,1.396-0.851,2.265c0.095,0.027,0.189-0.028,0.283,0.053c-0.115,0.339-0.34,0.479-0.398,0.929
				c0.237-0.053,0.448-0.307,0.694-0.291c0.199,0.012,0.379,0.075,0.57-0.133c-0.229,0.344-0.535,0.587-0.692,1.217
				c0.105,0.146,0.217,0.058,0.325-0.018l-0.023,0.207c0.048-0.01,0.111,0.081,0.162,0.055l0.003,0.311l0.002-0.223"/>
			<line x1="768.221" y1="662.506" x2="768.221" y2="662.506"/>
			<path d="M767.886,655.307c0.236-0.051,0.572-0.111,0.788,0.091"/>
			<path fill="none" stroke="#000000" stroke-width="0" d="M782.169,657.564c0,0,12.604,5.148,16.329-4.92"/>
			<path fill="none" stroke="#000000" stroke-width="0" d="M787.819,661.729c0,0,4.764,1.598,8.529-4.357"/>
		</g>
	</g>
</g>
<g>
	<line x1="529.254" y1="659.5" x2="561.86" y2="659.5"/>
	<g>
		<line fill="none" x1="529.254" y1="659.5" x2="561.86" y2="659.5"/>
		<g>
			<line fill="none" stroke="#000000" stroke-width="0" x1="542.038" y1="657.385" x2="542.038" y2="657.385"/>
			<line fill="none" stroke="#000000" stroke-width="0" x1="541.543" y1="656.768" x2="541.543" y2="656.768"/>
			<path d="M531.346,662.506c0.246,0.112,0.496-0.025,0.731-0.237c0.501-0.448,0.92,1.069,1.41,0.534
				c0.613-0.672,1.216,0.611,1.854,0.168c1.17-0.812,2.377-1.928,3.563-1.325c2.234,1.136,4.264,1.15,6.417,3.048
				c1.252,1.103,2.674,1.777,3.984,1.588c0.959-0.137,2.898,0.664,3.72-0.992c-1.102,0.584-2.262,0.002-3.343-0.689
				c2.375-0.375,4.85-0.338,7.185-1.853c-4.375,2.2-8.801,0.347-12.819-5.29c4.7,2.492,10.801,6.79,15.421,1.152
				c0.351-0.426,0.74-1.035,1.033-1.672c-4.583,7.238-10.53,2.449-15.345-0.445c-2.21-1.328-4.437-2.449-6.7-2.434
				c-0.615-0.192-1.233-0.307-1.849-0.396c-1.265-0.186-2.539-0.232-3.803,0.07c-1.122,0.267-3.122,0.451-3.549,4.229
				c0.36,0.131,0.758-0.329,1.104-0.072c-0.131,0.341-0.281,0.76-0.436,0.994c0.147-0.017,0.311,0.107,0.448-0.111
				c-0.114,0.199-0.23,0.439-0.273,0.821c0.177,0.097,0.428-0.458,0.568-0.69c0.082-0.139,0.458-1.033,0.565-0.885
				c-0.279,0.723-0.631,1.396-0.858,2.265c0.096,0.027,0.192-0.028,0.286,0.053c-0.116,0.339-0.343,0.479-0.402,0.929
				c0.24-0.053,0.452-0.307,0.7-0.291c0.202,0.012,0.383,0.075,0.575-0.133c-0.23,0.344-0.539,0.587-0.698,1.217
				c0.106,0.146,0.219,0.058,0.328-0.018l-0.024,0.207c0.049-0.01,0.113,0.081,0.164,0.055l0.003,0.311l0.003-0.223"/>
			<line x1="531.346" y1="662.506" x2="531.346" y2="662.506"/>
			<path d="M531.008,655.307c0.238-0.051,0.576-0.111,0.794,0.091"/>
			<path fill="none" stroke="#000000" stroke-width="0" d="M545.403,657.564c0,0,12.703,5.148,16.458-4.92"/>
			<path fill="none" stroke="#000000" stroke-width="0" d="M551.098,661.729c0,0,4.801,1.598,8.596-4.357"/>
		</g>
	</g>
</g>
<g>
	<line x1="613.704" y1="659.5" x2="646.458" y2="659.5"/>
	<g>
		<line fill="none" x1="613.704" y1="659.5" x2="646.458" y2="659.5"/>
		<g>
			<line fill="none" stroke="#000000" stroke-width="0" x1="626.545" y1="657.385" x2="626.545" y2="657.385"/>
			<line fill="none" stroke="#000000" stroke-width="0" x1="626.049" y1="656.768" x2="626.049" y2="656.768"/>
			<path d="M615.805,662.506c0.247,0.112,0.499-0.025,0.734-0.237c0.503-0.448,0.925,1.069,1.416,0.534
				c0.616-0.672,1.221,0.611,1.862,0.168c1.175-0.812,2.388-1.928,3.579-1.325c2.244,1.136,4.284,1.15,6.446,3.048
				c1.257,1.103,2.687,1.777,4.002,1.588c0.963-0.137,2.911,0.664,3.736-0.992c-1.106,0.584-2.272,0.002-3.358-0.689
				c2.385-0.375,4.873-0.338,7.218-1.853c-4.395,2.2-8.841,0.347-12.877-5.29c4.721,2.492,10.849,6.79,15.491,1.152
				c0.352-0.426,0.743-1.035,1.038-1.672c-4.604,7.238-10.578,2.449-15.415-0.445c-2.221-1.328-4.457-2.449-6.73-2.434
				c-0.617-0.192-1.238-0.307-1.857-0.396c-1.271-0.186-2.55-0.232-3.82,0.07c-1.127,0.267-3.136,0.451-3.565,4.229
				c0.361,0.131,0.761-0.329,1.109-0.072c-0.131,0.341-0.282,0.76-0.438,0.994c0.148-0.017,0.313,0.107,0.451-0.111
				c-0.114,0.199-0.231,0.439-0.275,0.821c0.178,0.097,0.43-0.458,0.57-0.69c0.082-0.139,0.46-1.033,0.567-0.885
				c-0.28,0.723-0.634,1.396-0.862,2.265c0.097,0.027,0.193-0.028,0.287,0.053c-0.116,0.339-0.344,0.479-0.403,0.929
				c0.24-0.053,0.454-0.307,0.703-0.291c0.202,0.012,0.384,0.075,0.578-0.133c-0.231,0.344-0.542,0.587-0.701,1.217
				c0.107,0.146,0.22,0.058,0.33-0.018l-0.024,0.207c0.049-0.01,0.113,0.081,0.164,0.055l0.003,0.311l0.002-0.223"/>
			<line x1="615.805" y1="662.506" x2="615.805" y2="662.506"/>
			<path d="M615.466,655.307c0.239-0.051,0.579-0.111,0.798,0.091"/>
			<path fill="none" stroke="#000000" stroke-width="0" d="M629.926,657.564c0,0,12.76,5.148,16.532-4.92"/>
			<path fill="none" stroke="#000000" stroke-width="0" d="M635.646,661.729c0,0,4.823,1.598,8.635-4.357"/>
		</g>
	</g>
</g>
<g>
	<line x1="362.214" y1="659.5" x2="394.416" y2="659.5"/>
	<g>
		<line fill="none" x1="362.214" y1="659.5" x2="394.416" y2="659.5"/>
		<g>
			<line fill="none" stroke="#000000" stroke-width="0" x1="374.839" y1="657.385" x2="374.839" y2="657.385"/>
			<line fill="none" stroke="#000000" stroke-width="0" x1="374.351" y1="656.768" x2="374.351" y2="656.768"/>
			<path d="M364.28,662.506c0.243,0.112,0.49-0.025,0.722-0.237c0.494-0.448,0.909,1.069,1.392,0.534
				c0.605-0.672,1.201,0.611,1.831,0.168c1.156-0.812,2.348-1.928,3.519-1.325c2.207,1.136,4.211,1.15,6.337,3.048
				c1.236,1.103,2.641,1.777,3.935,1.588c0.947-0.137,2.862,0.664,3.673-0.992c-1.088,0.584-2.233,0.002-3.302-0.689
				c2.345-0.375,4.791-0.338,7.096-1.853c-4.321,2.2-8.692,0.347-12.661-5.29c4.642,2.492,10.667,6.79,15.23,1.152
				c0.346-0.426,0.73-1.035,1.02-1.672c-4.526,7.238-10.399,2.449-15.155-0.445c-2.183-1.328-4.382-2.449-6.617-2.434
				c-0.607-0.192-1.218-0.307-1.826-0.396c-1.249-0.186-2.507-0.232-3.755,0.07c-1.108,0.267-3.083,0.451-3.505,4.229
				c0.355,0.131,0.749-0.329,1.09-0.072c-0.129,0.341-0.278,0.76-0.431,0.994c0.146-0.017,0.307,0.107,0.443-0.111
				c-0.112,0.199-0.227,0.439-0.271,0.821c0.175,0.097,0.423-0.458,0.561-0.69c0.081-0.139,0.452-1.033,0.558-0.885
				c-0.275,0.723-0.623,1.396-0.847,2.265c0.095,0.027,0.189-0.028,0.282,0.053c-0.115,0.339-0.338,0.479-0.396,0.929
				c0.236-0.053,0.446-0.307,0.691-0.291c0.199,0.012,0.378,0.075,0.568-0.133c-0.227,0.344-0.532,0.587-0.689,1.217
				c0.105,0.146,0.216,0.058,0.324-0.018l-0.023,0.207c0.048-0.01,0.111,0.081,0.161,0.055l0.003,0.311l0.002-0.223"/>
			<line x1="364.28" y1="662.506" x2="364.28" y2="662.506"/>
			<path d="M363.946,655.307c0.235-0.051,0.569-0.111,0.784,0.091"/>
			<path fill="none" stroke="#000000" stroke-width="0" d="M378.163,657.564c0,0,12.545,5.148,16.253-4.92"/>
			<path fill="none" stroke="#000000" stroke-width="0" d="M383.787,661.729c0,0,4.742,1.598,8.49-4.357"/>
		</g>
	</g>
</g>
<g>
	<line x1="447.145" y1="659.5" x2="479.497" y2="659.5"/>
	<g>
		<line fill="none" x1="447.145" y1="659.5" x2="479.497" y2="659.5"/>
		<g>
			<line fill="none" stroke="#000000" stroke-width="0" x1="459.829" y1="657.385" x2="459.829" y2="657.385"/>
			<line fill="none" stroke="#000000" stroke-width="0" x1="459.338" y1="656.768" x2="459.338" y2="656.768"/>
			<path d="M449.22,662.506c0.244,0.112,0.492-0.025,0.726-0.237c0.497-0.448,0.914,1.069,1.398,0.534
				c0.608-0.672,1.207,0.611,1.839,0.168c1.161-0.812,2.359-1.928,3.535-1.325c2.217,1.136,4.231,1.15,6.367,3.048
				c1.242,1.103,2.653,1.777,3.954,1.588c0.951-0.137,2.875,0.664,3.69-0.992c-1.093,0.584-2.244,0.002-3.317-0.689
				c2.356-0.375,4.813-0.338,7.129-1.853c-4.34,2.2-8.732,0.347-12.719-5.29c4.663,2.492,10.716,6.79,15.301,1.152
				c0.347-0.426,0.733-1.035,1.024-1.672c-4.547,7.238-10.448,2.449-15.226-0.445c-2.193-1.328-4.402-2.449-6.647-2.434
				c-0.61-0.192-1.223-0.307-1.834-0.396c-1.255-0.186-2.52-0.232-3.773,0.07c-1.113,0.267-3.098,0.451-3.521,4.229
				c0.357,0.131,0.752-0.329,1.095-0.072c-0.13,0.341-0.279,0.76-0.432,0.994c0.146-0.017,0.308,0.107,0.444-0.111
				c-0.113,0.199-0.228,0.439-0.271,0.821c0.176,0.097,0.425-0.458,0.564-0.69c0.081-0.139,0.454-1.033,0.56-0.885
				c-0.276,0.723-0.625,1.396-0.851,2.265c0.096,0.027,0.19-0.028,0.283,0.053c-0.115,0.339-0.34,0.479-0.398,0.929
				c0.238-0.053,0.448-0.307,0.694-0.291c0.2,0.012,0.38,0.075,0.571-0.133c-0.229,0.344-0.535,0.587-0.693,1.217
				c0.106,0.146,0.217,0.058,0.326-0.018l-0.024,0.207c0.049-0.01,0.112,0.081,0.163,0.055l0.002,0.311l0.003-0.223"/>
			<line x1="449.22" y1="662.506" x2="449.22" y2="662.506"/>
			<path d="M448.885,655.307c0.236-0.051,0.572-0.111,0.788,0.091"/>
			<path fill="none" stroke="#000000" stroke-width="0" d="M463.167,657.564c0,0,12.604,5.148,16.33-4.92"/>
			<path fill="none" stroke="#000000" stroke-width="0" d="M468.818,661.729c0,0,4.764,1.598,8.529-4.357"/>
		</g>
	</g>
</g>
<g>
	<line x1="279.145" y1="659.5" x2="311.497" y2="659.5"/>
	<g>
		<line fill="none" x1="279.145" y1="659.5" x2="311.497" y2="659.5"/>
		<g>
			<line fill="none" stroke="#000000" stroke-width="0" x1="291.829" y1="657.385" x2="291.829" y2="657.385"/>
			<line fill="none" stroke="#000000" stroke-width="0" x1="291.338" y1="656.768" x2="291.338" y2="656.768"/>
			<path d="M281.22,662.506c0.244,0.112,0.492-0.025,0.726-0.237c0.497-0.448,0.914,1.069,1.398,0.534
				c0.608-0.672,1.207,0.611,1.839,0.168c1.161-0.812,2.359-1.928,3.535-1.325c2.217,1.136,4.231,1.15,6.367,3.048
				c1.242,1.103,2.653,1.777,3.954,1.588c0.951-0.137,2.875,0.664,3.69-0.992c-1.093,0.584-2.244,0.002-3.317-0.689
				c2.356-0.375,4.813-0.338,7.129-1.853c-4.34,2.2-8.732,0.347-12.719-5.29c4.663,2.492,10.716,6.79,15.301,1.152
				c0.347-0.426,0.733-1.035,1.024-1.672c-4.547,7.238-10.448,2.449-15.226-0.445c-2.193-1.328-4.402-2.449-6.647-2.434
				c-0.61-0.192-1.223-0.307-1.834-0.396c-1.255-0.186-2.52-0.232-3.773,0.07c-1.113,0.267-3.098,0.451-3.521,4.229
				c0.357,0.131,0.752-0.329,1.095-0.072c-0.13,0.341-0.279,0.76-0.432,0.994c0.146-0.017,0.308,0.107,0.444-0.111
				c-0.113,0.199-0.228,0.439-0.271,0.821c0.176,0.097,0.425-0.458,0.564-0.69c0.081-0.139,0.454-1.033,0.56-0.885
				c-0.276,0.723-0.625,1.396-0.851,2.265c0.096,0.027,0.19-0.028,0.283,0.053c-0.115,0.339-0.34,0.479-0.398,0.929
				c0.238-0.053,0.448-0.307,0.694-0.291c0.2,0.012,0.38,0.075,0.571-0.133c-0.229,0.344-0.535,0.587-0.693,1.217
				c0.106,0.146,0.217,0.058,0.326-0.018l-0.024,0.207c0.049-0.01,0.112,0.081,0.163,0.055l0.002,0.311l0.003-0.223"/>
			<line x1="281.22" y1="662.506" x2="281.22" y2="662.506"/>
			<path d="M280.885,655.307c0.236-0.051,0.572-0.111,0.788,0.091"/>
			<path fill="none" stroke="#000000" stroke-width="0" d="M295.167,657.564c0,0,12.604,5.148,16.33-4.92"/>
			<path fill="none" stroke="#000000" stroke-width="0" d="M300.818,661.729c0,0,4.764,1.598,8.529-4.357"/>
		</g>
	</g>
</g>
<g>
	<line x1="194.214" y1="659.5" x2="226.416" y2="659.5"/>
	<g>
		<line fill="none" x1="194.214" y1="659.5" x2="226.416" y2="659.5"/>
		<g>
			<line fill="none" stroke="#000000" stroke-width="0" x1="206.839" y1="657.385" x2="206.839" y2="657.385"/>
			<line fill="none" stroke="#000000" stroke-width="0" x1="206.351" y1="656.768" x2="206.351" y2="656.768"/>
			<path d="M196.28,662.506c0.243,0.112,0.49-0.025,0.722-0.237c0.494-0.448,0.909,1.069,1.392,0.534
				c0.605-0.672,1.201,0.611,1.831,0.168c1.156-0.812,2.348-1.928,3.519-1.325c2.207,1.136,4.211,1.15,6.337,3.048
				c1.236,1.103,2.641,1.777,3.935,1.588c0.947-0.137,2.862,0.664,3.673-0.992c-1.088,0.584-2.233,0.002-3.302-0.689
				c2.345-0.375,4.791-0.338,7.096-1.853c-4.321,2.2-8.692,0.347-12.661-5.29c4.642,2.492,10.667,6.79,15.23,1.152
				c0.346-0.426,0.73-1.035,1.02-1.672c-4.526,7.238-10.399,2.449-15.155-0.445c-2.183-1.328-4.382-2.449-6.617-2.434
				c-0.607-0.192-1.217-0.307-1.826-0.396c-1.249-0.186-2.507-0.232-3.755,0.07c-1.108,0.267-3.083,0.451-3.505,4.229
				c0.355,0.131,0.749-0.329,1.09-0.072c-0.129,0.341-0.278,0.76-0.431,0.994c0.146-0.017,0.307,0.107,0.443-0.111
				c-0.112,0.199-0.227,0.439-0.271,0.821c0.175,0.097,0.423-0.458,0.561-0.69c0.081-0.139,0.452-1.033,0.558-0.885
				c-0.275,0.723-0.623,1.396-0.847,2.265c0.095,0.027,0.189-0.028,0.282,0.053c-0.115,0.339-0.338,0.479-0.396,0.929
				c0.236-0.053,0.446-0.307,0.691-0.291c0.199,0.012,0.378,0.075,0.568-0.133c-0.227,0.344-0.532,0.587-0.689,1.217
				c0.105,0.146,0.216,0.058,0.324-0.018l-0.023,0.207c0.048-0.01,0.111,0.081,0.161,0.055l0.003,0.311l0.002-0.223"/>
			<line x1="196.28" y1="662.506" x2="196.28" y2="662.506"/>
			<path d="M195.946,655.307c0.235-0.051,0.569-0.111,0.784,0.091"/>
			<path fill="none" stroke="#000000" stroke-width="0" d="M210.163,657.564c0,0,12.545,5.148,16.253-4.92"/>
			<path fill="none" stroke="#000000" stroke-width="0" d="M215.787,661.729c0,0,4.742,1.598,8.49-4.357"/>
		</g>
	</g>
</g>
<g>
	<line x1="27.174" y1="659.5" x2="58.972" y2="659.5"/>
	<g>
		<line fill="none" x1="27.174" y1="659.5" x2="58.972" y2="659.5"/>
		<g>
			<line fill="none" stroke="#000000" stroke-width="0" x1="39.641" y1="657.385" x2="39.641" y2="657.385"/>
			<line fill="none" stroke="#000000" stroke-width="0" x1="39.159" y1="656.768" x2="39.159" y2="656.768"/>
			<path d="M29.214,662.506c0.239,0.112,0.483-0.025,0.713-0.237c0.488-0.448,0.897,1.069,1.375,0.534
				c0.598-0.672,1.186,0.611,1.807,0.168c1.142-0.812,2.318-1.928,3.475-1.325c2.179,1.136,4.158,1.15,6.258,3.048
				c1.221,1.103,2.608,1.777,3.886,1.588c0.935-0.137,2.826,0.664,3.627-0.992c-1.075,0.584-2.206,0.002-3.261-0.689
				c2.316-0.375,4.73-0.338,7.007-1.853c-4.266,2.2-8.583,0.347-12.501-5.29c4.583,2.492,10.533,6.79,15.039,1.152
				c0.342-0.426,0.721-1.035,1.007-1.672c-4.47,7.238-10.269,2.449-14.965-0.445c-2.156-1.328-4.327-2.449-6.534-2.434
				c-0.599-0.192-1.202-0.307-1.803-0.396c-1.233-0.186-2.476-0.232-3.708,0.07c-1.095,0.267-3.045,0.451-3.461,4.229
				c0.351,0.131,0.739-0.329,1.077-0.072c-0.128,0.341-0.274,0.76-0.425,0.994c0.144-0.017,0.303,0.107,0.438-0.111
				c-0.111,0.199-0.225,0.439-0.267,0.821c0.173,0.097,0.418-0.458,0.554-0.69c0.08-0.139,0.446-1.033,0.551-0.885
				c-0.271,0.723-0.615,1.396-0.836,2.265c0.094,0.027,0.187-0.028,0.278,0.053c-0.113,0.339-0.334,0.479-0.392,0.929
				c0.234-0.053,0.44-0.307,0.683-0.291c0.196,0.012,0.373,0.075,0.561-0.133c-0.225,0.344-0.526,0.587-0.681,1.217
				c0.104,0.146,0.213,0.058,0.32-0.018l-0.023,0.207c0.047-0.01,0.11,0.081,0.159,0.055l0.003,0.311l0.002-0.223"/>
			<line x1="29.214" y1="662.506" x2="29.214" y2="662.506"/>
			<path d="M28.884,655.307c0.232-0.051,0.562-0.111,0.774,0.091"/>
			<path fill="none" stroke="#000000" stroke-width="0" d="M42.922,657.564c0,0,12.388,5.148,16.05-4.92"/>
			<path fill="none" stroke="#000000" stroke-width="0" d="M48.476,661.729c0,0,4.683,1.598,8.383-4.357"/>
		</g>
	</g>
</g>
<g>
	<line x1="112.584" y1="659.5" x2="144.537" y2="659.5"/>
	<g>
		<line fill="none" x1="112.584" y1="659.5" x2="144.537" y2="659.5"/>
		<g>
			<line fill="none" stroke="#000000" stroke-width="0" x1="125.111" y1="657.385" x2="125.111" y2="657.385"/>
			<line fill="none" stroke="#000000" stroke-width="0" x1="124.627" y1="656.768" x2="124.627" y2="656.768"/>
			<path d="M114.634,662.506c0.241,0.112,0.486-0.025,0.716-0.237c0.491-0.448,0.902,1.069,1.381,0.534
				c0.601-0.672,1.191,0.611,1.816,0.168c1.146-0.812,2.33-1.928,3.491-1.325c2.189,1.136,4.179,1.15,6.289,3.048
				c1.227,1.103,2.621,1.777,3.905,1.588c0.939-0.137,2.839,0.664,3.645-0.992c-1.08,0.584-2.216,0.002-3.276-0.689
				c2.327-0.375,4.753-0.338,7.042-1.853c-4.287,2.2-8.625,0.347-12.563-5.29c4.605,2.492,10.584,6.79,15.112,1.152
				c0.343-0.426,0.725-1.035,1.012-1.672c-4.491,7.238-10.318,2.449-15.038-0.445c-2.166-1.328-4.348-2.449-6.565-2.434
				c-0.602-0.192-1.208-0.307-1.812-0.396c-1.24-0.186-2.488-0.232-3.727,0.07c-1.1,0.267-3.06,0.451-3.478,4.229
				c0.353,0.131,0.743-0.329,1.082-0.072c-0.128,0.341-0.275,0.76-0.427,0.994c0.145-0.017,0.305,0.107,0.439-0.111
				c-0.111,0.199-0.225,0.439-0.268,0.821c0.174,0.097,0.42-0.458,0.557-0.69c0.08-0.139,0.448-1.033,0.554-0.885
				c-0.273,0.723-0.618,1.396-0.841,2.265c0.094,0.027,0.188-0.028,0.28,0.053c-0.114,0.339-0.336,0.479-0.394,0.929
				c0.235-0.053,0.442-0.307,0.686-0.291c0.197,0.012,0.375,0.075,0.563-0.133c-0.226,0.344-0.528,0.587-0.684,1.217
				c0.104,0.146,0.214,0.058,0.321-0.018l-0.023,0.207c0.048-0.01,0.111,0.081,0.16,0.055l0.003,0.311l0.002-0.223"/>
			<line x1="114.634" y1="662.506" x2="114.634" y2="662.506"/>
			<path d="M114.303,655.307c0.233-0.051,0.565-0.111,0.778,0.091"/>
			<path fill="none" stroke="#000000" stroke-width="0" d="M128.409,657.564c0,0,12.448,5.148,16.128-4.92"/>
			<path fill="none" stroke="#000000" stroke-width="0" d="M133.99,661.729c0,0,4.705,1.598,8.424-4.357"/>
		</g>
	</g>
</g>
</svg>
